NerdfontsPL.ufo
<glyph name="uniE0A0" format="2">
  <advance width="1200"/>
  <unicode hex="E0A0"/>
  <note>
uniE0A0
</note>
  <outline>
    <contour>
      <point x="129" y="1803" type="line"/>
      <point x="129" y="1803" type="line"/>
      <point x="129" y="398" type="line"/>
      <point x="405" y="576" type="line"/>
      <point x="405" y="1803" type="line"/>
    </contour>
    <contour>
      <point x="129" y="-126" type="curve"/>
      <point x="129" y="-126" type="line"/>
      <point x="129" y="-725" type="line"/>
      <point x="405" y="-725" type="line"/>
      <point x="405" y="-126" type="line" smooth="yes"/>
      <point x="405" y="-43"/>
      <point x="419" y="22"/>
      <point x="446" y="70" type="curve" smooth="yes"/>
      <point x="467" y="109"/>
      <point x="509" y="149"/>
      <point x="573" y="192" type="curve" smooth="yes"/>
      <point x="649" y="244" type="line" smooth="yes"/>
      <point x="720" y="289"/>
      <point x="773" y="347"/>
      <point x="808" y="416" type="curve" smooth="yes"/>
      <point x="844" y="485"/>
      <point x="862" y="583"/>
      <point x="862" y="710" type="curve" smooth="yes"/>
      <point x="862" y="1096" type="line"/>
      <point x="1071" y="1096" type="line"/>
      <point x="780" y="1438" type="line"/>
      <point x="487" y="1096" type="line"/>
      <point x="696" y="1096" type="line"/>
      <point x="696" y="766" type="line" smooth="yes"/>
      <point x="696" y="678"/>
      <point x="683" y="609"/>
      <point x="657" y="558" type="curve" smooth="yes"/>
      <point x="629" y="502"/>
      <point x="587" y="455"/>
      <point x="530" y="418" type="curve" smooth="yes"/>
      <point x="376" y="320" type="line" smooth="yes"/>
      <point x="302" y="272"/>
      <point x="246" y="221"/>
      <point x="208" y="166" type="curve" smooth="yes"/>
      <point x="155" y="91"/>
      <point x="129" y="-6"/>
    </contour>
  </outline>
</glyph>
<glyph name="uniE0A1" format="2">
  <advance width="1200"/>
  <unicode hex="E0A1"/>
  <note>
uniE0A1
</note>
  <outline>
    <contour>
      <point x="266" y="1490" type="line"/>
      <point x="266" y="1490" type="line"/>
      <point x="266" y="590" type="line"/>
      <point x="770" y="590" type="line"/>
      <point x="770" y="722" type="line"/>
      <point x="418" y="722" type="line"/>
      <point x="418" y="1490" type="line"/>
    </contour>
    <contour>
      <point x="386" y="508" type="line"/>
      <point x="386" y="508" type="line"/>
      <point x="386" y="-392" type="line"/>
      <point x="542" y="-392" type="line"/>
      <point x="542" y="-196" type="line"/>
      <point x="524" y="192" type="line"/>
      <point x="768" y="-392" type="line"/>
      <point x="934" y="-392" type="line"/>
      <point x="934" y="508" type="line"/>
      <point x="778" y="508" type="line"/>
      <point x="778" y="350" type="line"/>
      <point x="798" y="-78" type="line"/>
      <point x="550" y="508" type="line"/>
    </contour>
  </outline>
</glyph>
<glyph name="uniE0A2" format="2">
  <advance width="1200"/>
  <unicode hex="E0A2"/>
  <note>
uniE0A2
</note>
  <outline>
    <contour>
      <point x="334" y="-252" type="curve"/>
      <point x="334" y="-252" type="line"/>
      <point x="864" y="-252" type="line" smooth="yes"/>
      <point x="959" y="-252"/>
      <point x="1006" y="-205"/>
      <point x="1006" y="-111" type="curve" smooth="yes"/>
      <point x="1006" y="577" type="line" smooth="yes"/>
      <point x="1006" y="678"/>
      <point x="965" y="729"/>
      <point x="884" y="729" type="curve"/>
      <point x="884" y="1034" type="line" smooth="yes"/>
      <point x="884" y="1125"/>
      <point x="856" y="1202"/>
      <point x="800" y="1264" type="curve" smooth="yes"/>
      <point x="747" y="1321"/>
      <point x="680" y="1350"/>
      <point x="600" y="1350" type="curve" smooth="yes"/>
      <point x="520" y="1350"/>
      <point x="453" y="1321"/>
      <point x="400" y="1264" type="curve" smooth="yes"/>
      <point x="344" y="1202"/>
      <point x="316" y="1125"/>
      <point x="316" y="1034" type="curve" smooth="yes"/>
      <point x="316" y="729" type="line"/>
      <point x="235" y="729"/>
      <point x="194" y="678"/>
      <point x="194" y="577" type="curve" smooth="yes"/>
      <point x="194" y="-111" type="line" smooth="yes"/>
      <point x="194" y="-205"/>
      <point x="241" y="-252"/>
    </contour>
    <contour>
      <point x="748" y="729" type="line"/>
      <point x="748" y="729" type="line"/>
      <point x="452" y="729" type="line"/>
      <point x="452" y="1034" type="line" smooth="yes"/>
      <point x="452" y="1092"/>
      <point x="465" y="1137"/>
      <point x="492" y="1169" type="curve" smooth="yes"/>
      <point x="520" y="1204"/>
      <point x="556" y="1221"/>
      <point x="600" y="1221" type="curve" smooth="yes"/>
      <point x="643" y="1221"/>
      <point x="678" y="1204"/>
      <point x="706" y="1169" type="curve" smooth="yes"/>
      <point x="734" y="1136"/>
      <point x="748" y="1091"/>
      <point x="748" y="1034" type="curve" smooth="yes"/>
    </contour>
    <contour>
      <point x="656" y="-16" type="line"/>
      <point x="656" y="-16" type="line"/>
      <point x="542" y="-16" type="line"/>
      <point x="542" y="307" type="line"/>
      <point x="498" y="330"/>
      <point x="476" y="367"/>
      <point x="476" y="418" type="curve" smooth="yes"/>
      <point x="476" y="453"/>
      <point x="488" y="482"/>
      <point x="512" y="506" type="curve" smooth="yes"/>
      <point x="536" y="531"/>
      <point x="565" y="543"/>
      <point x="599" y="543" type="curve" smooth="yes"/>
      <point x="633" y="543"/>
      <point x="663" y="531"/>
      <point x="688" y="506" type="curve" smooth="yes"/>
      <point x="711" y="483"/>
      <point x="722" y="453"/>
      <point x="722" y="418" type="curve" smooth="yes"/>
      <point x="722" y="367"/>
      <point x="700" y="330"/>
      <point x="656" y="307" type="curve"/>
    </contour>
  </outline>
</glyph>
<glyph name="uniE0A3" format="2">
  <advance width="1200"/>
  <unicode hex="E0A3"/>
  <note>
uniE0A3
</note>
  <outline>
    <contour>
      <point x="330" y="501" type="line"/>
      <point x="330" y="501" type="line"/>
      <point x="330" y="-467" type="line"/>
      <point x="528" y="-467" type="line"/>
      <point x="528" y="-257" type="line"/>
      <point x="504" y="162" type="line"/>
      <point x="812" y="-467" type="line"/>
      <point x="1023" y="-467" type="line"/>
      <point x="1023" y="501" type="line"/>
      <point x="822" y="501" type="line"/>
      <point x="822" y="331" type="line"/>
      <point x="849" y="-130" type="line"/>
      <point x="538" y="501" type="line"/>
    </contour>
    <contour>
      <point x="177" y="1565" type="line"/>
      <point x="177" y="1565" type="line"/>
      <point x="177" y="588" type="line"/>
      <point x="797" y="588" type="line"/>
      <point x="797" y="730" type="line"/>
      <point x="370" y="730" type="line"/>
      <point x="367" y="1405" type="line"/>
      <point x="797" y="1405" type="line"/>
      <point x="797" y="1565" type="line"/>
    </contour>
  </outline>
</glyph>
<glyph name="uniE0B0" format="2">
  <advance width="1200"/>
  <unicode hex="E0B0"/>
  <note>
uniE0B0
</note>
  <outline>
    <contour>
      <point x="0" y="2003" type="line"/>
      <point x="0" y="2003" type="line"/>
      <point x="0" y="-505" type="line"/>
      <point x="1200" y="750" type="line"/>
    </contour>
  </outline>
</glyph>
<glyph name="uniE0B3" format="2">
  <advance width="1200"/>
  <unicode hex="E0B3"/>
  <note>
uniE0B3
</note>
  <outline>
    <contour>
      <point x="0" y="550" type="line"/>
      <point x="0" y="550" type="line"/>
      <point x="1098" y="-705" type="line"/>
      <point x="1200" y="-597" type="line"/>
      <point x="197" y="550" type="line"/>
      <point x="1200" y="1696" type="line"/>
      <point x="1098" y="1803" type="line"/>
    </contour>
  </outline>
</glyph>
<glyph name="uniE0B4" format="2">
  <advance width="1200"/>
  <unicode hex="E0B4"/>
  <note>
uniE0B4
</note>
  <outline>
    <contour>
      <point x="0" y="2226" type="curve"/>
      <point x="0" y="-492" type="line"/>
      <point x="723" y="-492"/>
      <point x="1200" y="50"/>
      <point x="1200" y="873" type="curve" smooth="yes"/>
      <point x="1200" y="1689"/>
      <point x="723" y="2226"/>
    </contour>
  </outline>
</glyph>
<glyph name="uniE0B5" format="2">
  <advance width="1200"/>
  <unicode hex="E0B5"/>
  <note>
uniE0B5
</note>
  <outline>
    <contour>
      <point x="238" y="1786" type="curve"/>
      <point x="238" y="1786" type="line"/>
      <point x="0" y="1786" type="line"/>
      <point x="551" y="1582"/>
      <point x="962" y="1096"/>
      <point x="962" y="547" type="curve" smooth="yes"/>
      <point x="962" y="-2"/>
      <point x="551" y="-488"/>
      <point x="0" y="-692" type="curve"/>
      <point x="238" y="-692" type="line"/>
      <point x="794" y="-491"/>
      <point x="1200" y="-11"/>
      <point x="1200" y="547" type="curve" smooth="yes"/>
      <point x="1200" y="1105"/>
      <point x="794" y="1585"/>
    </contour>
  </outline>
</glyph>
<glyph name="uniE0B6" format="2">
  <advance width="1200"/>
  <unicode hex="E0B6"/>
  <note>
uniE0B6
</note>
  <outline>
    <contour>
      <point x="1200" y="-692" type="curve"/>
      <point x="1200" y="-692" type="line"/>
      <point x="1200" y="1790" type="line"/>
      <point x="477" y="1790"/>
      <point x="0" y="1297"/>
      <point x="0" y="549" type="curve" smooth="yes"/>
      <point x="0" y="-199"/>
      <point x="477" y="-692"/>
    </contour>
  </outline>
</glyph>
<glyph name="uniE0B7" format="2">
  <advance width="1200"/>
  <unicode hex="E0B7"/>
  <note>
uniE0B7
</note>
  <outline>
    <contour>
      <point x="962" y="2226" type="line"/>
      <point x="382" y="2017"/>
      <point x="0" y="1480"/>
      <point x="0" y="873" type="curve" smooth="yes"/>
      <point x="0" y="259"/>
      <point x="382" y="-283"/>
      <point x="962" y="-492" type="curve"/>
      <point x="1200" y="-492" type="line"/>
      <point x="620" y="-278"/>
      <point x="238" y="264"/>
      <point x="238" y="873" type="curve" smooth="yes"/>
      <point x="238" y="1475"/>
      <point x="620" y="2012"/>
      <point x="1200" y="2226" type="curve"/>
    </contour>
  </outline>
</glyph>
<glyph name="uniE0B8" format="2">
  <advance width="1200"/>
  <unicode hex="E0B8"/>
  <note>
uniE0B8
</note>
  <outline>
    <contour>
      <point x="0" y="2003" type="line"/>
      <point x="0" y="2003" type="line"/>
      <point x="0" y="-505" type="line"/>
      <point x="1200" y="-505" type="line"/>
    </contour>
  </outline>
</glyph>
<glyph name="uniE0C0" format="2">
  <advance width="1200"/>
  <unicode hex="E0C0"/>
  <note>
uniE0C0
</note>
  <outline>
    <contour>
      <point x="10" y="-692" type="curve"/>
      <point x="10" y="-692" type="line"/>
      <point x="31" y="-692"/>
      <point x="56" y="-659"/>
      <point x="80" y="-617" type="curve" smooth="yes"/>
      <point x="93" y="-592"/>
      <point x="106" y="-568"/>
      <point x="119" y="-544" type="curve" smooth="yes"/>
      <point x="141" y="-504"/>
      <point x="166" y="-474"/>
      <point x="187" y="-474" type="curve" smooth="yes"/>
      <point x="191" y="-474"/>
      <point x="195" y="-475"/>
      <point x="199" y="-477" type="curve" smooth="yes"/>
      <point x="209" y="-484"/>
      <point x="221" y="-487"/>
      <point x="231" y="-487" type="curve" smooth="yes"/>
      <point x="240" y="-487"/>
      <point x="248" y="-485"/>
      <point x="256" y="-482" type="curve" smooth="yes"/>
      <point x="265" y="-478"/>
      <point x="275" y="-473"/>
      <point x="285" y="-467" type="curve" smooth="yes"/>
      <point x="300" y="-457"/>
      <point x="327" y="-436"/>
      <point x="342" y="-427" type="curve" smooth="yes"/>
      <point x="353" y="-420"/>
      <point x="363" y="-414"/>
      <point x="371" y="-410" type="curve"/>
      <point x="354" y="-400"/>
      <point x="322" y="-390"/>
      <point x="299" y="-375" type="curve" smooth="yes"/>
      <point x="288" y="-367"/>
      <point x="277" y="-356"/>
      <point x="268" y="-343" type="curve" smooth="yes"/>
      <point x="243" y="-308"/>
      <point x="226" y="-291"/>
      <point x="207" y="-291" type="curve" smooth="yes"/>
      <point x="203" y="-291"/>
      <point x="198" y="-292"/>
      <point x="194" y="-294" type="curve" smooth="yes"/>
      <point x="181" y="-299"/>
      <point x="167" y="-311"/>
      <point x="152" y="-332" type="curve"/>
      <point x="152" y="-313" type="line" smooth="yes"/>
      <point x="149" y="-202"/>
      <point x="189" y="-104"/>
      <point x="225" y="-68" type="curve" smooth="yes"/>
      <point x="236" y="-56"/>
      <point x="249" y="-51"/>
      <point x="261" y="-51" type="curve" smooth="yes"/>
      <point x="274" y="-51"/>
      <point x="288" y="-57"/>
      <point x="300" y="-66" type="curve" smooth="yes"/>
      <point x="312" y="-75"/>
      <point x="324" y="-86"/>
      <point x="337" y="-99" type="curve" smooth="yes"/>
      <point x="357" y="-119"/>
      <point x="391" y="-157"/>
      <point x="410" y="-170" type="curve" smooth="yes"/>
      <point x="424" y="-181"/>
      <point x="437" y="-185"/>
      <point x="448" y="-185" type="curve" smooth="yes"/>
      <point x="508" y="-185"/>
      <point x="578" y="-155"/>
      <point x="625" y="-85" type="curve"/>
      <point x="597" y="-106"/>
      <point x="571" y="-117"/>
      <point x="547" y="-117" type="curve" smooth="yes"/>
      <point x="536" y="-117"/>
      <point x="526" y="-114"/>
      <point x="516" y="-110" type="curve" smooth="yes"/>
      <point x="491" y="-99"/>
      <point x="471" y="-66"/>
      <point x="461" y="-34" type="curve" smooth="yes"/>
      <point x="451" y="-3"/>
      <point x="434" y="50"/>
      <point x="421" y="78" type="curve" smooth="yes"/>
      <point x="414" y="92" type="line"/>
      <point x="435" y="110"/>
      <point x="448" y="126"/>
      <point x="462" y="152" type="curve" smooth="yes"/>
      <point x="464" y="156"/>
      <point x="469" y="166"/>
      <point x="476" y="181" type="curve" smooth="yes"/>
      <point x="483" y="196"/>
      <point x="488" y="207"/>
      <point x="491" y="214" type="curve" smooth="yes"/>
      <point x="497" y="225"/>
      <point x="503" y="229"/>
      <point x="512" y="229" type="curve" smooth="yes"/>
      <point x="527" y="229"/>
      <point x="545" y="215"/>
      <point x="562" y="198" type="curve" smooth="yes"/>
      <point x="577" y="182"/>
      <point x="607" y="148"/>
      <point x="624" y="130" type="curve" smooth="yes"/>
      <point x="636" y="117"/>
      <point x="646" y="106"/>
      <point x="655" y="99" type="curve" smooth="yes"/>
      <point x="672" y="84"/>
      <point x="690" y="78"/>
      <point x="705" y="78" type="curve" smooth="yes"/>
      <point x="713" y="78"/>
      <point x="738" y="84"/>
      <point x="747" y="84" type="curve" smooth="yes"/>
      <point x="769" y="84"/>
      <point x="812" y="126"/>
      <point x="842" y="158" type="curve" smooth="yes"/>
      <point x="859" y="174"/>
      <point x="890" y="210"/>
      <point x="906" y="228" type="curve" smooth="yes"/>
      <point x="925" y="250"/>
      <point x="952" y="281"/>
      <point x="969" y="301" type="curve"/>
      <point x="895" y="257"/>
      <point x="824" y="225"/>
      <point x="784" y="225" type="curve" smooth="yes"/>
      <point x="774" y="225"/>
      <point x="766" y="227"/>
      <point x="760" y="231" type="curve"/>
      <point x="760" y="232"/>
      <point x="694" y="283"/>
      <point x="683" y="300" type="curve" smooth="yes"/>
      <point x="656" y="339"/>
      <point x="620" y="408"/>
      <point x="590" y="447" type="curve" smooth="yes"/>
      <point x="580" y="459"/>
      <point x="571" y="465"/>
      <point x="564" y="465" type="curve" smooth="yes"/>
      <point x="563" y="465"/>
      <point x="562" y="465"/>
      <point x="560" y="464" type="curve" smooth="yes"/>
      <point x="547" y="459" type="line"/>
      <point x="556" y="484" type="line" smooth="yes"/>
      <point x="584" y="563"/>
      <point x="616" y="600"/>
      <point x="648" y="609" type="curve" smooth="yes"/>
      <point x="667" y="614"/>
      <point x="675" y="616"/>
      <point x="699" y="618" type="curve" smooth="yes"/>
      <point x="710" y="619"/>
      <point x="719" y="619"/>
      <point x="725" y="620" type="curve" smooth="yes"/>
      <point x="769" y="627"/>
      <point x="802" y="654"/>
      <point x="847" y="709" type="curve"/>
      <point x="835" y="703"/>
      <point x="824" y="701"/>
      <point x="812" y="701" type="curve" smooth="yes"/>
      <point x="802" y="701"/>
      <point x="792" y="703"/>
      <point x="783" y="708" type="curve" smooth="yes"/>
      <point x="754" y="724"/>
      <point x="742" y="721"/>
      <point x="712" y="741" type="curve" smooth="yes"/>
      <point x="694" y="752"/>
      <point x="679" y="770"/>
      <point x="667" y="795" type="curve" smooth="yes"/>
      <point x="661" y="810" type="line"/>
      <point x="680" y="823"/>
      <point x="706" y="847"/>
      <point x="730" y="886" type="curve" smooth="yes"/>
      <point x="736" y="895"/>
      <point x="775" y="963"/>
      <point x="777" y="965" type="curve"/>
      <point x="809" y="1021"/>
      <point x="849" y="1050"/>
      <point x="884" y="1053" type="curve" smooth="yes"/>
      <point x="890" y="1053"/>
      <point x="895" y="1054"/>
      <point x="901" y="1054" type="curve" smooth="yes"/>
      <point x="932" y="1054"/>
      <point x="965" y="1048"/>
      <point x="994" y="1038" type="curve" smooth="yes"/>
      <point x="1016" y="1030"/>
      <point x="1039" y="1026"/>
      <point x="1062" y="1026" type="curve" smooth="yes"/>
      <point x="1076" y="1026"/>
      <point x="1089" y="1027"/>
      <point x="1102" y="1030" type="curve" smooth="yes"/>
      <point x="1135" y="1038"/>
      <point x="1171" y="1076"/>
      <point x="1200" y="1143" type="curve"/>
      <point x="1174" y="1107"/>
      <point x="1146" y="1093"/>
      <point x="1121" y="1093" type="curve" smooth="yes"/>
      <point x="1105" y="1093"/>
      <point x="1086" y="1100"/>
      <point x="1065" y="1118" type="curve" smooth="yes"/>
      <point x="1032" y="1145"/>
      <point x="1009" y="1172"/>
      <point x="972" y="1221" type="curve" smooth="yes"/>
      <point x="915" y="1298"/>
      <point x="858" y="1336"/>
      <point x="803" y="1336" type="curve" smooth="yes"/>
      <point x="772" y="1336"/>
      <point x="741" y="1325"/>
      <point x="711" y="1301" type="curve" smooth="yes"/>
      <point x="679" y="1275"/>
      <point x="636" y="1212"/>
      <point x="605" y="1170" type="curve" smooth="yes"/>
      <point x="578" y="1134"/>
      <point x="545" y="1104"/>
      <point x="513" y="1104" type="curve" smooth="yes"/>
      <point x="505" y="1104"/>
      <point x="497" y="1106"/>
      <point x="489" y="1110" type="curve" smooth="yes"/>
      <point x="445" y="1131"/>
      <point x="418" y="1195"/>
      <point x="418" y="1269" type="curve" smooth="yes"/>
      <point x="418" y="1333"/>
      <point x="437" y="1390"/>
      <point x="474" y="1423" type="curve" smooth="yes"/>
      <point x="493" y="1442"/>
      <point x="521" y="1464"/>
      <point x="540" y="1483" type="curve" smooth="yes"/>
      <point x="548" y="1490"/>
      <point x="557" y="1500"/>
      <point x="567" y="1512" type="curve" smooth="yes"/>
      <point x="588" y="1536"/>
      <point x="605" y="1566"/>
      <point x="622" y="1606" type="curve"/>
      <point x="591" y="1559"/>
      <point x="562" y="1529"/>
      <point x="531" y="1529" type="curve" smooth="yes"/>
      <point x="512" y="1529"/>
      <point x="493" y="1540"/>
      <point x="471" y="1565" type="curve" smooth="yes"/>
      <point x="448" y="1591"/>
      <point x="427" y="1603"/>
      <point x="407" y="1603" type="curve" smooth="yes"/>
      <point x="391" y="1603"/>
      <point x="377" y="1596"/>
      <point x="363" y="1582" type="curve" smooth="yes"/>
      <point x="347" y="1566"/>
      <point x="328" y="1540"/>
      <point x="308" y="1503" type="curve" smooth="yes"/>
      <point x="297" y="1483"/>
      <point x="277" y="1446"/>
      <point x="259" y="1417" type="curve" smooth="yes"/>
      <point x="250" y="1402"/>
      <point x="243" y="1391"/>
      <point x="237" y="1384" type="curve" smooth="yes"/>
      <point x="230" y="1377"/>
      <point x="222" y="1368"/>
      <point x="214" y="1358" type="curve" smooth="yes"/>
      <point x="201" y="1343"/>
      <point x="188" y="1335"/>
      <point x="176" y="1335" type="curve" smooth="yes"/>
      <point x="159" y="1335"/>
      <point x="144" y="1351"/>
      <point x="134" y="1386" type="curve" smooth="yes"/>
      <point x="130" y="1397"/>
      <point x="129" y="1407"/>
      <point x="129" y="1418" type="curve" smooth="yes"/>
      <point x="129" y="1436"/>
      <point x="134" y="1454"/>
      <point x="143" y="1471" type="curve" smooth="yes"/>
      <point x="150" y="1484"/>
      <point x="163" y="1502"/>
      <point x="182" y="1525" type="curve" smooth="yes"/>
      <point x="201" y="1548"/>
      <point x="213" y="1566"/>
      <point x="216" y="1577" type="curve" smooth="yes"/>
      <point x="224" y="1603"/>
      <point x="252" y="1689"/>
      <point x="263" y="1709" type="curve" smooth="yes"/>
      <point x="279" y="1741"/>
      <point x="294" y="1759"/>
      <point x="321" y="1756" type="curve"/>
      <point x="303" y="1779"/>
      <point x="285" y="1791"/>
      <point x="267" y="1791" type="curve" smooth="yes"/>
      <point x="241" y="1791"/>
      <point x="216" y="1770"/>
      <point x="190" y="1728" type="curve" smooth="yes"/>
      <point x="172" y="1699"/>
      <point x="160" y="1682"/>
      <point x="142" y="1662" type="curve" smooth="yes"/>
      <point x="132" y="1651"/>
      <point x="124" y="1644"/>
      <point x="116" y="1641" type="curve" smooth="yes"/>
      <point x="110" y="1638"/>
      <point x="104" y="1637"/>
      <point x="98" y="1637" type="curve" smooth="yes"/>
      <point x="78" y="1637"/>
      <point x="60" y="1654"/>
      <point x="43" y="1700" type="curve" smooth="yes"/>
      <point x="32" y="1729"/>
      <point x="29" y="1748"/>
      <point x="20" y="1764" type="curve" smooth="yes"/>
      <point x="14" y="1773"/>
      <point x="10" y="1773"/>
      <point x="1" y="1774" type="curve"/>
      <point x="1" y="1752"/>
      <point x="0" y="1726"/>
      <point x="0" y="1697" type="curve" smooth="yes"/>
      <point x="0" y="1640"/>
      <point x="1" y="1570"/>
      <point x="2" y="1489" type="curve" smooth="yes"/>
      <point x="3" y="1366"/>
      <point x="3" y="1286"/>
      <point x="4" y="1251" type="curve" smooth="yes"/>
      <point x="4" y="814"/>
      <point x="2" y="-489"/>
      <point x="1" y="-690" type="curve"/>
      <point x="4" y="-692"/>
      <point x="7" y="-692"/>
    </contour>
  </outline>
</glyph>
<glyph name="uniE0C1" format="2">
  <advance width="1200"/>
  <unicode hex="E0C1"/>
  <note>
uniE0C1
</note>
  <outline>
    <contour>
      <point x="16" y="-480" type="curve"/>
      <point x="16" y="-480" type="line"/>
      <point x="84" y="-480"/>
      <point x="135" y="-252"/>
      <point x="187" y="-252" type="curve" smooth="yes"/>
      <point x="196" y="-252"/>
      <point x="207" y="-265"/>
      <point x="227" y="-265" type="curve" smooth="yes"/>
      <point x="276" y="-265"/>
      <point x="339" y="-189"/>
      <point x="364" y="-185" type="curve"/>
      <point x="399" y="-64" type="line"/>
      <point x="360" y="-42"/>
      <point x="328" y="-36"/>
      <point x="301" y="5" type="curve" smooth="yes"/>
      <point x="288" y="25"/>
      <point x="265" y="61"/>
      <point x="240" y="61" type="curve" smooth="yes"/>
      <point x="220" y="61"/>
      <point x="203" y="44"/>
      <point x="191" y="28" type="curve"/>
      <point x="191" y="40" type="line" smooth="yes"/>
      <point x="191" y="83"/>
      <point x="200" y="186"/>
      <point x="255" y="186" type="curve" smooth="yes"/>
      <point x="310" y="186"/>
      <point x="372" y="49"/>
      <point x="438" y="49" type="curve" smooth="yes"/>
      <point x="516" y="49"/>
      <point x="573" y="94"/>
      <point x="617" y="162" type="curve" smooth="yes"/>
      <point x="636" y="192"/>
      <point x="637" y="240"/>
      <point x="639" y="274" type="curve"/>
      <point x="618" y="257"/>
      <point x="593" y="243"/>
      <point x="566" y="243" type="curve" smooth="yes"/>
      <point x="495" y="243"/>
      <point x="479" y="354"/>
      <point x="461" y="411" type="curve"/>
      <point x="471" y="434"/>
      <point x="481" y="456"/>
      <point x="491" y="479" type="curve"/>
      <point x="493" y="479"/>
      <point x="494" y="480"/>
      <point x="496" y="480" type="curve" smooth="yes"/>
      <point x="544" y="480"/>
      <point x="613" y="322"/>
      <point x="685" y="322" type="curve" smooth="yes"/>
      <point x="796" y="322"/>
      <point x="871" y="486"/>
      <point x="944" y="559" type="curve"/>
      <point x="953" y="598"/>
      <point x="961" y="637"/>
      <point x="971" y="676" type="curve"/>
      <point x="930" y="650"/>
      <point x="843" y="598"/>
      <point x="795" y="598" type="curve" smooth="yes"/>
      <point x="788" y="598"/>
      <point x="780" y="598"/>
      <point x="774" y="604" type="curve" smooth="yes"/>
      <point x="750" y="624"/>
      <point x="717" y="646"/>
      <point x="700" y="674" type="curve" smooth="yes"/>
      <point x="675" y="712"/>
      <point x="623" y="824"/>
      <point x="592" y="845" type="curve"/>
      <point x="619" y="885"/>
      <point x="665" y="878"/>
      <point x="704" y="886" type="curve" smooth="yes"/>
      <point x="755" y="896"/>
      <point x="796" y="942"/>
      <point x="828" y="985" type="curve" smooth="yes"/>
      <point x="839" y="999"/>
      <point x="855" y="1080"/>
      <point x="854" y="1101" type="curve"/>
      <point x="843" y="1098"/>
      <point x="834" y="1093"/>
      <point x="822" y="1093" type="curve" smooth="yes"/>
      <point x="795" y="1093"/>
      <point x="724" y="1132"/>
      <point x="706" y="1153" type="curve"/>
      <point x="741" y="1208"/>
      <point x="779" y="1322"/>
      <point x="849" y="1322" type="curve" smooth="yes"/>
      <point x="902" y="1322"/>
      <point x="950" y="1295"/>
      <point x="1001" y="1295" type="curve" smooth="yes"/>
      <point x="1097" y="1295"/>
      <point x="1146" y="1374"/>
      <point x="1182" y="1460" type="curve" smooth="yes"/>
      <point x="1190" y="1479"/>
      <point x="1200" y="1506"/>
      <point x="1200" y="1527" type="curve" smooth="yes"/>
      <point x="1200" y="1533"/>
      <point x="1200" y="1539"/>
      <point x="1196" y="1542" type="curve"/>
      <point x="1188" y="1545" type="line"/>
      <point x="1173" y="1523"/>
      <point x="1152" y="1502"/>
      <point x="1125" y="1502" type="curve" smooth="yes"/>
      <point x="1019" y="1502"/>
      <point x="955" y="1754"/>
      <point x="813" y="1754" type="curve" smooth="yes"/>
      <point x="673" y="1754"/>
      <point x="620" y="1513"/>
      <point x="538" y="1513" type="curve" smooth="yes"/>
      <point x="473" y="1513"/>
      <point x="446" y="1616"/>
      <point x="446" y="1672" type="curve" smooth="yes"/>
      <point x="446" y="1677"/>
      <point x="447" y="1698"/>
      <point x="449" y="1702" type="curve" smooth="yes"/>
      <point x="455" y="1718"/>
      <point x="540" y="1795"/>
      <point x="559" y="1818" type="curve" smooth="yes"/>
      <point x="588" y="1853"/>
      <point x="609" y="1905"/>
      <point x="626" y="1948" type="curve" smooth="yes"/>
      <point x="633" y="1966"/>
      <point x="643" y="1992"/>
      <point x="643" y="2012" type="curve" smooth="yes"/>
      <point x="643" y="2017"/>
      <point x="643" y="2023"/>
      <point x="638" y="2026" type="curve"/>
      <point x="629" y="2024" type="line"/>
      <point x="616" y="1998"/>
      <point x="582" y="1953"/>
      <point x="551" y="1953" type="curve" smooth="yes"/>
      <point x="504" y="1953"/>
      <point x="486" y="2031"/>
      <point x="433" y="2031" type="curve" smooth="yes"/>
      <point x="341" y="2031"/>
      <point x="279" y="1752"/>
      <point x="208" y="1752" type="curve" smooth="yes"/>
      <point x="186" y="1752"/>
      <point x="173" y="1792"/>
      <point x="170" y="1811" type="curve"/>
      <point x="208" y="1855"/>
      <point x="224" y="1881"/>
      <point x="242" y="1938" type="curve" smooth="yes"/>
      <point x="253" y="1973"/>
      <point x="260" y="2015"/>
      <point x="274" y="2047" type="curve" smooth="yes"/>
      <point x="283" y="2068"/>
      <point x="295" y="2068"/>
      <point x="314" y="2068" type="curve"/>
      <point x="352" y="2189" type="line"/>
      <point x="338" y="2208"/>
      <point x="320" y="2226"/>
      <point x="296" y="2226" type="curve" smooth="yes"/>
      <point x="224" y="2226"/>
      <point x="192" y="2066"/>
      <point x="134" y="2066" type="curve" smooth="yes"/>
      <point x="77" y="2066"/>
      <point x="83" y="2210"/>
      <point x="41" y="2210" type="curve" smooth="yes"/>
      <point x="23" y="2210"/>
      <point x="0" y="2115"/>
      <point x="0" y="2098" type="curve" smooth="yes"/>
      <point x="0" y="2093"/>
      <point x="2" y="2089"/>
      <point x="5" y="2087" type="curve"/>
      <point x="40" y="2088"/>
      <point x="39" y="1943"/>
      <point x="99" y="1943" type="curve" smooth="yes"/>
      <point x="162" y="1943"/>
      <point x="200" y="2104"/>
      <point x="262" y="2104" type="curve" smooth="yes"/>
      <point x="264" y="2104"/>
      <point x="267" y="2103"/>
      <point x="269" y="2103" type="curve"/>
      <point x="251" y="2061"/>
      <point x="243" y="2007"/>
      <point x="224" y="1967" type="curve" smooth="yes"/>
      <point x="208" y="1935"/>
      <point x="180" y="1908"/>
      <point x="163" y="1875" type="curve" smooth="yes"/>
      <point x="142" y="1833"/>
      <point x="125" y="1778"/>
      <point x="125" y="1729" type="curve" smooth="yes"/>
      <point x="125" y="1700"/>
      <point x="136" y="1633"/>
      <point x="171" y="1633" type="curve" smooth="yes"/>
      <point x="256" y="1633"/>
      <point x="322" y="1909"/>
      <point x="397" y="1909" type="curve" smooth="yes"/>
      <point x="437" y="1909"/>
      <point x="457" y="1858"/>
      <point x="489" y="1839" type="curve"/>
      <point x="433" y="1778"/>
      <point x="402" y="1656"/>
      <point x="402" y="1572" type="curve" smooth="yes"/>
      <point x="402" y="1513"/>
      <point x="426" y="1390"/>
      <point x="498" y="1390" type="curve" smooth="yes"/>
      <point x="603" y="1390"/>
      <point x="643" y="1632"/>
      <point x="778" y="1632" type="curve" smooth="yes"/>
      <point x="876" y="1632"/>
      <point x="931" y="1513"/>
      <point x="989" y="1445" type="curve"/>
      <point x="973" y="1454"/>
      <point x="923" y="1462"/>
      <point x="904" y="1462" type="curve" smooth="yes"/>
      <point x="791" y="1462"/>
      <point x="759" y="1264"/>
      <point x="673" y="1206" type="curve"/>
      <point x="661" y="1179"/>
      <point x="636" y="1127"/>
      <point x="636" y="1098" type="curve" smooth="yes"/>
      <point x="636" y="1066"/>
      <point x="675" y="1019"/>
      <point x="700" y="1005" type="curve"/>
      <point x="608" y="996"/>
      <point x="578" y="904"/>
      <point x="549" y="819" type="curve" smooth="yes"/>
      <point x="541" y="795"/>
      <point x="524" y="754"/>
      <point x="524" y="728" type="curve" smooth="yes"/>
      <point x="524" y="725"/>
      <point x="524" y="718"/>
      <point x="529" y="718" type="curve" smooth="yes"/>
      <point x="535" y="718"/>
      <point x="541" y="725"/>
      <point x="547" y="725" type="curve" smooth="yes"/>
      <point x="566" y="725"/>
      <point x="643" y="581"/>
      <point x="660" y="554" type="curve" smooth="yes"/>
      <point x="679" y="526"/>
      <point x="698" y="509"/>
      <point x="725" y="491" type="curve" smooth="yes"/>
      <point x="737" y="482"/>
      <point x="744" y="475"/>
      <point x="760" y="475" type="curve" smooth="yes"/>
      <point x="778" y="475"/>
      <point x="795" y="481"/>
      <point x="812" y="487" type="curve"/>
      <point x="781" y="456"/>
      <point x="758" y="446"/>
      <point x="715" y="446" type="curve" smooth="yes"/>
      <point x="650" y="446"/>
      <point x="595" y="605"/>
      <point x="538" y="605" type="curve" smooth="yes"/>
      <point x="499" y="605"/>
      <point x="482" y="515"/>
      <point x="462" y="486" type="curve" smooth="yes"/>
      <point x="455" y="475"/>
      <point x="441" y="468"/>
      <point x="435" y="458" type="curve" smooth="yes"/>
      <point x="421" y="435"/>
      <point x="398" y="379"/>
      <point x="398" y="352" type="curve" smooth="yes"/>
      <point x="398" y="347"/>
      <point x="455" y="184"/>
      <point x="460" y="172" type="curve"/>
      <point x="404" y="189"/>
      <point x="360" y="311"/>
      <point x="295" y="311" type="curve" smooth="yes"/>
      <point x="252" y="311"/>
      <point x="222" y="250"/>
      <point x="206" y="213" type="curve" smooth="yes"/>
      <point x="169" y="129"/>
      <point x="147" y="33"/>
      <point x="147" y="-61" type="curve" smooth="yes"/>
      <point x="147" y="-71"/>
      <point x="145" y="-100"/>
      <point x="152" y="-104" type="curve"/>
      <point x="162" y="-100"/>
      <point x="176" y="-63"/>
      <point x="202" y="-63" type="curve" smooth="yes"/>
      <point x="236" y="-63"/>
      <point x="257" y="-120"/>
      <point x="281" y="-139" type="curve"/>
      <point x="275" y="-141"/>
      <point x="268" y="-142"/>
      <point x="262" y="-142" type="curve" smooth="yes"/>
      <point x="243" y="-142"/>
      <point x="232" y="-129"/>
      <point x="218" y="-129" type="curve" smooth="yes"/>
      <point x="143" y="-129"/>
      <point x="107" y="-355"/>
      <point x="41" y="-355" type="curve" smooth="yes"/>
      <point x="24" y="-355"/>
      <point x="0" y="-447"/>
      <point x="0" y="-465" type="curve" smooth="yes"/>
      <point x="0" y="-469"/>
      <point x="2" y="-473"/>
      <point x="4" y="-477" type="curve"/>
      <point x="8" y="-479"/>
      <point x="12" y="-480"/>
    </contour>
  </outline>
</glyph>
<glyph name="uniE0C2" format="2">
  <advance width="1200"/>
  <unicode hex="E0C2"/>
  <note>
uniE0C2
</note>
  <outline>
    <contour>
      <point x="1199" y="1489" type="curve"/>
      <point x="1199" y="1489" type="line"/>
      <point x="1200" y="1574"/>
      <point x="1200" y="1645"/>
      <point x="1200" y="1704" type="curve" smooth="yes"/>
      <point x="1200" y="1730"/>
      <point x="1200" y="1753"/>
      <point x="1200" y="1774" type="curve"/>
      <point x="1189" y="1772"/>
      <point x="1182" y="1770"/>
      <point x="1178" y="1759" type="curve" smooth="yes"/>
      <point x="1174" y="1749"/>
      <point x="1164" y="1720"/>
      <point x="1158" y="1700" type="curve"/>
      <point x="1140" y="1654"/>
      <point x="1122" y="1637"/>
      <point x="1102" y="1637" type="curve" smooth="yes"/>
      <point x="1096" y="1637"/>
      <point x="1091" y="1638"/>
      <point x="1085" y="1641" type="curve" smooth="yes"/>
      <point x="1068" y="1648"/>
      <point x="1048" y="1672"/>
      <point x="1034" y="1692" type="curve" smooth="yes"/>
      <point x="1027" y="1701"/>
      <point x="1019" y="1713"/>
      <point x="1010" y="1728" type="curve" smooth="yes"/>
      <point x="984" y="1770"/>
      <point x="959" y="1791"/>
      <point x="934" y="1791" type="curve" smooth="yes"/>
      <point x="915" y="1791"/>
      <point x="897" y="1779"/>
      <point x="879" y="1756" type="curve"/>
      <point x="899" y="1759"/>
      <point x="915" y="1746"/>
      <point x="929" y="1727" type="curve" smooth="yes"/>
      <point x="942" y="1708"/>
      <point x="959" y="1654"/>
      <point x="970" y="1621" type="curve"/>
      <point x="970" y="1623"/>
      <point x="974" y="1608"/>
      <point x="984" y="1577" type="curve" smooth="yes"/>
      <point x="988" y="1566"/>
      <point x="999" y="1548"/>
      <point x="1018" y="1525" type="curve" smooth="yes"/>
      <point x="1038" y="1502"/>
      <point x="1051" y="1484"/>
      <point x="1057" y="1471" type="curve" smooth="yes"/>
      <point x="1066" y="1454"/>
      <point x="1071" y="1436"/>
      <point x="1071" y="1417" type="curve" smooth="yes"/>
      <point x="1071" y="1407"/>
      <point x="1070" y="1397"/>
      <point x="1067" y="1386" type="curve" smooth="yes"/>
      <point x="1055" y="1348"/>
      <point x="1042" y="1336"/>
      <point x="1026" y="1336" type="curve" smooth="yes"/>
      <point x="1021" y="1336"/>
      <point x="1016" y="1338"/>
      <point x="1010" y="1340" type="curve" smooth="yes"/>
      <point x="1003" y="1342"/>
      <point x="995" y="1348"/>
      <point x="986" y="1358" type="curve" smooth="yes"/>
      <point x="964" y="1384" type="line" smooth="yes"/>
      <point x="946" y="1405"/>
      <point x="903" y="1484"/>
      <point x="892" y="1503" type="curve" smooth="yes"/>
      <point x="854" y="1572"/>
      <point x="826" y="1603"/>
      <point x="793" y="1603" type="curve" smooth="yes"/>
      <point x="773" y="1603"/>
      <point x="752" y="1591"/>
      <point x="730" y="1565" type="curve" smooth="yes"/>
      <point x="708" y="1540"/>
      <point x="688" y="1529"/>
      <point x="669" y="1529" type="curve" smooth="yes"/>
      <point x="638" y="1529"/>
      <point x="610" y="1559"/>
      <point x="578" y="1606" type="curve"/>
      <point x="595" y="1566"/>
      <point x="612" y="1536"/>
      <point x="633" y="1512" type="curve" smooth="yes"/>
      <point x="643" y="1500"/>
      <point x="652" y="1490"/>
      <point x="660" y="1483" type="curve" smooth="yes"/>
      <point x="668" y="1476"/>
      <point x="679" y="1466"/>
      <point x="693" y="1454" type="curve" smooth="yes"/>
      <point x="707" y="1441"/>
      <point x="719" y="1431"/>
      <point x="726" y="1423" type="curve"/>
      <point x="763" y="1390"/>
      <point x="783" y="1333"/>
      <point x="783" y="1270" type="curve" smooth="yes"/>
      <point x="783" y="1196"/>
      <point x="755" y="1131"/>
      <point x="711" y="1110" type="curve" smooth="yes"/>
      <point x="703" y="1106"/>
      <point x="695" y="1104"/>
      <point x="687" y="1104" type="curve" smooth="yes"/>
      <point x="656" y="1104"/>
      <point x="622" y="1134"/>
      <point x="596" y="1170" type="curve" smooth="yes"/>
      <point x="564" y="1212"/>
      <point x="522" y="1275"/>
      <point x="489" y="1301" type="curve" smooth="yes"/>
      <point x="459" y="1325"/>
      <point x="429" y="1336"/>
      <point x="398" y="1336" type="curve" smooth="yes"/>
      <point x="342" y="1336"/>
      <point x="286" y="1298"/>
      <point x="228" y="1221" type="curve" smooth="yes"/>
      <point x="191" y="1172"/>
      <point x="169" y="1145"/>
      <point x="136" y="1118" type="curve" smooth="yes"/>
      <point x="115" y="1100"/>
      <point x="95" y="1093"/>
      <point x="79" y="1093" type="curve" smooth="yes"/>
      <point x="54" y="1093"/>
      <point x="26" y="1107"/>
      <point x="0" y="1143" type="curve"/>
      <point x="34" y="1067"/>
      <point x="75" y="1030"/>
      <point x="115" y="1026" type="curve"/>
      <point x="119" y="1025"/>
      <point x="125" y="1025"/>
      <point x="130" y="1025" type="curve" smooth="yes"/>
      <point x="165" y="1025"/>
      <point x="201" y="1036"/>
      <point x="238" y="1046" type="curve" smooth="yes"/>
      <point x="259" y="1051"/>
      <point x="278" y="1055"/>
      <point x="297" y="1055" type="curve" smooth="yes"/>
      <point x="319" y="1055"/>
      <point x="340" y="1050"/>
      <point x="364" y="1035" type="curve" smooth="yes"/>
      <point x="385" y="1020"/>
      <point x="405" y="997"/>
      <point x="423" y="965" type="curve" smooth="yes"/>
      <point x="434" y="948"/>
      <point x="468" y="888"/>
      <point x="479" y="873" type="curve" smooth="yes"/>
      <point x="499" y="846"/>
      <point x="515" y="826"/>
      <point x="539" y="810" type="curve"/>
      <point x="533" y="795" type="line" smooth="yes"/>
      <point x="516" y="757"/>
      <point x="488" y="738"/>
      <point x="464" y="727" type="curve" smooth="yes"/>
      <point x="456" y="724"/>
      <point x="448" y="720"/>
      <point x="439" y="717" type="curve" smooth="yes"/>
      <point x="429" y="714"/>
      <point x="422" y="711"/>
      <point x="418" y="708" type="curve"/>
      <point x="408" y="703"/>
      <point x="399" y="701"/>
      <point x="388" y="701" type="curve" smooth="yes"/>
      <point x="377" y="701"/>
      <point x="365" y="703"/>
      <point x="353" y="709" type="curve"/>
      <point x="399" y="654"/>
      <point x="431" y="627"/>
      <point x="475" y="620" type="curve" smooth="yes"/>
      <point x="491" y="618"/>
      <point x="514" y="617"/>
      <point x="529" y="615" type="curve" smooth="yes"/>
      <point x="541" y="613"/>
      <point x="564" y="608"/>
      <point x="577" y="597" type="curve" smooth="yes"/>
      <point x="590" y="585"/>
      <point x="607" y="568"/>
      <point x="622" y="538" type="curve" smooth="yes"/>
      <point x="630" y="523"/>
      <point x="637" y="505"/>
      <point x="644" y="484" type="curve" smooth="yes"/>
      <point x="654" y="459" type="line"/>
      <point x="640" y="464" type="line" smooth="yes"/>
      <point x="624" y="471"/>
      <point x="595" y="428"/>
      <point x="562" y="372" type="curve" smooth="yes"/>
      <point x="541" y="337"/>
      <point x="526" y="313"/>
      <point x="518" y="300" type="curve" smooth="yes"/>
      <point x="510" y="289"/>
      <point x="442" y="235"/>
      <point x="440" y="231" type="curve"/>
      <point x="434" y="227"/>
      <point x="426" y="225"/>
      <point x="416" y="225" type="curve" smooth="yes"/>
      <point x="376" y="225"/>
      <point x="305" y="257"/>
      <point x="232" y="301" type="curve"/>
      <point x="295" y="228" type="line" smooth="yes"/>
      <point x="310" y="210"/>
      <point x="342" y="174"/>
      <point x="358" y="158" type="curve" smooth="yes"/>
      <point x="388" y="126"/>
      <point x="431" y="84"/>
      <point x="454" y="84" type="curve" smooth="yes"/>
      <point x="461" y="84"/>
      <point x="478" y="78"/>
      <point x="496" y="78" type="curve" smooth="yes"/>
      <point x="501" y="78"/>
      <point x="506" y="79"/>
      <point x="512" y="80" type="curve" smooth="yes"/>
      <point x="523" y="83"/>
      <point x="534" y="89"/>
      <point x="546" y="99" type="curve" smooth="yes"/>
      <point x="563" y="114"/>
      <point x="589" y="144"/>
      <point x="609" y="166" type="curve" smooth="yes"/>
      <point x="618" y="177"/>
      <point x="628" y="187"/>
      <point x="639" y="198" type="curve" smooth="yes"/>
      <point x="656" y="214"/>
      <point x="674" y="229"/>
      <point x="689" y="229" type="curve" smooth="yes"/>
      <point x="697" y="229"/>
      <point x="704" y="225"/>
      <point x="709" y="214" type="curve" smooth="yes"/>
      <point x="725" y="180"/>
      <point x="735" y="156"/>
      <point x="750" y="132" type="curve" smooth="yes"/>
      <point x="761" y="115"/>
      <point x="770" y="105"/>
      <point x="786" y="92" type="curve"/>
      <point x="780" y="78" type="line" smooth="yes"/>
      <point x="766" y="50"/>
      <point x="749" y="-3"/>
      <point x="739" y="-34" type="curve" smooth="yes"/>
      <point x="729" y="-66"/>
      <point x="709" y="-99"/>
      <point x="684" y="-110" type="curve" smooth="yes"/>
      <point x="674" y="-114"/>
      <point x="664" y="-117"/>
      <point x="653" y="-117" type="curve" smooth="yes"/>
      <point x="630" y="-117"/>
      <point x="604" y="-106"/>
      <point x="576" y="-85" type="curve"/>
      <point x="622" y="-155"/>
      <point x="692" y="-185"/>
      <point x="752" y="-185" type="curve" smooth="yes"/>
      <point x="773" y="-185"/>
      <point x="803" y="-165"/>
      <point x="826" y="-138" type="curve" smooth="yes"/>
      <point x="837" y="-125"/>
      <point x="850" y="-112"/>
      <point x="863" y="-99" type="curve" smooth="yes"/>
      <point x="891" y="-71"/>
      <point x="912" y="-51"/>
      <point x="941" y="-51" type="curve" smooth="yes"/>
      <point x="953" y="-51"/>
      <point x="965" y="-57"/>
      <point x="975" y="-68" type="curve" smooth="yes"/>
      <point x="1012" y="-104"/>
      <point x="1050" y="-202"/>
      <point x="1048" y="-313" type="curve" smooth="yes"/>
      <point x="1048" y="-332" type="line"/>
      <point x="1027" y="-304"/>
      <point x="1010" y="-291"/>
      <point x="994" y="-291" type="curve" smooth="yes"/>
      <point x="975" y="-291"/>
      <point x="956" y="-310"/>
      <point x="932" y="-343" type="curve" smooth="yes"/>
      <point x="913" y="-370"/>
      <point x="892" y="-383"/>
      <point x="862" y="-395" type="curve" smooth="yes"/>
      <point x="847" y="-401"/>
      <point x="836" y="-406"/>
      <point x="829" y="-410" type="curve"/>
      <point x="846" y="-418"/>
      <point x="870" y="-434"/>
      <point x="887" y="-447" type="curve" smooth="yes"/>
      <point x="896" y="-454"/>
      <point x="905" y="-460"/>
      <point x="916" y="-467" type="curve" smooth="yes"/>
      <point x="936" y="-479"/>
      <point x="951" y="-487"/>
      <point x="970" y="-487" type="curve" smooth="yes"/>
      <point x="981" y="-487"/>
      <point x="992" y="-483"/>
      <point x="1001" y="-477" type="curve" smooth="yes"/>
      <point x="1005" y="-475"/>
      <point x="1009" y="-474"/>
      <point x="1013" y="-474" type="curve" smooth="yes"/>
      <point x="1034" y="-474"/>
      <point x="1059" y="-504"/>
      <point x="1081" y="-544" type="curve" smooth="yes"/>
      <point x="1095" y="-568"/>
      <point x="1108" y="-592"/>
      <point x="1121" y="-617" type="curve" smooth="yes"/>
      <point x="1144" y="-659"/>
      <point x="1169" y="-692"/>
      <point x="1190" y="-692" type="curve" smooth="yes"/>
      <point x="1193" y="-692"/>
      <point x="1196" y="-692"/>
      <point x="1199" y="-690" type="curve"/>
      <point x="1198" y="-489"/>
      <point x="1197" y="814"/>
      <point x="1197" y="1251" type="curve" smooth="yes"/>
      <point x="1197" y="1286"/>
      <point x="1198" y="1366"/>
    </contour>
  </outline>
</glyph>
<glyph name="uniE0C3" format="2">
  <advance width="1200"/>
  <unicode hex="E0C3"/>
  <note>
uniE0C3
</note>
  <outline>
    <contour>
      <point x="1185" y="-480" type="curve"/>
      <point x="1185" y="-480" type="line"/>
      <point x="1189" y="-480"/>
      <point x="1193" y="-479"/>
      <point x="1197" y="-477" type="curve"/>
      <point x="1199" y="-473"/>
      <point x="1200" y="-469"/>
      <point x="1200" y="-465" type="curve" smooth="yes"/>
      <point x="1200" y="-438"/>
      <point x="1181" y="-356"/>
      <point x="1154" y="-356" type="curve" smooth="yes"/>
      <point x="1106" y="-356"/>
      <point x="1052" y="-129"/>
      <point x="983" y="-129" type="curve" smooth="yes"/>
      <point x="969" y="-129"/>
      <point x="957" y="-142"/>
      <point x="939" y="-142" type="curve" smooth="yes"/>
      <point x="933" y="-142"/>
      <point x="926" y="-141"/>
      <point x="920" y="-139" type="curve"/>
      <point x="943" y="-121"/>
      <point x="966" y="-63"/>
      <point x="998" y="-63" type="curve" smooth="yes"/>
      <point x="1024" y="-63"/>
      <point x="1039" y="-100"/>
      <point x="1049" y="-104" type="curve"/>
      <point x="1050" y="-104" type="line"/>
      <point x="1056" y="-99"/>
      <point x="1054" y="-81"/>
      <point x="1054" y="-74" type="curve" smooth="yes"/>
      <point x="1054" y="-63" type="line" smooth="yes"/>
      <point x="1054" y="30"/>
      <point x="1031" y="129"/>
      <point x="995" y="213" type="curve" smooth="yes"/>
      <point x="979" y="251"/>
      <point x="948" y="311"/>
      <point x="905" y="311" type="curve" smooth="yes"/>
      <point x="845" y="311"/>
      <point x="796" y="192"/>
      <point x="741" y="172" type="curve"/>
      <point x="746" y="183"/>
      <point x="803" y="349"/>
      <point x="803" y="352" type="curve" smooth="yes"/>
      <point x="803" y="382"/>
      <point x="780" y="431"/>
      <point x="766" y="458" type="curve"/>
      <point x="752" y="470"/>
      <point x="738" y="483"/>
      <point x="731" y="500" type="curve" smooth="yes"/>
      <point x="719" y="530"/>
      <point x="696" y="605"/>
      <point x="662" y="605" type="curve" smooth="yes"/>
      <point x="607" y="605"/>
      <point x="552" y="446"/>
      <point x="485" y="446" type="curve" smooth="yes"/>
      <point x="443" y="446"/>
      <point x="420" y="457"/>
      <point x="389" y="487" type="curve"/>
      <point x="405" y="482"/>
      <point x="423" y="475"/>
      <point x="440" y="475" type="curve" smooth="yes"/>
      <point x="531" y="475"/>
      <point x="620" y="725"/>
      <point x="653" y="725" type="curve" smooth="yes"/>
      <point x="657" y="725"/>
      <point x="666" y="720"/>
      <point x="672" y="718" type="curve"/>
      <point x="675" y="721"/>
      <point x="677" y="725"/>
      <point x="677" y="728" type="curve" smooth="yes"/>
      <point x="677" y="781"/>
      <point x="614" y="928"/>
      <point x="578" y="970" type="curve" smooth="yes"/>
      <point x="558" y="994"/>
      <point x="530" y="1001"/>
      <point x="501" y="1005" type="curve"/>
      <point x="526" y="1019"/>
      <point x="565" y="1067"/>
      <point x="565" y="1099" type="curve" smooth="yes"/>
      <point x="565" y="1127"/>
      <point x="540" y="1181"/>
      <point x="527" y="1206" type="curve"/>
      <point x="442" y="1267"/>
      <point x="411" y="1462"/>
      <point x="298" y="1462" type="curve" smooth="yes"/>
      <point x="268" y="1462"/>
      <point x="240" y="1455"/>
      <point x="212" y="1445" type="curve"/>
      <point x="270" y="1513"/>
      <point x="325" y="1632"/>
      <point x="423" y="1632" type="curve" smooth="yes"/>
      <point x="559" y="1632"/>
      <point x="598" y="1390"/>
      <point x="703" y="1390" type="curve" smooth="yes"/>
      <point x="775" y="1390"/>
      <point x="799" y="1513"/>
      <point x="799" y="1572" type="curve" smooth="yes"/>
      <point x="799" y="1653"/>
      <point x="767" y="1782"/>
      <point x="711" y="1839" type="curve"/>
      <point x="742" y="1858"/>
      <point x="765" y="1909"/>
      <point x="803" y="1909" type="curve" smooth="yes"/>
      <point x="878" y="1909"/>
      <point x="947" y="1635"/>
      <point x="1023" y="1635" type="curve" smooth="yes"/>
      <point x="1032" y="1635"/>
      <point x="1040" y="1641"/>
      <point x="1047" y="1648" type="curve"/>
      <point x="1047" y="1648"/>
      <point x="1047" y="1646"/>
      <point x="1048" y="1646" type="curve" smooth="yes"/>
      <point x="1062" y="1646"/>
      <point x="1076" y="1713"/>
      <point x="1076" y="1729" type="curve" smooth="yes"/>
      <point x="1076" y="1778"/>
      <point x="1059" y="1833"/>
      <point x="1038" y="1875" type="curve" smooth="yes"/>
      <point x="1021" y="1909"/>
      <point x="993" y="1935"/>
      <point x="976" y="1967" type="curve" smooth="yes"/>
      <point x="960" y="1999"/>
      <point x="948" y="2064"/>
      <point x="932" y="2103" type="curve"/>
      <point x="939" y="2104" type="line"/>
      <point x="1002" y="2104"/>
      <point x="1038" y="1943"/>
      <point x="1101" y="1943" type="curve" smooth="yes"/>
      <point x="1153" y="1943"/>
      <point x="1160" y="2045"/>
      <point x="1180" y="2079" type="curve" smooth="yes"/>
      <point x="1185" y="2087"/>
      <point x="1188" y="2087"/>
      <point x="1196" y="2087" type="curve"/>
      <point x="1199" y="2089"/>
      <point x="1200" y="2094"/>
      <point x="1200" y="2098" type="curve" smooth="yes"/>
      <point x="1200" y="2116"/>
      <point x="1179" y="2210"/>
      <point x="1160" y="2210" type="curve" smooth="yes"/>
      <point x="1117" y="2210"/>
      <point x="1124" y="2066"/>
      <point x="1067" y="2066" type="curve" smooth="yes"/>
      <point x="1009" y="2066"/>
      <point x="976" y="2226"/>
      <point x="904" y="2226" type="curve" smooth="yes"/>
      <point x="881" y="2226"/>
      <point x="862" y="2207"/>
      <point x="849" y="2189" type="curve"/>
      <point x="887" y="2068" type="line"/>
      <point x="906" y="2068"/>
      <point x="917" y="2069"/>
      <point x="926" y="2047" type="curve" smooth="yes"/>
      <point x="965" y="1949"/>
      <point x="954" y="1897"/>
      <point x="1031" y="1811" type="curve"/>
      <point x="1026" y="1791"/>
      <point x="1018" y="1753"/>
      <point x="993" y="1753" type="curve" smooth="yes"/>
      <point x="922" y="1753"/>
      <point x="859" y="2031"/>
      <point x="768" y="2031" type="curve" smooth="yes"/>
      <point x="715" y="2031"/>
      <point x="696" y="1953"/>
      <point x="650" y="1953" type="curve" smooth="yes"/>
      <point x="619" y="1953"/>
      <point x="586" y="1997"/>
      <point x="572" y="2024" type="curve"/>
      <point x="563" y="2026" type="line"/>
      <point x="558" y="2023"/>
      <point x="558" y="2017"/>
      <point x="558" y="2012" type="curve" smooth="yes"/>
      <point x="558" y="1992"/>
      <point x="568" y="1966"/>
      <point x="575" y="1948" type="curve" smooth="yes"/>
      <point x="593" y="1902"/>
      <point x="612" y="1857"/>
      <point x="642" y="1818" type="curve" smooth="yes"/>
      <point x="662" y="1792"/>
      <point x="746" y="1720"/>
      <point x="752" y="1702" type="curve" smooth="yes"/>
      <point x="754" y="1696"/>
      <point x="754" y="1679"/>
      <point x="754" y="1672" type="curve" smooth="yes"/>
      <point x="754" y="1617"/>
      <point x="728" y="1513"/>
      <point x="664" y="1513" type="curve" smooth="yes"/>
      <point x="580" y="1513"/>
      <point x="528" y="1754"/>
      <point x="388" y="1754" type="curve" smooth="yes"/>
      <point x="246" y="1754"/>
      <point x="181" y="1503"/>
      <point x="78" y="1503" type="curve" smooth="yes"/>
      <point x="51" y="1503"/>
      <point x="28" y="1522"/>
      <point x="13" y="1545" type="curve"/>
      <point x="5" y="1542" type="line"/>
      <point x="1" y="1538"/>
      <point x="0" y="1533"/>
      <point x="0" y="1527" type="curve" smooth="yes"/>
      <point x="0" y="1507"/>
      <point x="12" y="1478"/>
      <point x="19" y="1460" type="curve" smooth="yes"/>
      <point x="53" y="1377"/>
      <point x="102" y="1296"/>
      <point x="194" y="1296" type="curve" smooth="yes"/>
      <point x="245" y="1296"/>
      <point x="293" y="1322"/>
      <point x="343" y="1322" type="curve" smooth="yes"/>
      <point x="430" y="1322"/>
      <point x="451" y="1215"/>
      <point x="495" y="1153" type="curve"/>
      <point x="476" y="1130"/>
      <point x="406" y="1093"/>
      <point x="379" y="1093" type="curve" smooth="yes"/>
      <point x="367" y="1093"/>
      <point x="357" y="1099"/>
      <point x="346" y="1101" type="curve"/>
      <point x="350" y="1072"/>
      <point x="358" y="1005"/>
      <point x="373" y="985" type="curve" smooth="yes"/>
      <point x="492" y="827"/>
      <point x="558" y="918"/>
      <point x="609" y="845" type="curve"/>
      <point x="576" y="826"/>
      <point x="527" y="712"/>
      <point x="501" y="674" type="curve" smooth="yes"/>
      <point x="483" y="647"/>
      <point x="451" y="624"/>
      <point x="427" y="604" type="curve" smooth="yes"/>
      <point x="421" y="598"/>
      <point x="413" y="598"/>
      <point x="406" y="598" type="curve" smooth="yes"/>
      <point x="358" y="598"/>
      <point x="271" y="650"/>
      <point x="230" y="676" type="curve"/>
      <point x="241" y="639"/>
      <point x="249" y="597"/>
      <point x="256" y="559" type="curve"/>
      <point x="261" y="555"/>
      <point x="320" y="481"/>
      <point x="329" y="469" type="curve" smooth="yes"/>
      <point x="379" y="405"/>
      <point x="434" y="322"/>
      <point x="518" y="322" type="curve" smooth="yes"/>
      <point x="584" y="322"/>
      <point x="659" y="480"/>
      <point x="704" y="480" type="curve" smooth="yes"/>
      <point x="706" y="480"/>
      <point x="707" y="479"/>
      <point x="709" y="479" type="curve"/>
      <point x="719" y="457"/>
      <point x="728" y="431"/>
      <point x="740" y="411" type="curve"/>
      <point x="722" y="354"/>
      <point x="704" y="243"/>
      <point x="635" y="243" type="curve" smooth="yes"/>
      <point x="608" y="243"/>
      <point x="583" y="257"/>
      <point x="562" y="274" type="curve"/>
      <point x="562" y="239"/>
      <point x="566" y="192"/>
      <point x="584" y="162" type="curve" smooth="yes"/>
      <point x="627" y="95"/>
      <point x="686" y="49"/>
      <point x="763" y="49" type="curve" smooth="yes"/>
      <point x="831" y="49"/>
      <point x="888" y="186"/>
      <point x="948" y="186" type="curve" smooth="yes"/>
      <point x="1001" y="186"/>
      <point x="1010" y="80"/>
      <point x="1010" y="39" type="curve" smooth="yes"/>
      <point x="1010" y="28" type="line"/>
      <point x="998" y="44"/>
      <point x="981" y="61"/>
      <point x="961" y="61" type="curve" smooth="yes"/>
      <point x="936" y="61"/>
      <point x="913" y="25"/>
      <point x="900" y="5" type="curve" smooth="yes"/>
      <point x="872" y="-36"/>
      <point x="841" y="-42"/>
      <point x="801" y="-64" type="curve"/>
      <point x="837" y="-185" type="line"/>
      <point x="864" y="-190"/>
      <point x="923" y="-265"/>
      <point x="975" y="-265" type="curve" smooth="yes"/>
      <point x="993" y="-265"/>
      <point x="1005" y="-252"/>
      <point x="1014" y="-252" type="curve" smooth="yes"/>
      <point x="1066" y="-252"/>
      <point x="1117" y="-480"/>
    </contour>
  </outline>
</glyph>
<glyph name="uniE0C4" format="2">
  <advance width="1200"/>
  <unicode hex="E0C4"/>
  <note>
uniE0C4
</note>
  <outline>
    <contour>
      <point x="485" y="1557" type="curve"/>
      <point x="485" y="1557" type="line"/>
      <point x="593" y="1557" type="line" smooth="yes"/>
      <point x="597" y="1557"/>
      <point x="602" y="1564"/>
      <point x="602" y="1572" type="curve" smooth="yes"/>
      <point x="602" y="1763" type="line" smooth="yes"/>
      <point x="602" y="1770"/>
      <point x="598" y="1778"/>
      <point x="593" y="1778" type="curve" smooth="yes"/>
      <point x="485" y="1778" type="line" smooth="yes"/>
      <point x="481" y="1778"/>
      <point x="476" y="1771"/>
      <point x="476" y="1763" type="curve" smooth="yes"/>
      <point x="476" y="1572" type="line" smooth="yes"/>
      <point x="476" y="1565"/>
      <point x="480" y="1557"/>
    </contour>
    <contour>
      <point x="1197" y="1768" type="curve"/>
      <point x="1197" y="1768" type="line"/>
      <point x="1089" y="1768" type="line" smooth="yes"/>
      <point x="1087" y="1768"/>
      <point x="1086" y="1766"/>
      <point x="1086" y="1763" type="curve" smooth="yes"/>
      <point x="1086" y="1572" type="line" smooth="yes"/>
      <point x="1086" y="1569"/>
      <point x="1087" y="1567"/>
      <point x="1089" y="1567" type="curve" smooth="yes"/>
      <point x="1197" y="1567" type="line" smooth="yes"/>
      <point x="1199" y="1567"/>
      <point x="1200" y="1569"/>
      <point x="1200" y="1572" type="curve" smooth="yes"/>
      <point x="1200" y="1763" type="line" smooth="yes"/>
      <point x="1200" y="1766"/>
      <point x="1199" y="1768"/>
    </contour>
    <contour>
      <point x="0" y="1763" type="line"/>
      <point x="0" y="1763" type="line"/>
      <point x="0" y="1572" type="line"/>
      <point x="108" y="1572" type="line"/>
      <point x="108" y="1763" type="line"/>
    </contour>
    <contour>
      <point x="165" y="1763" type="line"/>
      <point x="165" y="1763" type="line"/>
      <point x="165" y="1572" type="line"/>
      <point x="273" y="1572" type="line"/>
      <point x="273" y="1763" type="line"/>
    </contour>
    <contour>
      <point x="323" y="1763" type="line"/>
      <point x="323" y="1763" type="line"/>
      <point x="323" y="1572" type="line"/>
      <point x="431" y="1572" type="line"/>
      <point x="431" y="1763" type="line"/>
    </contour>
    <contour>
      <point x="745" y="1572" type="line"/>
      <point x="745" y="1572" type="line"/>
      <point x="745" y="1763" type="line"/>
      <point x="637" y="1763" type="line"/>
      <point x="637" y="1572" type="line"/>
    </contour>
    <contour>
      <point x="900" y="1572" type="line"/>
      <point x="900" y="1572" type="line"/>
      <point x="900" y="1763" type="line"/>
      <point x="792" y="1763" type="line"/>
      <point x="792" y="1572" type="line"/>
    </contour>
    <contour>
      <point x="1194" y="1757" type="line"/>
      <point x="1194" y="1757" type="line"/>
      <point x="1194" y="1577" type="line"/>
      <point x="1092" y="1577" type="line"/>
      <point x="1092" y="1757" type="line"/>
    </contour>
    <contour>
      <point x="494" y="1587" type="line"/>
      <point x="494" y="1587" type="line"/>
      <point x="494" y="1747" type="line"/>
      <point x="585" y="1747" type="line"/>
      <point x="585" y="1587" type="line"/>
    </contour>
    <contour>
      <point x="1197" y="1504" type="curve"/>
      <point x="1197" y="1504" type="line"/>
      <point x="1089" y="1504" type="line" smooth="yes"/>
      <point x="1087" y="1504"/>
      <point x="1086" y="1502"/>
      <point x="1086" y="1499" type="curve" smooth="yes"/>
      <point x="1086" y="1309" type="line" smooth="yes"/>
      <point x="1086" y="1305"/>
      <point x="1087" y="1303"/>
      <point x="1089" y="1303" type="curve" smooth="yes"/>
      <point x="1197" y="1303" type="line" smooth="yes"/>
      <point x="1199" y="1303"/>
      <point x="1200" y="1305"/>
      <point x="1200" y="1309" type="curve" smooth="yes"/>
      <point x="1200" y="1499" type="line" smooth="yes"/>
      <point x="1200" y="1502"/>
      <point x="1199" y="1504"/>
    </contour>
    <contour>
      <point x="0" y="1499" type="line"/>
      <point x="0" y="1499" type="line"/>
      <point x="0" y="1309" type="line"/>
      <point x="108" y="1309" type="line"/>
      <point x="108" y="1499" type="line"/>
    </contour>
    <contour>
      <point x="165" y="1499" type="line"/>
      <point x="165" y="1499" type="line"/>
      <point x="165" y="1309" type="line"/>
      <point x="273" y="1309" type="line"/>
      <point x="273" y="1499" type="line"/>
    </contour>
    <contour>
      <point x="323" y="1499" type="line"/>
      <point x="323" y="1499" type="line"/>
      <point x="323" y="1309" type="line"/>
      <point x="431" y="1309" type="line"/>
      <point x="431" y="1499" type="line"/>
    </contour>
    <contour>
      <point x="596" y="1309" type="line"/>
      <point x="596" y="1309" type="line"/>
      <point x="596" y="1499" type="line"/>
      <point x="487" y="1499" type="line"/>
      <point x="487" y="1309" type="line"/>
    </contour>
    <contour>
      <point x="900" y="1309" type="line"/>
      <point x="900" y="1309" type="line"/>
      <point x="900" y="1499" type="line"/>
      <point x="792" y="1499" type="line"/>
      <point x="792" y="1309" type="line"/>
    </contour>
    <contour>
      <point x="1194" y="1494" type="line"/>
      <point x="1194" y="1494" type="line"/>
      <point x="1194" y="1314" type="line"/>
      <point x="1092" y="1314" type="line"/>
      <point x="1092" y="1494" type="line"/>
    </contour>
    <contour>
      <point x="745" y="1271" type="curve"/>
      <point x="745" y="1271" type="line"/>
      <point x="637" y="1271" type="line" smooth="yes"/>
      <point x="632" y="1271"/>
      <point x="625" y="1262"/>
      <point x="625" y="1251" type="curve" smooth="yes"/>
      <point x="625" y="1060" type="line" smooth="yes"/>
      <point x="625" y="1051"/>
      <point x="630" y="1040"/>
      <point x="637" y="1040" type="curve" smooth="yes"/>
      <point x="745" y="1040" type="line" smooth="yes"/>
      <point x="751" y="1040"/>
      <point x="757" y="1048"/>
      <point x="757" y="1060" type="curve" smooth="yes"/>
      <point x="757" y="1251" type="line" smooth="yes"/>
      <point x="757" y="1260"/>
      <point x="752" y="1271"/>
    </contour>
    <contour>
      <point x="0" y="1251" type="line"/>
      <point x="0" y="1251" type="line"/>
      <point x="0" y="1060" type="line"/>
      <point x="108" y="1060" type="line"/>
      <point x="108" y="1251" type="line"/>
    </contour>
    <contour>
      <point x="165" y="1251" type="line"/>
      <point x="165" y="1251" type="line"/>
      <point x="165" y="1060" type="line"/>
      <point x="273" y="1060" type="line"/>
      <point x="273" y="1251" type="line"/>
    </contour>
    <contour>
      <point x="323" y="1251" type="line"/>
      <point x="323" y="1251" type="line"/>
      <point x="323" y="1060" type="line"/>
      <point x="431" y="1060" type="line"/>
      <point x="431" y="1251" type="line"/>
    </contour>
    <contour>
      <point x="487" y="1251" type="line"/>
      <point x="487" y="1251" type="line"/>
      <point x="487" y="1060" type="line"/>
      <point x="596" y="1060" type="line"/>
      <point x="596" y="1251" type="line"/>
    </contour>
    <contour>
      <point x="734" y="1230" type="line"/>
      <point x="734" y="1230" type="line"/>
      <point x="734" y="1081" type="line"/>
      <point x="649" y="1081" type="line"/>
      <point x="649" y="1230" type="line"/>
    </contour>
    <contour>
      <point x="745" y="1037" type="curve"/>
      <point x="745" y="1037" type="line"/>
      <point x="637" y="1037" type="line" smooth="yes"/>
      <point x="632" y="1037"/>
      <point x="625" y="1028"/>
      <point x="625" y="1016" type="curve" smooth="yes"/>
      <point x="625" y="825" type="line" smooth="yes"/>
      <point x="625" y="816"/>
      <point x="630" y="805"/>
      <point x="637" y="805" type="curve" smooth="yes"/>
      <point x="745" y="805" type="line" smooth="yes"/>
      <point x="751" y="805"/>
      <point x="757" y="813"/>
      <point x="757" y="825" type="curve" smooth="yes"/>
      <point x="757" y="1016" type="line" smooth="yes"/>
      <point x="757" y="1025"/>
      <point x="752" y="1037"/>
    </contour>
    <contour>
      <point x="0" y="1016" type="line"/>
      <point x="0" y="1016" type="line"/>
      <point x="0" y="825" type="line"/>
      <point x="108" y="825" type="line"/>
      <point x="108" y="1016" type="line"/>
    </contour>
    <contour>
      <point x="165" y="1016" type="line"/>
      <point x="165" y="1016" type="line"/>
      <point x="165" y="825" type="line"/>
      <point x="273" y="825" type="line"/>
      <point x="273" y="1016" type="line"/>
    </contour>
    <contour>
      <point x="323" y="1016" type="line"/>
      <point x="323" y="1016" type="line"/>
      <point x="323" y="825" type="line"/>
      <point x="431" y="825" type="line"/>
      <point x="431" y="1016" type="line"/>
    </contour>
    <contour>
      <point x="734" y="995" type="line"/>
      <point x="734" y="995" type="line"/>
      <point x="734" y="846" type="line"/>
      <point x="649" y="846" type="line"/>
      <point x="649" y="995" type="line"/>
    </contour>
    <contour>
      <point x="596" y="801" type="curve"/>
      <point x="596" y="801" type="line"/>
      <point x="487" y="801" type="line" smooth="yes"/>
      <point x="480" y="801"/>
      <point x="473" y="790"/>
      <point x="473" y="775" type="curve" smooth="yes"/>
      <point x="473" y="585" type="line" smooth="yes"/>
      <point x="473" y="572"/>
      <point x="479" y="559"/>
      <point x="487" y="559" type="curve" smooth="yes"/>
      <point x="596" y="559" type="line" smooth="yes"/>
      <point x="603" y="559"/>
      <point x="610" y="569"/>
      <point x="610" y="585" type="curve" smooth="yes"/>
      <point x="610" y="775" type="line" smooth="yes"/>
      <point x="610" y="787"/>
      <point x="604" y="801"/>
    </contour>
    <contour>
      <point x="900" y="780" type="curve"/>
      <point x="900" y="780" type="line"/>
      <point x="792" y="780" type="line" smooth="yes"/>
      <point x="790" y="780"/>
      <point x="789" y="778"/>
      <point x="789" y="775" type="curve" smooth="yes"/>
      <point x="789" y="585" type="line" smooth="yes"/>
      <point x="789" y="581"/>
      <point x="790" y="579"/>
      <point x="792" y="579" type="curve" smooth="yes"/>
      <point x="900" y="579" type="line" smooth="yes"/>
      <point x="902" y="579"/>
      <point x="903" y="581"/>
      <point x="903" y="585" type="curve" smooth="yes"/>
      <point x="903" y="775" type="line" smooth="yes"/>
      <point x="903" y="778"/>
      <point x="902" y="780"/>
    </contour>
    <contour>
      <point x="0" y="775" type="line"/>
      <point x="0" y="775" type="line"/>
      <point x="0" y="585" type="line"/>
      <point x="108" y="585" type="line"/>
      <point x="108" y="775" type="line"/>
    </contour>
    <contour>
      <point x="165" y="775" type="line"/>
      <point x="165" y="775" type="line"/>
      <point x="165" y="585" type="line"/>
      <point x="273" y="585" type="line"/>
      <point x="273" y="775" type="line"/>
    </contour>
    <contour>
      <point x="323" y="775" type="line"/>
      <point x="323" y="775" type="line"/>
      <point x="323" y="585" type="line"/>
      <point x="431" y="585" type="line"/>
      <point x="431" y="775" type="line"/>
    </contour>
    <contour>
      <point x="745" y="585" type="line"/>
      <point x="745" y="585" type="line"/>
      <point x="745" y="775" type="line"/>
      <point x="637" y="775" type="line"/>
      <point x="637" y="585" type="line"/>
    </contour>
    <contour>
      <point x="897" y="770" type="line"/>
      <point x="897" y="770" type="line"/>
      <point x="897" y="590" type="line"/>
      <point x="795" y="590" type="line"/>
      <point x="795" y="770" type="line"/>
    </contour>
    <contour>
      <point x="581" y="749" type="line"/>
      <point x="581" y="749" type="line"/>
      <point x="581" y="610" type="line"/>
      <point x="502" y="610" type="line"/>
      <point x="502" y="749" type="line"/>
    </contour>
    <contour>
      <point x="0" y="534" type="line"/>
      <point x="0" y="534" type="line"/>
      <point x="0" y="344" type="line"/>
      <point x="108" y="344" type="line"/>
      <point x="108" y="534" type="line"/>
    </contour>
    <contour>
      <point x="165" y="534" type="line"/>
      <point x="165" y="534" type="line"/>
      <point x="165" y="344" type="line"/>
      <point x="273" y="344" type="line"/>
      <point x="273" y="534" type="line"/>
    </contour>
    <contour>
      <point x="323" y="534" type="line"/>
      <point x="323" y="534" type="line"/>
      <point x="323" y="344" type="line"/>
      <point x="431" y="344" type="line"/>
      <point x="431" y="534" type="line"/>
    </contour>
    <contour>
      <point x="596" y="344" type="line"/>
      <point x="596" y="344" type="line"/>
      <point x="596" y="534" type="line"/>
      <point x="487" y="534" type="line"/>
      <point x="487" y="344" type="line"/>
    </contour>
    <contour>
      <point x="637" y="534" type="line"/>
      <point x="637" y="534" type="line"/>
      <point x="637" y="344" type="line"/>
      <point x="745" y="344" type="line"/>
      <point x="745" y="534" type="line"/>
    </contour>
    <contour>
      <point x="745" y="308" type="curve"/>
      <point x="745" y="308" type="line"/>
      <point x="637" y="308" type="line" smooth="yes"/>
      <point x="632" y="308"/>
      <point x="625" y="299"/>
      <point x="625" y="287" type="curve" smooth="yes"/>
      <point x="625" y="96" type="line" smooth="yes"/>
      <point x="625" y="87"/>
      <point x="630" y="76"/>
      <point x="637" y="76" type="curve" smooth="yes"/>
      <point x="745" y="76" type="line" smooth="yes"/>
      <point x="751" y="76"/>
      <point x="757" y="84"/>
      <point x="757" y="96" type="curve" smooth="yes"/>
      <point x="757" y="287" type="line" smooth="yes"/>
      <point x="757" y="296"/>
      <point x="752" y="308"/>
    </contour>
    <contour>
      <point x="1047" y="292" type="curve"/>
      <point x="1047" y="292" type="line"/>
      <point x="939" y="292" type="line" smooth="yes"/>
      <point x="938" y="292"/>
      <point x="936" y="290"/>
      <point x="936" y="287" type="curve" smooth="yes"/>
      <point x="936" y="96" type="line" smooth="yes"/>
      <point x="936" y="93"/>
      <point x="938" y="91"/>
      <point x="939" y="91" type="curve" smooth="yes"/>
      <point x="1047" y="91" type="line" smooth="yes"/>
      <point x="1049" y="91"/>
      <point x="1050" y="93"/>
      <point x="1050" y="96" type="curve" smooth="yes"/>
      <point x="1050" y="287" type="line" smooth="yes"/>
      <point x="1050" y="290"/>
      <point x="1049" y="292"/>
    </contour>
    <contour>
      <point x="0" y="287" type="line"/>
      <point x="0" y="287" type="line"/>
      <point x="0" y="96" type="line"/>
      <point x="108" y="96" type="line"/>
      <point x="108" y="287" type="line"/>
    </contour>
    <contour>
      <point x="165" y="287" type="line"/>
      <point x="165" y="287" type="line"/>
      <point x="165" y="96" type="line"/>
      <point x="273" y="96" type="line"/>
      <point x="273" y="287" type="line"/>
    </contour>
    <contour>
      <point x="1045" y="282" type="line"/>
      <point x="1045" y="282" type="line"/>
      <point x="1045" y="102" type="line"/>
      <point x="942" y="102" type="line"/>
      <point x="942" y="282" type="line"/>
    </contour>
    <contour>
      <point x="734" y="266" type="line"/>
      <point x="734" y="266" type="line"/>
      <point x="734" y="117" type="line"/>
      <point x="649" y="117" type="line"/>
      <point x="649" y="266" type="line"/>
    </contour>
    <contour>
      <point x="596" y="36" type="curve"/>
      <point x="596" y="36" type="line"/>
      <point x="487" y="36" type="line" smooth="yes"/>
      <point x="486" y="36"/>
      <point x="485" y="34"/>
      <point x="485" y="31" type="curve" smooth="yes"/>
      <point x="485" y="-160" type="line" smooth="yes"/>
      <point x="485" y="-163"/>
      <point x="486" y="-165"/>
      <point x="487" y="-165" type="curve" smooth="yes"/>
      <point x="596" y="-165" type="line" smooth="yes"/>
      <point x="597" y="-165"/>
      <point x="599" y="-163"/>
      <point x="599" y="-160" type="curve" smooth="yes"/>
      <point x="599" y="31" type="line" smooth="yes"/>
      <point x="599" y="34"/>
      <point x="597" y="36"/>
    </contour>
    <contour>
      <point x="900" y="36" type="curve"/>
      <point x="900" y="36" type="line"/>
      <point x="792" y="36" type="line" smooth="yes"/>
      <point x="790" y="36"/>
      <point x="789" y="34"/>
      <point x="789" y="31" type="curve" smooth="yes"/>
      <point x="789" y="-160" type="line" smooth="yes"/>
      <point x="789" y="-163"/>
      <point x="790" y="-165"/>
      <point x="792" y="-165" type="curve" smooth="yes"/>
      <point x="900" y="-165" type="line" smooth="yes"/>
      <point x="902" y="-165"/>
      <point x="903" y="-163"/>
      <point x="903" y="-160" type="curve" smooth="yes"/>
      <point x="903" y="31" type="line" smooth="yes"/>
      <point x="903" y="34"/>
      <point x="902" y="36"/>
    </contour>
    <contour>
      <point x="0" y="31" type="line"/>
      <point x="0" y="31" type="line"/>
      <point x="0" y="-160" type="line"/>
      <point x="108" y="-160" type="line"/>
      <point x="108" y="31" type="line"/>
    </contour>
    <contour>
      <point x="165" y="31" type="line"/>
      <point x="165" y="31" type="line"/>
      <point x="165" y="-160" type="line"/>
      <point x="273" y="-160" type="line"/>
      <point x="273" y="31" type="line"/>
    </contour>
    <contour>
      <point x="323" y="31" type="line"/>
      <point x="323" y="31" type="line"/>
      <point x="323" y="-160" type="line"/>
      <point x="431" y="-160" type="line"/>
      <point x="431" y="31" type="line"/>
    </contour>
    <contour>
      <point x="593" y="25" type="line"/>
      <point x="593" y="25" type="line"/>
      <point x="593" y="-155" type="line"/>
      <point x="490" y="-155" type="line"/>
      <point x="490" y="25" type="line"/>
    </contour>
    <contour>
      <point x="897" y="25" type="line"/>
      <point x="897" y="25" type="line"/>
      <point x="897" y="-155" type="line"/>
      <point x="795" y="-155" type="line"/>
      <point x="795" y="25" type="line"/>
    </contour>
    <contour>
      <point x="0" y="-226" type="line"/>
      <point x="0" y="-226" type="line"/>
      <point x="0" y="-416" type="line"/>
      <point x="108" y="-416" type="line"/>
      <point x="108" y="-226" type="line"/>
    </contour>
    <contour>
      <point x="165" y="-226" type="line"/>
      <point x="165" y="-226" type="line"/>
      <point x="165" y="-416" type="line"/>
      <point x="273" y="-416" type="line"/>
      <point x="273" y="-226" type="line"/>
    </contour>
    <contour>
      <point x="323" y="-226" type="line"/>
      <point x="323" y="-226" type="line"/>
      <point x="323" y="-416" type="line"/>
      <point x="431" y="-416" type="line"/>
      <point x="431" y="-226" type="line"/>
    </contour>
    <contour>
      <point x="596" y="-479" type="curve"/>
      <point x="596" y="-479" type="line"/>
      <point x="487" y="-479" type="line" smooth="yes"/>
      <point x="486" y="-479"/>
      <point x="485" y="-481"/>
      <point x="485" y="-484" type="curve" smooth="yes"/>
      <point x="485" y="-675" type="line" smooth="yes"/>
      <point x="485" y="-678"/>
      <point x="486" y="-680"/>
      <point x="487" y="-680" type="curve" smooth="yes"/>
      <point x="596" y="-680" type="line" smooth="yes"/>
      <point x="597" y="-680"/>
      <point x="599" y="-678"/>
      <point x="599" y="-675" type="curve" smooth="yes"/>
      <point x="599" y="-484" type="line" smooth="yes"/>
      <point x="599" y="-481"/>
      <point x="597" y="-479"/>
    </contour>
    <contour>
      <point x="0" y="-484" type="line"/>
      <point x="0" y="-484" type="line"/>
      <point x="0" y="-675" type="line"/>
      <point x="108" y="-675" type="line"/>
      <point x="108" y="-484" type="line"/>
    </contour>
    <contour>
      <point x="165" y="-484" type="line"/>
      <point x="165" y="-484" type="line"/>
      <point x="165" y="-675" type="line"/>
      <point x="273" y="-675" type="line"/>
      <point x="273" y="-484" type="line"/>
    </contour>
    <contour>
      <point x="593" y="-489" type="line"/>
      <point x="593" y="-489" type="line"/>
      <point x="593" y="-670" type="line"/>
      <point x="490" y="-670" type="line"/>
      <point x="490" y="-489" type="line"/>
    </contour>
  </outline>
</glyph>
<glyph name="uniE0C5" format="2">
  <advance width="1200"/>
  <unicode hex="E0C5"/>
  <note>
uniE0C5
</note>
  <outline>
    <contour>
      <point x="607" y="1557" type="curve"/>
      <point x="607" y="1557" type="line"/>
      <point x="715" y="1557" type="line" smooth="yes"/>
      <point x="720" y="1557"/>
      <point x="724" y="1565"/>
      <point x="724" y="1572" type="curve" smooth="yes"/>
      <point x="724" y="1763" type="line" smooth="yes"/>
      <point x="724" y="1771"/>
      <point x="719" y="1778"/>
      <point x="715" y="1778" type="curve" smooth="yes"/>
      <point x="607" y="1778" type="line" smooth="yes"/>
      <point x="602" y="1778"/>
      <point x="598" y="1770"/>
      <point x="598" y="1763" type="curve" smooth="yes"/>
      <point x="598" y="1572" type="line" smooth="yes"/>
      <point x="598" y="1564"/>
      <point x="603" y="1557"/>
    </contour>
    <contour>
      <point x="111" y="1768" type="curve"/>
      <point x="111" y="1768" type="line"/>
      <point x="3" y="1768" type="line" smooth="yes"/>
      <point x="1" y="1768"/>
      <point x="0" y="1766"/>
      <point x="0" y="1763" type="curve" smooth="yes"/>
      <point x="0" y="1572" type="line" smooth="yes"/>
      <point x="0" y="1569"/>
      <point x="1" y="1567"/>
      <point x="3" y="1567" type="curve" smooth="yes"/>
      <point x="111" y="1567" type="line" smooth="yes"/>
      <point x="113" y="1567"/>
      <point x="114" y="1569"/>
      <point x="114" y="1572" type="curve" smooth="yes"/>
      <point x="114" y="1763" type="line" smooth="yes"/>
      <point x="114" y="1766"/>
      <point x="113" y="1768"/>
    </contour>
    <contour>
      <point x="408" y="1572" type="line"/>
      <point x="408" y="1572" type="line"/>
      <point x="408" y="1763" type="line"/>
      <point x="300" y="1763" type="line"/>
      <point x="300" y="1572" type="line"/>
    </contour>
    <contour>
      <point x="563" y="1572" type="line"/>
      <point x="563" y="1572" type="line"/>
      <point x="563" y="1763" type="line"/>
      <point x="455" y="1763" type="line"/>
      <point x="455" y="1572" type="line"/>
    </contour>
    <contour>
      <point x="769" y="1763" type="line"/>
      <point x="769" y="1763" type="line"/>
      <point x="769" y="1572" type="line"/>
      <point x="877" y="1572" type="line"/>
      <point x="877" y="1763" type="line"/>
    </contour>
    <contour>
      <point x="927" y="1763" type="line"/>
      <point x="927" y="1763" type="line"/>
      <point x="927" y="1572" type="line"/>
      <point x="1035" y="1572" type="line"/>
      <point x="1035" y="1763" type="line"/>
    </contour>
    <contour>
      <point x="1200" y="1763" type="line"/>
      <point x="1200" y="1763" type="line"/>
      <point x="1092" y="1763" type="line"/>
      <point x="1092" y="1572" type="line"/>
      <point x="1200" y="1572" type="line"/>
    </contour>
    <contour>
      <point x="108" y="1757" type="line"/>
      <point x="108" y="1757" type="line"/>
      <point x="108" y="1577" type="line"/>
      <point x="6" y="1577" type="line"/>
      <point x="6" y="1757" type="line"/>
    </contour>
    <contour>
      <point x="615" y="1587" type="line"/>
      <point x="615" y="1587" type="line"/>
      <point x="615" y="1747" type="line"/>
      <point x="706" y="1747" type="line"/>
      <point x="706" y="1587" type="line"/>
    </contour>
    <contour>
      <point x="111" y="1504" type="curve"/>
      <point x="111" y="1504" type="line"/>
      <point x="3" y="1504" type="line" smooth="yes"/>
      <point x="1" y="1504"/>
      <point x="0" y="1502"/>
      <point x="0" y="1499" type="curve" smooth="yes"/>
      <point x="0" y="1309" type="line" smooth="yes"/>
      <point x="0" y="1305"/>
      <point x="1" y="1303"/>
      <point x="3" y="1303" type="curve" smooth="yes"/>
      <point x="111" y="1303" type="line" smooth="yes"/>
      <point x="113" y="1303"/>
      <point x="114" y="1305"/>
      <point x="114" y="1309" type="curve" smooth="yes"/>
      <point x="114" y="1499" type="line" smooth="yes"/>
      <point x="114" y="1502"/>
      <point x="113" y="1504"/>
    </contour>
    <contour>
      <point x="408" y="1309" type="line"/>
      <point x="408" y="1309" type="line"/>
      <point x="408" y="1499" type="line"/>
      <point x="300" y="1499" type="line"/>
      <point x="300" y="1309" type="line"/>
    </contour>
    <contour>
      <point x="713" y="1309" type="line"/>
      <point x="713" y="1309" type="line"/>
      <point x="713" y="1499" type="line"/>
      <point x="604" y="1499" type="line"/>
      <point x="604" y="1309" type="line"/>
    </contour>
    <contour>
      <point x="769" y="1499" type="line"/>
      <point x="769" y="1499" type="line"/>
      <point x="769" y="1309" type="line"/>
      <point x="877" y="1309" type="line"/>
      <point x="877" y="1499" type="line"/>
    </contour>
    <contour>
      <point x="927" y="1499" type="line"/>
      <point x="927" y="1499" type="line"/>
      <point x="927" y="1309" type="line"/>
      <point x="1035" y="1309" type="line"/>
      <point x="1035" y="1499" type="line"/>
    </contour>
    <contour>
      <point x="1092" y="1499" type="line"/>
      <point x="1092" y="1499" type="line"/>
      <point x="1092" y="1309" type="line"/>
      <point x="1200" y="1309" type="line"/>
      <point x="1200" y="1499" type="line"/>
    </contour>
    <contour>
      <point x="108" y="1494" type="line"/>
      <point x="108" y="1494" type="line"/>
      <point x="108" y="1314" type="line"/>
      <point x="6" y="1314" type="line"/>
      <point x="6" y="1494" type="line"/>
    </contour>
    <contour>
      <point x="563" y="1271" type="curve"/>
      <point x="563" y="1271" type="line"/>
      <point x="455" y="1271" type="line" smooth="yes"/>
      <point x="448" y="1271"/>
      <point x="443" y="1260"/>
      <point x="443" y="1251" type="curve" smooth="yes"/>
      <point x="443" y="1060" type="line" smooth="yes"/>
      <point x="443" y="1048"/>
      <point x="449" y="1040"/>
      <point x="455" y="1040" type="curve" smooth="yes"/>
      <point x="563" y="1040" type="line" smooth="yes"/>
      <point x="570" y="1040"/>
      <point x="575" y="1051"/>
      <point x="575" y="1060" type="curve" smooth="yes"/>
      <point x="575" y="1251" type="line" smooth="yes"/>
      <point x="575" y="1262"/>
      <point x="568" y="1271"/>
    </contour>
    <contour>
      <point x="604" y="1251" type="line"/>
      <point x="604" y="1251" type="line"/>
      <point x="604" y="1060" type="line"/>
      <point x="713" y="1060" type="line"/>
      <point x="713" y="1251" type="line"/>
    </contour>
    <contour>
      <point x="769" y="1251" type="line"/>
      <point x="769" y="1251" type="line"/>
      <point x="769" y="1060" type="line"/>
      <point x="877" y="1060" type="line"/>
      <point x="877" y="1251" type="line"/>
    </contour>
    <contour>
      <point x="927" y="1251" type="line"/>
      <point x="927" y="1251" type="line"/>
      <point x="927" y="1060" type="line"/>
      <point x="1035" y="1060" type="line"/>
      <point x="1035" y="1251" type="line"/>
    </contour>
    <contour>
      <point x="1092" y="1251" type="line"/>
      <point x="1092" y="1251" type="line"/>
      <point x="1092" y="1060" type="line"/>
      <point x="1200" y="1060" type="line"/>
      <point x="1200" y="1251" type="line"/>
    </contour>
    <contour>
      <point x="551" y="1230" type="line"/>
      <point x="551" y="1230" type="line"/>
      <point x="551" y="1081" type="line"/>
      <point x="466" y="1081" type="line"/>
      <point x="466" y="1230" type="line"/>
    </contour>
    <contour>
      <point x="563" y="1037" type="curve"/>
      <point x="563" y="1037" type="line"/>
      <point x="455" y="1037" type="line" smooth="yes"/>
      <point x="448" y="1037"/>
      <point x="443" y="1025"/>
      <point x="443" y="1016" type="curve" smooth="yes"/>
      <point x="443" y="825" type="line" smooth="yes"/>
      <point x="443" y="813"/>
      <point x="449" y="805"/>
      <point x="455" y="805" type="curve" smooth="yes"/>
      <point x="563" y="805" type="line" smooth="yes"/>
      <point x="570" y="805"/>
      <point x="575" y="816"/>
      <point x="575" y="825" type="curve" smooth="yes"/>
      <point x="575" y="1016" type="line" smooth="yes"/>
      <point x="575" y="1028"/>
      <point x="568" y="1037"/>
    </contour>
    <contour>
      <point x="769" y="1016" type="line"/>
      <point x="769" y="1016" type="line"/>
      <point x="769" y="825" type="line"/>
      <point x="877" y="825" type="line"/>
      <point x="877" y="1016" type="line"/>
    </contour>
    <contour>
      <point x="927" y="1016" type="line"/>
      <point x="927" y="1016" type="line"/>
      <point x="927" y="825" type="line"/>
      <point x="1035" y="825" type="line"/>
      <point x="1035" y="1016" type="line"/>
    </contour>
    <contour>
      <point x="1092" y="1016" type="line"/>
      <point x="1092" y="1016" type="line"/>
      <point x="1092" y="825" type="line"/>
      <point x="1200" y="825" type="line"/>
      <point x="1200" y="1016" type="line"/>
    </contour>
    <contour>
      <point x="551" y="995" type="line"/>
      <point x="551" y="995" type="line"/>
      <point x="551" y="846" type="line"/>
      <point x="466" y="846" type="line"/>
      <point x="466" y="995" type="line"/>
    </contour>
    <contour>
      <point x="713" y="801" type="curve"/>
      <point x="713" y="801" type="line"/>
      <point x="604" y="801" type="line" smooth="yes"/>
      <point x="596" y="801"/>
      <point x="590" y="787"/>
      <point x="590" y="775" type="curve" smooth="yes"/>
      <point x="590" y="585" type="line" smooth="yes"/>
      <point x="590" y="569"/>
      <point x="597" y="559"/>
      <point x="604" y="559" type="curve" smooth="yes"/>
      <point x="713" y="559" type="line" smooth="yes"/>
      <point x="721" y="559"/>
      <point x="727" y="572"/>
      <point x="727" y="585" type="curve" smooth="yes"/>
      <point x="727" y="775" type="line" smooth="yes"/>
      <point x="727" y="790"/>
      <point x="720" y="801"/>
    </contour>
    <contour>
      <point x="408" y="780" type="curve"/>
      <point x="408" y="780" type="line"/>
      <point x="300" y="780" type="line" smooth="yes"/>
      <point x="298" y="780"/>
      <point x="297" y="778"/>
      <point x="297" y="775" type="curve" smooth="yes"/>
      <point x="297" y="585" type="line" smooth="yes"/>
      <point x="297" y="581"/>
      <point x="298" y="579"/>
      <point x="300" y="579" type="curve" smooth="yes"/>
      <point x="408" y="579" type="line" smooth="yes"/>
      <point x="410" y="579"/>
      <point x="411" y="581"/>
      <point x="411" y="585" type="curve" smooth="yes"/>
      <point x="411" y="775" type="line" smooth="yes"/>
      <point x="411" y="778"/>
      <point x="410" y="780"/>
    </contour>
    <contour>
      <point x="563" y="585" type="line"/>
      <point x="563" y="585" type="line"/>
      <point x="563" y="775" type="line"/>
      <point x="455" y="775" type="line"/>
      <point x="455" y="585" type="line"/>
    </contour>
    <contour>
      <point x="769" y="775" type="line"/>
      <point x="769" y="775" type="line"/>
      <point x="769" y="585" type="line"/>
      <point x="877" y="585" type="line"/>
      <point x="877" y="775" type="line"/>
    </contour>
    <contour>
      <point x="927" y="775" type="line"/>
      <point x="927" y="775" type="line"/>
      <point x="927" y="585" type="line"/>
      <point x="1035" y="585" type="line"/>
      <point x="1035" y="775" type="line"/>
    </contour>
    <contour>
      <point x="1092" y="775" type="line"/>
      <point x="1092" y="775" type="line"/>
      <point x="1092" y="585" type="line"/>
      <point x="1200" y="585" type="line"/>
      <point x="1200" y="775" type="line"/>
    </contour>
    <contour>
      <point x="405" y="770" type="line"/>
      <point x="405" y="770" type="line"/>
      <point x="405" y="590" type="line"/>
      <point x="303" y="590" type="line"/>
      <point x="303" y="770" type="line"/>
    </contour>
    <contour>
      <point x="698" y="749" type="line"/>
      <point x="698" y="749" type="line"/>
      <point x="698" y="610" type="line"/>
      <point x="619" y="610" type="line"/>
      <point x="619" y="749" type="line"/>
    </contour>
    <contour>
      <point x="455" y="534" type="line"/>
      <point x="455" y="534" type="line"/>
      <point x="455" y="344" type="line"/>
      <point x="563" y="344" type="line"/>
      <point x="563" y="534" type="line"/>
    </contour>
    <contour>
      <point x="713" y="344" type="line"/>
      <point x="713" y="344" type="line"/>
      <point x="713" y="534" type="line"/>
      <point x="604" y="534" type="line"/>
      <point x="604" y="344" type="line"/>
    </contour>
    <contour>
      <point x="769" y="534" type="line"/>
      <point x="769" y="534" type="line"/>
      <point x="769" y="344" type="line"/>
      <point x="877" y="344" type="line"/>
      <point x="877" y="534" type="line"/>
    </contour>
    <contour>
      <point x="927" y="534" type="line"/>
      <point x="927" y="534" type="line"/>
      <point x="927" y="344" type="line"/>
      <point x="1035" y="344" type="line"/>
      <point x="1035" y="534" type="line"/>
    </contour>
    <contour>
      <point x="1092" y="534" type="line"/>
      <point x="1092" y="534" type="line"/>
      <point x="1092" y="344" type="line"/>
      <point x="1200" y="344" type="line"/>
      <point x="1200" y="534" type="line"/>
    </contour>
    <contour>
      <point x="563" y="308" type="curve"/>
      <point x="563" y="308" type="line"/>
      <point x="455" y="308" type="line" smooth="yes"/>
      <point x="448" y="308"/>
      <point x="443" y="296"/>
      <point x="443" y="287" type="curve" smooth="yes"/>
      <point x="443" y="96" type="line" smooth="yes"/>
      <point x="443" y="84"/>
      <point x="449" y="76"/>
      <point x="455" y="76" type="curve" smooth="yes"/>
      <point x="563" y="76" type="line" smooth="yes"/>
      <point x="570" y="76"/>
      <point x="575" y="87"/>
      <point x="575" y="96" type="curve" smooth="yes"/>
      <point x="575" y="287" type="line" smooth="yes"/>
      <point x="575" y="299"/>
      <point x="568" y="308"/>
    </contour>
    <contour>
      <point x="261" y="292" type="curve"/>
      <point x="261" y="292" type="line"/>
      <point x="153" y="292" type="line" smooth="yes"/>
      <point x="151" y="292"/>
      <point x="150" y="290"/>
      <point x="150" y="287" type="curve" smooth="yes"/>
      <point x="150" y="96" type="line" smooth="yes"/>
      <point x="150" y="93"/>
      <point x="151" y="91"/>
      <point x="153" y="91" type="curve" smooth="yes"/>
      <point x="261" y="91" type="line" smooth="yes"/>
      <point x="262" y="91"/>
      <point x="264" y="93"/>
      <point x="264" y="96" type="curve" smooth="yes"/>
      <point x="264" y="287" type="line" smooth="yes"/>
      <point x="264" y="290"/>
      <point x="262" y="292"/>
    </contour>
    <contour>
      <point x="927" y="287" type="line"/>
      <point x="927" y="287" type="line"/>
      <point x="927" y="96" type="line"/>
      <point x="1035" y="96" type="line"/>
      <point x="1035" y="287" type="line"/>
    </contour>
    <contour>
      <point x="1092" y="287" type="line"/>
      <point x="1092" y="287" type="line"/>
      <point x="1092" y="96" type="line"/>
      <point x="1200" y="96" type="line"/>
      <point x="1200" y="287" type="line"/>
    </contour>
    <contour>
      <point x="258" y="282" type="line"/>
      <point x="258" y="282" type="line"/>
      <point x="258" y="102" type="line"/>
      <point x="155" y="102" type="line"/>
      <point x="155" y="282" type="line"/>
    </contour>
    <contour>
      <point x="551" y="266" type="line"/>
      <point x="551" y="266" type="line"/>
      <point x="551" y="117" type="line"/>
      <point x="466" y="117" type="line"/>
      <point x="466" y="266" type="line"/>
    </contour>
    <contour>
      <point x="408" y="36" type="curve"/>
      <point x="408" y="36" type="line"/>
      <point x="300" y="36" type="line" smooth="yes"/>
      <point x="298" y="36"/>
      <point x="297" y="34"/>
      <point x="297" y="31" type="curve" smooth="yes"/>
      <point x="297" y="-160" type="line" smooth="yes"/>
      <point x="297" y="-163"/>
      <point x="298" y="-165"/>
      <point x="300" y="-165" type="curve" smooth="yes"/>
      <point x="408" y="-165" type="line" smooth="yes"/>
      <point x="410" y="-165"/>
      <point x="411" y="-163"/>
      <point x="411" y="-160" type="curve" smooth="yes"/>
      <point x="411" y="31" type="line" smooth="yes"/>
      <point x="411" y="34"/>
      <point x="410" y="36"/>
    </contour>
    <contour>
      <point x="713" y="36" type="curve"/>
      <point x="713" y="36" type="line"/>
      <point x="604" y="36" type="line" smooth="yes"/>
      <point x="603" y="36"/>
      <point x="601" y="34"/>
      <point x="601" y="31" type="curve" smooth="yes"/>
      <point x="601" y="-160" type="line" smooth="yes"/>
      <point x="601" y="-163"/>
      <point x="603" y="-165"/>
      <point x="604" y="-165" type="curve" smooth="yes"/>
      <point x="713" y="-165" type="line" smooth="yes"/>
      <point x="714" y="-165"/>
      <point x="715" y="-163"/>
      <point x="715" y="-160" type="curve" smooth="yes"/>
      <point x="715" y="31" type="line" smooth="yes"/>
      <point x="715" y="34"/>
      <point x="714" y="36"/>
    </contour>
    <contour>
      <point x="769" y="31" type="line"/>
      <point x="769" y="31" type="line"/>
      <point x="769" y="-160" type="line"/>
      <point x="877" y="-160" type="line"/>
      <point x="877" y="31" type="line"/>
    </contour>
    <contour>
      <point x="927" y="31" type="line"/>
      <point x="927" y="31" type="line"/>
      <point x="927" y="-160" type="line"/>
      <point x="1035" y="-160" type="line"/>
      <point x="1035" y="31" type="line"/>
    </contour>
    <contour>
      <point x="1092" y="31" type="line"/>
      <point x="1092" y="31" type="line"/>
      <point x="1092" y="-160" type="line"/>
      <point x="1200" y="-160" type="line"/>
      <point x="1200" y="31" type="line"/>
    </contour>
    <contour>
      <point x="405" y="25" type="line"/>
      <point x="405" y="25" type="line"/>
      <point x="405" y="-155" type="line"/>
      <point x="303" y="-155" type="line"/>
      <point x="303" y="25" type="line"/>
    </contour>
    <contour>
      <point x="710" y="25" type="line"/>
      <point x="710" y="25" type="line"/>
      <point x="710" y="-155" type="line"/>
      <point x="607" y="-155" type="line"/>
      <point x="607" y="25" type="line"/>
    </contour>
    <contour>
      <point x="769" y="-226" type="line"/>
      <point x="769" y="-226" type="line"/>
      <point x="769" y="-416" type="line"/>
      <point x="877" y="-416" type="line"/>
      <point x="877" y="-226" type="line"/>
    </contour>
    <contour>
      <point x="927" y="-226" type="line"/>
      <point x="927" y="-226" type="line"/>
      <point x="927" y="-416" type="line"/>
      <point x="1035" y="-416" type="line"/>
      <point x="1035" y="-226" type="line"/>
    </contour>
    <contour>
      <point x="1092" y="-226" type="line"/>
      <point x="1092" y="-226" type="line"/>
      <point x="1092" y="-416" type="line"/>
      <point x="1200" y="-416" type="line"/>
      <point x="1200" y="-226" type="line"/>
    </contour>
    <contour>
      <point x="713" y="-479" type="curve"/>
      <point x="713" y="-479" type="line"/>
      <point x="604" y="-479" type="line" smooth="yes"/>
      <point x="603" y="-479"/>
      <point x="601" y="-481"/>
      <point x="601" y="-484" type="curve" smooth="yes"/>
      <point x="601" y="-675" type="line" smooth="yes"/>
      <point x="601" y="-678"/>
      <point x="603" y="-680"/>
      <point x="604" y="-680" type="curve" smooth="yes"/>
      <point x="713" y="-680" type="line" smooth="yes"/>
      <point x="714" y="-680"/>
      <point x="715" y="-678"/>
      <point x="715" y="-675" type="curve" smooth="yes"/>
      <point x="715" y="-484" type="line" smooth="yes"/>
      <point x="715" y="-481"/>
      <point x="714" y="-479"/>
    </contour>
    <contour>
      <point x="927" y="-484" type="line"/>
      <point x="927" y="-484" type="line"/>
      <point x="927" y="-675" type="line"/>
      <point x="1035" y="-675" type="line"/>
      <point x="1035" y="-484" type="line"/>
    </contour>
    <contour>
      <point x="1092" y="-484" type="line"/>
      <point x="1092" y="-484" type="line"/>
      <point x="1092" y="-675" type="line"/>
      <point x="1200" y="-675" type="line"/>
      <point x="1200" y="-484" type="line"/>
    </contour>
    <contour>
      <point x="710" y="-489" type="line"/>
      <point x="710" y="-489" type="line"/>
      <point x="710" y="-670" type="line"/>
      <point x="607" y="-670" type="line"/>
      <point x="607" y="-489" type="line"/>
    </contour>
  </outline>
</glyph>
<glyph name="uniE0C6" format="2">
  <advance width="1200"/>
  <unicode hex="E0C6"/>
  <note>
uniE0C6
</note>
  <outline>
    <contour>
      <point x="769" y="1458" type="curve"/>
      <point x="769" y="1458" type="line"/>
      <point x="940" y="1458" type="line" smooth="yes"/>
      <point x="947" y="1458"/>
      <point x="955" y="1468"/>
      <point x="955" y="1481" type="curve" smooth="yes"/>
      <point x="955" y="1756" type="line" smooth="yes"/>
      <point x="955" y="1767"/>
      <point x="949" y="1778"/>
      <point x="940" y="1778" type="curve" smooth="yes"/>
      <point x="769" y="1778" type="line" smooth="yes"/>
      <point x="763" y="1778"/>
      <point x="755" y="1768"/>
      <point x="755" y="1756" type="curve" smooth="yes"/>
      <point x="755" y="1481" type="line" smooth="yes"/>
      <point x="755" y="1470"/>
      <point x="761" y="1458"/>
    </contour>
    <contour>
      <point x="512" y="1468" type="curve"/>
      <point x="512" y="1468" type="line"/>
      <point x="683" y="1468" type="line" smooth="yes"/>
      <point x="687" y="1468"/>
      <point x="691" y="1474"/>
      <point x="691" y="1481" type="curve" smooth="yes"/>
      <point x="691" y="1756" type="line" smooth="yes"/>
      <point x="691" y="1761"/>
      <point x="688" y="1768"/>
      <point x="683" y="1768" type="curve" smooth="yes"/>
      <point x="512" y="1768" type="line" smooth="yes"/>
      <point x="508" y="1768"/>
      <point x="504" y="1761"/>
      <point x="504" y="1756" type="curve" smooth="yes"/>
      <point x="504" y="1481" type="line" smooth="yes"/>
      <point x="504" y="1474"/>
      <point x="507" y="1468"/>
    </contour>
    <contour>
      <point x="0" y="1756" type="line"/>
      <point x="0" y="1756" type="line"/>
      <point x="0" y="1481" type="line"/>
      <point x="172" y="1481" type="line"/>
      <point x="172" y="1756" type="line"/>
    </contour>
    <contour>
      <point x="261" y="1756" type="line"/>
      <point x="261" y="1756" type="line"/>
      <point x="261" y="1481" type="line"/>
      <point x="433" y="1481" type="line"/>
      <point x="433" y="1756" type="line"/>
    </contour>
    <contour>
      <point x="519" y="1493" type="line"/>
      <point x="519" y="1493" type="line"/>
      <point x="519" y="1743" type="line"/>
      <point x="675" y="1743" type="line"/>
      <point x="675" y="1493" type="line"/>
    </contour>
    <contour>
      <point x="784" y="1503" type="line"/>
      <point x="784" y="1503" type="line"/>
      <point x="784" y="1733" type="line"/>
      <point x="927" y="1733" type="line"/>
      <point x="927" y="1503" type="line"/>
    </contour>
    <contour>
      <point x="944" y="1388" type="curve"/>
      <point x="944" y="1388" type="line"/>
      <point x="773" y="1388" type="line" smooth="yes"/>
      <point x="770" y="1388"/>
      <point x="765" y="1382"/>
      <point x="765" y="1375" type="curve" smooth="yes"/>
      <point x="765" y="1100" type="line" smooth="yes"/>
      <point x="765" y="1095"/>
      <point x="769" y="1088"/>
      <point x="773" y="1088" type="curve" smooth="yes"/>
      <point x="944" y="1088" type="line" smooth="yes"/>
      <point x="949" y="1088"/>
      <point x="952" y="1093"/>
      <point x="952" y="1100" type="curve" smooth="yes"/>
      <point x="952" y="1375" type="line" smooth="yes"/>
      <point x="952" y="1382"/>
      <point x="949" y="1388"/>
    </contour>
    <contour>
      <point x="0" y="1375" type="line"/>
      <point x="0" y="1375" type="line"/>
      <point x="0" y="1100" type="line"/>
      <point x="172" y="1100" type="line"/>
      <point x="172" y="1375" type="line"/>
    </contour>
    <contour>
      <point x="261" y="1375" type="line"/>
      <point x="261" y="1375" type="line"/>
      <point x="261" y="1100" type="line"/>
      <point x="433" y="1100" type="line"/>
      <point x="433" y="1375" type="line"/>
    </contour>
    <contour>
      <point x="512" y="1375" type="line"/>
      <point x="512" y="1375" type="line"/>
      <point x="512" y="1100" type="line"/>
      <point x="683" y="1100" type="line"/>
      <point x="683" y="1375" type="line"/>
    </contour>
    <contour>
      <point x="937" y="1363" type="line"/>
      <point x="937" y="1363" type="line"/>
      <point x="937" y="1112" type="line"/>
      <point x="781" y="1112" type="line"/>
      <point x="781" y="1363" type="line"/>
    </contour>
    <contour>
      <point x="1181" y="1046" type="curve"/>
      <point x="1181" y="1046" type="line"/>
      <point x="1010" y="1046" type="line" smooth="yes"/>
      <point x="1002" y="1046"/>
      <point x="992" y="1033"/>
      <point x="992" y="1017" type="curve" smooth="yes"/>
      <point x="992" y="741" type="line" smooth="yes"/>
      <point x="992" y="728"/>
      <point x="1000" y="712"/>
      <point x="1010" y="712" type="curve" smooth="yes"/>
      <point x="1181" y="712" type="line" smooth="yes"/>
      <point x="1191" y="712"/>
      <point x="1200" y="725"/>
      <point x="1200" y="741" type="curve" smooth="yes"/>
      <point x="1200" y="1017" type="line" smooth="yes"/>
      <point x="1200" y="1031"/>
      <point x="1192" y="1046"/>
    </contour>
    <contour>
      <point x="512" y="729" type="curve"/>
      <point x="512" y="729" type="line"/>
      <point x="683" y="729" type="line" smooth="yes"/>
      <point x="687" y="729"/>
      <point x="691" y="734"/>
      <point x="691" y="741" type="curve" smooth="yes"/>
      <point x="691" y="1017" type="line" smooth="yes"/>
      <point x="691" y="1022"/>
      <point x="688" y="1029"/>
      <point x="683" y="1029" type="curve" smooth="yes"/>
      <point x="512" y="1029" type="line" smooth="yes"/>
      <point x="508" y="1029"/>
      <point x="504" y="1022"/>
      <point x="504" y="1017" type="curve" smooth="yes"/>
      <point x="504" y="741" type="line" smooth="yes"/>
      <point x="504" y="736"/>
      <point x="507" y="729"/>
    </contour>
    <contour>
      <point x="0" y="1017" type="line"/>
      <point x="0" y="1017" type="line"/>
      <point x="0" y="741" type="line"/>
      <point x="172" y="741" type="line"/>
      <point x="172" y="1017" type="line"/>
    </contour>
    <contour>
      <point x="261" y="1017" type="line"/>
      <point x="261" y="1017" type="line"/>
      <point x="261" y="741" type="line"/>
      <point x="433" y="741" type="line"/>
      <point x="433" y="1017" type="line"/>
    </contour>
    <contour>
      <point x="519" y="754" type="line"/>
      <point x="519" y="754" type="line"/>
      <point x="519" y="1004" type="line"/>
      <point x="675" y="1004" type="line"/>
      <point x="675" y="754" type="line"/>
    </contour>
    <contour>
      <point x="1163" y="987" type="line"/>
      <point x="1163" y="987" type="line"/>
      <point x="1163" y="771" type="line"/>
      <point x="1029" y="771" type="line"/>
      <point x="1029" y="987" type="line"/>
    </contour>
    <contour>
      <point x="0" y="678" type="line"/>
      <point x="0" y="678" type="line"/>
      <point x="0" y="403" type="line"/>
      <point x="172" y="403" type="line"/>
      <point x="172" y="678" type="line"/>
    </contour>
    <contour>
      <point x="512" y="678" type="line"/>
      <point x="512" y="678" type="line"/>
      <point x="512" y="403" type="line"/>
      <point x="683" y="403" type="line"/>
      <point x="683" y="678" type="line"/>
    </contour>
    <contour>
      <point x="944" y="367" type="curve"/>
      <point x="944" y="367" type="line"/>
      <point x="773" y="367" type="line" smooth="yes"/>
      <point x="763" y="367"/>
      <point x="750" y="350"/>
      <point x="750" y="330" type="curve" smooth="yes"/>
      <point x="750" y="55" type="line" smooth="yes"/>
      <point x="750" y="36"/>
      <point x="760" y="17"/>
      <point x="773" y="17" type="curve" smooth="yes"/>
      <point x="944" y="17" type="line" smooth="yes"/>
      <point x="956" y="17"/>
      <point x="968" y="34"/>
      <point x="968" y="55" type="curve" smooth="yes"/>
      <point x="968" y="330" type="line" smooth="yes"/>
      <point x="968" y="347"/>
      <point x="957" y="367"/>
    </contour>
    <contour>
      <point x="0" y="330" type="line"/>
      <point x="0" y="330" type="line"/>
      <point x="0" y="55" type="line"/>
      <point x="172" y="55" type="line"/>
      <point x="172" y="330" type="line"/>
    </contour>
    <contour>
      <point x="261" y="330" type="line"/>
      <point x="261" y="330" type="line"/>
      <point x="261" y="55" type="line"/>
      <point x="433" y="55" type="line"/>
      <point x="433" y="330" type="line"/>
    </contour>
    <contour>
      <point x="921" y="292" type="line"/>
      <point x="921" y="292" type="line"/>
      <point x="921" y="92" type="line"/>
      <point x="796" y="92" type="line"/>
      <point x="796" y="292" type="line"/>
    </contour>
    <contour>
      <point x="683" y="6" type="curve"/>
      <point x="683" y="6" type="line"/>
      <point x="512" y="6" type="line" smooth="yes"/>
      <point x="504" y="6"/>
      <point x="496" y="-5"/>
      <point x="496" y="-18" type="curve" smooth="yes"/>
      <point x="496" y="-293" type="line" smooth="yes"/>
      <point x="496" y="-305"/>
      <point x="502" y="-318"/>
      <point x="512" y="-318" type="curve" smooth="yes"/>
      <point x="683" y="-318" type="line" smooth="yes"/>
      <point x="690" y="-318"/>
      <point x="698" y="-308"/>
      <point x="698" y="-293" type="curve" smooth="yes"/>
      <point x="698" y="-18" type="line" smooth="yes"/>
      <point x="698" y="-7"/>
      <point x="691" y="6"/>
    </contour>
    <contour>
      <point x="0" y="-18" type="line"/>
      <point x="0" y="-18" type="line"/>
      <point x="0" y="-293" type="line"/>
      <point x="172" y="-293" type="line"/>
      <point x="172" y="-18" type="line"/>
    </contour>
    <contour>
      <point x="261" y="-18" type="line"/>
      <point x="261" y="-18" type="line"/>
      <point x="261" y="-293" type="line"/>
      <point x="433" y="-293" type="line"/>
      <point x="433" y="-18" type="line"/>
    </contour>
    <contour>
      <point x="667" y="-43" type="line"/>
      <point x="667" y="-43" type="line"/>
      <point x="667" y="-269" type="line"/>
      <point x="527" y="-269" type="line"/>
      <point x="527" y="-43" type="line"/>
    </contour>
    <contour>
      <point x="1181" y="-345" type="curve"/>
      <point x="1181" y="-345" type="line"/>
      <point x="1010" y="-345" type="line" smooth="yes"/>
      <point x="1001" y="-345"/>
      <point x="992" y="-358"/>
      <point x="992" y="-375" type="curve" smooth="yes"/>
      <point x="992" y="-650" type="line" smooth="yes"/>
      <point x="992" y="-665"/>
      <point x="1000" y="-680"/>
      <point x="1010" y="-680" type="curve" smooth="yes"/>
      <point x="1181" y="-680" type="line" smooth="yes"/>
      <point x="1191" y="-680"/>
      <point x="1200" y="-667"/>
      <point x="1200" y="-650" type="curve" smooth="yes"/>
      <point x="1200" y="-375" type="line" smooth="yes"/>
      <point x="1200" y="-361"/>
      <point x="1192" y="-345"/>
    </contour>
    <contour>
      <point x="0" y="-375" type="line"/>
      <point x="0" y="-375" type="line"/>
      <point x="0" y="-650" type="line"/>
      <point x="172" y="-650" type="line"/>
      <point x="172" y="-375" type="line"/>
    </contour>
    <contour>
      <point x="261" y="-375" type="line"/>
      <point x="261" y="-375" type="line"/>
      <point x="261" y="-650" type="line"/>
      <point x="433" y="-650" type="line"/>
      <point x="433" y="-375" type="line"/>
    </contour>
    <contour>
      <point x="1163" y="-405" type="line"/>
      <point x="1163" y="-405" type="line"/>
      <point x="1163" y="-621" type="line"/>
      <point x="1029" y="-621" type="line"/>
      <point x="1029" y="-405" type="line"/>
    </contour>
  </outline>
</glyph>
<glyph name="uniE0C7" format="2">
  <advance width="1200"/>
  <unicode hex="E0C7"/>
  <note>
uniE0C7
</note>
  <outline>
    <contour>
      <point x="260" y="1458" type="curve"/>
      <point x="260" y="1458" type="line"/>
      <point x="431" y="1458" type="line" smooth="yes"/>
      <point x="439" y="1458"/>
      <point x="445" y="1470"/>
      <point x="445" y="1481" type="curve" smooth="yes"/>
      <point x="445" y="1756" type="line" smooth="yes"/>
      <point x="445" y="1768"/>
      <point x="437" y="1778"/>
      <point x="431" y="1778" type="curve" smooth="yes"/>
      <point x="260" y="1778" type="line" smooth="yes"/>
      <point x="252" y="1778"/>
      <point x="246" y="1767"/>
      <point x="246" y="1756" type="curve" smooth="yes"/>
      <point x="246" y="1481" type="line" smooth="yes"/>
      <point x="246" y="1469"/>
      <point x="253" y="1458"/>
    </contour>
    <contour>
      <point x="517" y="1468" type="curve"/>
      <point x="517" y="1468" type="line"/>
      <point x="688" y="1468" type="line" smooth="yes"/>
      <point x="693" y="1468"/>
      <point x="696" y="1474"/>
      <point x="696" y="1481" type="curve" smooth="yes"/>
      <point x="696" y="1756" type="line" smooth="yes"/>
      <point x="696" y="1762"/>
      <point x="693" y="1768"/>
      <point x="688" y="1768" type="curve" smooth="yes"/>
      <point x="517" y="1768" type="line" smooth="yes"/>
      <point x="513" y="1768"/>
      <point x="509" y="1761"/>
      <point x="509" y="1756" type="curve" smooth="yes"/>
      <point x="509" y="1481" type="line" smooth="yes"/>
      <point x="509" y="1474"/>
      <point x="514" y="1468"/>
    </contour>
    <contour>
      <point x="767" y="1756" type="line"/>
      <point x="767" y="1756" type="line"/>
      <point x="767" y="1481" type="line"/>
      <point x="939" y="1481" type="line"/>
      <point x="939" y="1756" type="line"/>
    </contour>
    <contour>
      <point x="1200" y="1756" type="line"/>
      <point x="1200" y="1756" type="line"/>
      <point x="1029" y="1756" type="line"/>
      <point x="1029" y="1481" type="line"/>
      <point x="1200" y="1481" type="line"/>
    </contour>
    <contour>
      <point x="525" y="1493" type="line"/>
      <point x="525" y="1493" type="line"/>
      <point x="525" y="1743" type="line"/>
      <point x="681" y="1743" type="line"/>
      <point x="681" y="1493" type="line"/>
    </contour>
    <contour>
      <point x="273" y="1503" type="line"/>
      <point x="273" y="1503" type="line"/>
      <point x="273" y="1733" type="line"/>
      <point x="417" y="1733" type="line"/>
      <point x="417" y="1503" type="line"/>
    </contour>
    <contour>
      <point x="428" y="1388" type="curve"/>
      <point x="428" y="1388" type="line"/>
      <point x="256" y="1388" type="line" smooth="yes"/>
      <point x="251" y="1388"/>
      <point x="248" y="1382"/>
      <point x="248" y="1375" type="curve" smooth="yes"/>
      <point x="248" y="1100" type="line" smooth="yes"/>
      <point x="248" y="1093"/>
      <point x="253" y="1088"/>
      <point x="256" y="1088" type="curve" smooth="yes"/>
      <point x="428" y="1088" type="line" smooth="yes"/>
      <point x="432" y="1088"/>
      <point x="435" y="1095"/>
      <point x="435" y="1100" type="curve" smooth="yes"/>
      <point x="435" y="1375" type="line" smooth="yes"/>
      <point x="435" y="1382"/>
      <point x="431" y="1388"/>
    </contour>
    <contour>
      <point x="517" y="1375" type="line"/>
      <point x="517" y="1375" type="line"/>
      <point x="517" y="1100" type="line"/>
      <point x="688" y="1100" type="line"/>
      <point x="688" y="1375" type="line"/>
    </contour>
    <contour>
      <point x="767" y="1375" type="line"/>
      <point x="767" y="1375" type="line"/>
      <point x="767" y="1100" type="line"/>
      <point x="939" y="1100" type="line"/>
      <point x="939" y="1375" type="line"/>
    </contour>
    <contour>
      <point x="1029" y="1375" type="line"/>
      <point x="1029" y="1375" type="line"/>
      <point x="1029" y="1100" type="line"/>
      <point x="1200" y="1100" type="line"/>
      <point x="1200" y="1375" type="line"/>
    </contour>
    <contour>
      <point x="420" y="1363" type="line"/>
      <point x="420" y="1363" type="line"/>
      <point x="420" y="1112" type="line"/>
      <point x="263" y="1112" type="line"/>
      <point x="263" y="1363" type="line"/>
    </contour>
    <contour>
      <point x="190" y="1046" type="curve"/>
      <point x="190" y="1046" type="line"/>
      <point x="19" y="1046" type="line" smooth="yes"/>
      <point x="8" y="1046"/>
      <point x="0" y="1030"/>
      <point x="0" y="1017" type="curve" smooth="yes"/>
      <point x="0" y="741" type="line" smooth="yes"/>
      <point x="0" y="725"/>
      <point x="9" y="712"/>
      <point x="19" y="712" type="curve" smooth="yes"/>
      <point x="190" y="712" type="line" smooth="yes"/>
      <point x="200" y="712"/>
      <point x="209" y="728"/>
      <point x="209" y="741" type="curve" smooth="yes"/>
      <point x="209" y="1017" type="line" smooth="yes"/>
      <point x="209" y="1033"/>
      <point x="198" y="1046"/>
    </contour>
    <contour>
      <point x="517" y="729" type="curve"/>
      <point x="517" y="729" type="line"/>
      <point x="688" y="729" type="line" smooth="yes"/>
      <point x="693" y="729"/>
      <point x="696" y="736"/>
      <point x="696" y="741" type="curve" smooth="yes"/>
      <point x="696" y="1017" type="line" smooth="yes"/>
      <point x="696" y="1023"/>
      <point x="693" y="1029"/>
      <point x="688" y="1029" type="curve" smooth="yes"/>
      <point x="517" y="1029" type="line" smooth="yes"/>
      <point x="513" y="1029"/>
      <point x="509" y="1022"/>
      <point x="509" y="1017" type="curve" smooth="yes"/>
      <point x="509" y="741" type="line" smooth="yes"/>
      <point x="509" y="734"/>
      <point x="514" y="729"/>
    </contour>
    <contour>
      <point x="767" y="1017" type="line"/>
      <point x="767" y="1017" type="line"/>
      <point x="767" y="741" type="line"/>
      <point x="939" y="741" type="line"/>
      <point x="939" y="1017" type="line"/>
    </contour>
    <contour>
      <point x="1029" y="1017" type="line"/>
      <point x="1029" y="1017" type="line"/>
      <point x="1029" y="741" type="line"/>
      <point x="1200" y="741" type="line"/>
      <point x="1200" y="1017" type="line"/>
    </contour>
    <contour>
      <point x="525" y="754" type="line"/>
      <point x="525" y="754" type="line"/>
      <point x="525" y="1004" type="line"/>
      <point x="681" y="1004" type="line"/>
      <point x="681" y="754" type="line"/>
    </contour>
    <contour>
      <point x="172" y="987" type="line"/>
      <point x="172" y="987" type="line"/>
      <point x="172" y="771" type="line"/>
      <point x="37" y="771" type="line"/>
      <point x="37" y="987" type="line"/>
    </contour>
    <contour>
      <point x="517" y="678" type="line"/>
      <point x="517" y="678" type="line"/>
      <point x="517" y="403" type="line"/>
      <point x="688" y="403" type="line"/>
      <point x="688" y="678" type="line"/>
    </contour>
    <contour>
      <point x="1029" y="678" type="line"/>
      <point x="1029" y="678" type="line"/>
      <point x="1029" y="403" type="line"/>
      <point x="1200" y="403" type="line"/>
      <point x="1200" y="678" type="line"/>
    </contour>
    <contour>
      <point x="428" y="367" type="curve"/>
      <point x="428" y="367" type="line"/>
      <point x="256" y="367" type="line" smooth="yes"/>
      <point x="243" y="367"/>
      <point x="232" y="347"/>
      <point x="232" y="330" type="curve" smooth="yes"/>
      <point x="232" y="55" type="line" smooth="yes"/>
      <point x="232" y="34"/>
      <point x="245" y="17"/>
      <point x="256" y="17" type="curve" smooth="yes"/>
      <point x="428" y="17" type="line" smooth="yes"/>
      <point x="440" y="17"/>
      <point x="450" y="36"/>
      <point x="450" y="55" type="curve" smooth="yes"/>
      <point x="450" y="330" type="line" smooth="yes"/>
      <point x="450" y="350"/>
      <point x="438" y="367"/>
    </contour>
    <contour>
      <point x="767" y="330" type="line"/>
      <point x="767" y="330" type="line"/>
      <point x="767" y="55" type="line"/>
      <point x="939" y="55" type="line"/>
      <point x="939" y="330" type="line"/>
    </contour>
    <contour>
      <point x="1029" y="330" type="line"/>
      <point x="1029" y="330" type="line"/>
      <point x="1029" y="55" type="line"/>
      <point x="1200" y="55" type="line"/>
      <point x="1200" y="330" type="line"/>
    </contour>
    <contour>
      <point x="404" y="292" type="line"/>
      <point x="404" y="292" type="line"/>
      <point x="404" y="92" type="line"/>
      <point x="279" y="92" type="line"/>
      <point x="279" y="292" type="line"/>
    </contour>
    <contour>
      <point x="688" y="6" type="curve"/>
      <point x="688" y="6" type="line"/>
      <point x="517" y="6" type="line" smooth="yes"/>
      <point x="508" y="6"/>
      <point x="502" y="-7"/>
      <point x="502" y="-18" type="curve" smooth="yes"/>
      <point x="502" y="-293" type="line" smooth="yes"/>
      <point x="502" y="-308"/>
      <point x="510" y="-318"/>
      <point x="517" y="-318" type="curve" smooth="yes"/>
      <point x="688" y="-318" type="line" smooth="yes"/>
      <point x="698" y="-318"/>
      <point x="704" y="-305"/>
      <point x="704" y="-293" type="curve" smooth="yes"/>
      <point x="704" y="-18" type="line" smooth="yes"/>
      <point x="704" y="-5"/>
      <point x="696" y="6"/>
    </contour>
    <contour>
      <point x="767" y="-18" type="line"/>
      <point x="767" y="-18" type="line"/>
      <point x="767" y="-293" type="line"/>
      <point x="939" y="-293" type="line"/>
      <point x="939" y="-18" type="line"/>
    </contour>
    <contour>
      <point x="1029" y="-18" type="line"/>
      <point x="1029" y="-18" type="line"/>
      <point x="1029" y="-293" type="line"/>
      <point x="1200" y="-293" type="line"/>
      <point x="1200" y="-18" type="line"/>
    </contour>
    <contour>
      <point x="674" y="-43" type="line"/>
      <point x="674" y="-43" type="line"/>
      <point x="674" y="-269" type="line"/>
      <point x="533" y="-269" type="line"/>
      <point x="533" y="-43" type="line"/>
    </contour>
    <contour>
      <point x="190" y="-345" type="curve"/>
      <point x="190" y="-345" type="line"/>
      <point x="19" y="-345" type="line" smooth="yes"/>
      <point x="8" y="-345"/>
      <point x="0" y="-361"/>
      <point x="0" y="-375" type="curve" smooth="yes"/>
      <point x="0" y="-650" type="line" smooth="yes"/>
      <point x="0" y="-667"/>
      <point x="9" y="-680"/>
      <point x="19" y="-680" type="curve" smooth="yes"/>
      <point x="190" y="-680" type="line" smooth="yes"/>
      <point x="200" y="-680"/>
      <point x="209" y="-665"/>
      <point x="209" y="-650" type="curve" smooth="yes"/>
      <point x="209" y="-375" type="line" smooth="yes"/>
      <point x="209" y="-360"/>
      <point x="198" y="-345"/>
    </contour>
    <contour>
      <point x="767" y="-375" type="line"/>
      <point x="767" y="-375" type="line"/>
      <point x="767" y="-650" type="line"/>
      <point x="939" y="-650" type="line"/>
      <point x="939" y="-375" type="line"/>
    </contour>
    <contour>
      <point x="1029" y="-375" type="line"/>
      <point x="1029" y="-375" type="line"/>
      <point x="1029" y="-650" type="line"/>
      <point x="1200" y="-650" type="line"/>
      <point x="1200" y="-375" type="line"/>
    </contour>
    <contour>
      <point x="172" y="-405" type="line"/>
      <point x="172" y="-405" type="line"/>
      <point x="172" y="-621" type="line"/>
      <point x="37" y="-621" type="line"/>
      <point x="37" y="-405" type="line"/>
    </contour>
  </outline>
</glyph>
<glyph name="uniE0C8" format="2">
  <advance width="1200"/>
  <unicode hex="E0C8"/>
  <note>
uniE0C8
</note>
  <outline>
    <contour>
      <point x="1105" y="282" type="curve"/>
      <point x="1105" y="282" type="line"/>
      <point x="1073" y="282"/>
      <point x="1046" y="298"/>
      <point x="1016" y="298" type="curve" smooth="yes"/>
      <point x="1010" y="298"/>
      <point x="983" y="289"/>
      <point x="974" y="287" type="curve"/>
      <point x="955" y="291"/>
      <point x="938" y="301"/>
      <point x="917" y="301" type="curve" smooth="yes"/>
      <point x="902" y="301"/>
      <point x="886" y="300"/>
      <point x="871" y="299" type="curve" smooth="yes"/>
      <point x="862" y="299"/>
      <point x="853" y="293"/>
      <point x="844" y="293" type="curve" smooth="yes"/>
      <point x="841" y="293"/>
      <point x="838" y="295"/>
      <point x="836" y="297" type="curve" smooth="yes"/>
      <point x="811" y="321"/>
      <point x="794" y="326"/>
      <point x="760" y="326" type="curve" smooth="yes"/>
      <point x="744" y="326"/>
      <point x="749" y="346"/>
      <point x="703" y="346" type="curve" smooth="yes"/>
      <point x="681" y="346"/>
      <point x="662" y="358"/>
      <point x="640" y="358" type="curve" smooth="yes"/>
      <point x="631" y="358"/>
      <point x="621" y="353"/>
      <point x="612" y="353" type="curve" smooth="yes"/>
      <point x="607" y="353"/>
      <point x="602" y="355"/>
      <point x="598" y="359" type="curve" smooth="yes"/>
      <point x="586" y="371"/>
      <point x="555" y="365"/>
      <point x="540" y="365" type="curve" smooth="yes"/>
      <point x="536" y="365"/>
      <point x="531" y="366"/>
      <point x="527" y="367" type="curve"/>
      <point x="513" y="378"/>
      <point x="480" y="374"/>
      <point x="462" y="383" type="curve" smooth="yes"/>
      <point x="455" y="386"/>
      <point x="451" y="395"/>
      <point x="443" y="395" type="curve" smooth="yes"/>
      <point x="435" y="395"/>
      <point x="427" y="390"/>
      <point x="419" y="390" type="curve" smooth="yes"/>
      <point x="413" y="390"/>
      <point x="406" y="395"/>
      <point x="399" y="395" type="curve" smooth="yes"/>
      <point x="392" y="395"/>
      <point x="384" y="394"/>
      <point x="377" y="394" type="curve" smooth="yes"/>
      <point x="342" y="394"/>
      <point x="307" y="398"/>
      <point x="273" y="398" type="curve" smooth="yes"/>
      <point x="262" y="398"/>
      <point x="261" y="403"/>
      <point x="257" y="412" type="curve"/>
      <point x="260" y="417"/>
      <point x="276" y="420"/>
      <point x="281" y="421" type="curve" smooth="yes"/>
      <point x="336" y="432"/>
      <point x="382" y="452"/>
      <point x="433" y="473" type="curve" smooth="yes"/>
      <point x="446" y="478"/>
      <point x="460" y="499"/>
      <point x="477" y="497" type="curve" smooth="yes"/>
      <point x="482" y="496"/>
      <point x="486" y="496"/>
      <point x="491" y="496" type="curve" smooth="yes"/>
      <point x="504" y="496"/>
      <point x="517" y="508"/>
      <point x="528" y="508" type="curve" smooth="yes"/>
      <point x="536" y="508"/>
      <point x="549" y="508"/>
      <point x="557" y="511" type="curve" smooth="yes"/>
      <point x="563" y="513"/>
      <point x="568" y="518"/>
      <point x="568" y="525" type="curve" smooth="yes"/>
      <point x="568" y="552"/>
      <point x="547" y="558"/>
      <point x="525" y="560" type="curve" smooth="yes"/>
      <point x="503" y="562"/>
      <point x="487" y="576"/>
      <point x="466" y="578" type="curve" smooth="yes"/>
      <point x="457" y="579"/>
      <point x="447" y="576"/>
      <point x="438" y="576" type="curve" smooth="yes"/>
      <point x="429" y="576"/>
      <point x="385" y="583"/>
      <point x="376" y="587" type="curve" smooth="yes"/>
      <point x="370" y="590"/>
      <point x="332" y="608"/>
      <point x="326" y="607" type="curve" smooth="yes"/>
      <point x="322" y="606"/>
      <point x="319" y="605"/>
      <point x="315" y="605" type="curve" smooth="yes"/>
      <point x="301" y="605"/>
      <point x="287" y="608"/>
      <point x="273" y="610" type="curve"/>
      <point x="268" y="616" type="line"/>
      <point x="278" y="632"/>
      <point x="320" y="626"/>
      <point x="335" y="626" type="curve" smooth="yes"/>
      <point x="359" y="626"/>
      <point x="380" y="643"/>
      <point x="405" y="646" type="curve" smooth="yes"/>
      <point x="416" y="647"/>
      <point x="447" y="655"/>
      <point x="447" y="669" type="curve" smooth="yes"/>
      <point x="447" y="694"/>
      <point x="390" y="703"/>
      <point x="372" y="703" type="curve" smooth="yes"/>
      <point x="353" y="703"/>
      <point x="341" y="713"/>
      <point x="323" y="713" type="curve" smooth="yes"/>
      <point x="241" y="713"/>
      <point x="256" y="727"/>
      <point x="235" y="786" type="curve" smooth="yes"/>
      <point x="231" y="797"/>
      <point x="215" y="828"/>
      <point x="215" y="837" type="curve" smooth="yes"/>
      <point x="215" y="881"/>
      <point x="248" y="907"/>
      <point x="279" y="932" type="curve" smooth="yes"/>
      <point x="292" y="943"/>
      <point x="315" y="940"/>
      <point x="327" y="952" type="curve" smooth="yes"/>
      <point x="330" y="955"/>
      <point x="379" y="967"/>
      <point x="388" y="968" type="curve"/>
      <point x="395" y="967"/>
      <point x="403" y="964"/>
      <point x="410" y="964" type="curve" smooth="yes"/>
      <point x="425" y="964"/>
      <point x="428" y="982"/>
      <point x="445" y="982" type="curve" smooth="yes"/>
      <point x="458" y="982"/>
      <point x="459" y="971"/>
      <point x="475" y="971" type="curve" smooth="yes"/>
      <point x="486" y="971"/>
      <point x="528" y="992"/>
      <point x="541" y="998" type="curve" smooth="yes"/>
      <point x="575" y="1013"/>
      <point x="614" y="1012"/>
      <point x="648" y="1024" type="curve" smooth="yes"/>
      <point x="657" y="1027"/>
      <point x="663" y="1035"/>
      <point x="663" y="1044" type="curve" smooth="yes"/>
      <point x="663" y="1088"/>
      <point x="625" y="1080"/>
      <point x="597" y="1080" type="curve" smooth="yes"/>
      <point x="577" y="1080"/>
      <point x="565" y="1108"/>
      <point x="512" y="1108" type="curve" smooth="yes"/>
      <point x="504" y="1108"/>
      <point x="499" y="1105"/>
      <point x="492" y="1104" type="curve"/>
      <point x="485" y="1108"/>
      <point x="488" y="1114"/>
      <point x="477" y="1117" type="curve" smooth="yes"/>
      <point x="464" y="1120"/>
      <point x="442" y="1125"/>
      <point x="431" y="1132" type="curve" smooth="yes"/>
      <point x="428" y="1134"/>
      <point x="425" y="1136"/>
      <point x="421" y="1136" type="curve" smooth="yes"/>
      <point x="415" y="1136"/>
      <point x="410" y="1130"/>
      <point x="404" y="1128" type="curve"/>
      <point x="395" y="1134"/>
      <point x="357" y="1185"/>
      <point x="339" y="1171" type="curve"/>
      <point x="303" y="1171"/>
      <point x="245" y="1207"/>
      <point x="206" y="1207" type="curve" smooth="yes"/>
      <point x="194" y="1207"/>
      <point x="175" y="1216"/>
      <point x="175" y="1230" type="curve" smooth="yes"/>
      <point x="175" y="1265"/>
      <point x="235" y="1279"/>
      <point x="262" y="1279" type="curve" smooth="yes"/>
      <point x="281" y="1279"/>
      <point x="343" y="1291"/>
      <point x="362" y="1295" type="curve" smooth="yes"/>
      <point x="379" y="1299"/>
      <point x="402" y="1320"/>
      <point x="416" y="1320" type="curve"/>
      <point x="424" y="1317" type="line"/>
      <point x="435" y="1307"/>
      <point x="450" y="1303"/>
      <point x="465" y="1303" type="curve" smooth="yes"/>
      <point x="474" y="1303"/>
      <point x="486" y="1305"/>
      <point x="490" y="1314" type="curve"/>
      <point x="493" y="1316" type="line"/>
      <point x="498" y="1313"/>
      <point x="507" y="1304"/>
      <point x="513" y="1304" type="curve" smooth="yes"/>
      <point x="517" y="1304"/>
      <point x="521" y="1306"/>
      <point x="524" y="1309" type="curve" smooth="yes"/>
      <point x="539" y="1322"/>
      <point x="562" y="1324"/>
      <point x="581" y="1328" type="curve" smooth="yes"/>
      <point x="592" y="1330"/>
      <point x="599" y="1341"/>
      <point x="610" y="1344" type="curve"/>
      <point x="622" y="1340"/>
      <point x="641" y="1340"/>
      <point x="654" y="1340" type="curve" smooth="yes"/>
      <point x="708" y="1340"/>
      <point x="714" y="1358"/>
      <point x="767" y="1358" type="curve" smooth="yes"/>
      <point x="794" y="1358"/>
      <point x="830" y="1363"/>
      <point x="830" y="1397" type="curve" smooth="yes"/>
      <point x="830" y="1405"/>
      <point x="827" y="1427"/>
      <point x="816" y="1427" type="curve" smooth="yes"/>
      <point x="811" y="1427"/>
      <point x="805" y="1422"/>
      <point x="800" y="1422" type="curve" smooth="yes"/>
      <point x="793" y="1422"/>
      <point x="786" y="1428"/>
      <point x="781" y="1432" type="curve" smooth="yes"/>
      <point x="755" y="1452"/>
      <point x="736" y="1445"/>
      <point x="706" y="1450" type="curve"/>
      <point x="704" y="1449"/>
      <point x="701" y="1448"/>
      <point x="699" y="1447" type="curve"/>
      <point x="690" y="1447" type="line" smooth="yes"/>
      <point x="688" y="1447"/>
      <point x="679" y="1452"/>
      <point x="677" y="1453" type="curve" smooth="yes"/>
      <point x="622" y="1490"/>
      <point x="612" y="1469"/>
      <point x="560" y="1482" type="curve" smooth="yes"/>
      <point x="545" y="1486"/>
      <point x="546" y="1502"/>
      <point x="517" y="1502" type="curve" smooth="yes"/>
      <point x="506" y="1502"/>
      <point x="499" y="1497"/>
      <point x="490" y="1494" type="curve"/>
      <point x="477" y="1502"/>
      <point x="474" y="1522"/>
      <point x="461" y="1522" type="curve" smooth="yes"/>
      <point x="435" y="1522"/>
      <point x="419" y="1510"/>
      <point x="396" y="1503" type="curve"/>
      <point x="393" y="1504"/>
      <point x="390" y="1506"/>
      <point x="388" y="1508" type="curve" smooth="yes"/>
      <point x="372" y="1527"/>
      <point x="330" y="1538"/>
      <point x="306" y="1538" type="curve" smooth="yes"/>
      <point x="292" y="1538"/>
      <point x="283" y="1529"/>
      <point x="270" y="1527" type="curve"/>
      <point x="246" y="1533"/>
      <point x="136" y="1565"/>
      <point x="127" y="1581" type="curve"/>
      <point x="131" y="1585" type="line"/>
      <point x="147" y="1592"/>
      <point x="159" y="1587"/>
      <point x="175" y="1587" type="curve" smooth="yes"/>
      <point x="189" y="1587"/>
      <point x="256" y="1593"/>
      <point x="264" y="1598" type="curve" smooth="yes"/>
      <point x="276" y="1606"/>
      <point x="305" y="1615"/>
      <point x="320" y="1615" type="curve" smooth="yes"/>
      <point x="327" y="1615"/>
      <point x="334" y="1612"/>
      <point x="341" y="1612" type="curve" smooth="yes"/>
      <point x="355" y="1612"/>
      <point x="370" y="1619"/>
      <point x="373" y="1633" type="curve"/>
      <point x="390" y="1633"/>
      <point x="414" y="1633"/>
      <point x="414" y="1656" type="curve" smooth="yes"/>
      <point x="414" y="1682"/>
      <point x="391" y="1672"/>
      <point x="379" y="1678" type="curve"/>
      <point x="376" y="1681"/>
      <point x="297" y="1722"/>
      <point x="294" y="1722" type="curve" smooth="yes"/>
      <point x="288" y="1722"/>
      <point x="284" y="1717"/>
      <point x="279" y="1715" type="curve"/>
      <point x="263" y="1720"/>
      <point x="213" y="1737"/>
      <point x="199" y="1737" type="curve" smooth="yes"/>
      <point x="194" y="1737"/>
      <point x="143" y="1768"/>
      <point x="135" y="1773" type="curve" smooth="yes"/>
      <point x="113" y="1788"/>
      <point x="76" y="1782"/>
      <point x="50" y="1782" type="curve" smooth="yes"/>
      <point x="45" y="1782"/>
      <point x="41" y="1782"/>
      <point x="36" y="1783" type="curve"/>
      <point x="29" y="1787"/>
      <point x="21" y="1790"/>
      <point x="13" y="1790" type="curve" smooth="yes"/>
      <point x="10" y="1790"/>
      <point x="6" y="1790"/>
      <point x="3" y="1789" type="curve"/>
      <point x="0" y="1784" type="line"/>
      <point x="1" y="-687" type="line"/>
      <point x="4" y="-692" type="line"/>
      <point x="49" y="-692"/>
      <point x="63" y="-693"/>
      <point x="102" y="-672" type="curve" smooth="yes"/>
      <point x="111" y="-667"/>
      <point x="120" y="-661"/>
      <point x="130" y="-657" type="curve" smooth="yes"/>
      <point x="151" y="-649"/>
      <point x="169" y="-661"/>
      <point x="198" y="-645" type="curve" smooth="yes"/>
      <point x="236" y="-624"/>
      <point x="220" y="-621"/>
      <point x="268" y="-621" type="curve" smooth="yes"/>
      <point x="270" y="-621"/>
      <point x="280" y="-617"/>
      <point x="282" y="-616" type="curve" smooth="yes"/>
      <point x="298" y="-609"/>
      <point x="321" y="-609"/>
      <point x="338" y="-607" type="curve" smooth="yes"/>
      <point x="348" y="-606"/>
      <point x="350" y="-594"/>
      <point x="350" y="-586" type="curve" smooth="yes"/>
      <point x="350" y="-551"/>
      <point x="311" y="-569"/>
      <point x="288" y="-562" type="curve"/>
      <point x="279" y="-553"/>
      <point x="271" y="-541"/>
      <point x="259" y="-536" type="curve" smooth="yes"/>
      <point x="239" y="-527"/>
      <point x="226" y="-517"/>
      <point x="204" y="-513" type="curve" smooth="yes"/>
      <point x="202" y="-513"/>
      <point x="198" y="-509"/>
      <point x="196" y="-507" type="curve"/>
      <point x="188" y="-489"/>
      <point x="144" y="-505"/>
      <point x="144" y="-482" type="curve" smooth="yes"/>
      <point x="144" y="-475"/>
      <point x="160" y="-468"/>
      <point x="165" y="-466" type="curve" smooth="yes"/>
      <point x="178" y="-461"/>
      <point x="190" y="-457"/>
      <point x="204" y="-457" type="curve" smooth="yes"/>
      <point x="220" y="-457"/>
      <point x="232" y="-444"/>
      <point x="247" y="-442" type="curve" smooth="yes"/>
      <point x="260" y="-440"/>
      <point x="289" y="-435"/>
      <point x="301" y="-428" type="curve" smooth="yes"/>
      <point x="309" y="-423"/>
      <point x="314" y="-415"/>
      <point x="324" y="-412" type="curve"/>
      <point x="330" y="-414"/>
      <point x="339" y="-415"/>
      <point x="346" y="-415" type="curve" smooth="yes"/>
      <point x="362" y="-415"/>
      <point x="371" y="-411"/>
      <point x="371" y="-394" type="curve" smooth="yes"/>
      <point x="371" y="-384"/>
      <point x="367" y="-374"/>
      <point x="363" y="-365" type="curve"/>
      <point x="376" y="-348"/>
      <point x="532" y="-349"/>
      <point x="560" y="-341" type="curve" smooth="yes"/>
      <point x="573" y="-337"/>
      <point x="593" y="-333"/>
      <point x="607" y="-333" type="curve" smooth="yes"/>
      <point x="623" y="-333"/>
      <point x="640" y="-329"/>
      <point x="640" y="-310" type="curve" smooth="yes"/>
      <point x="640" y="-280"/>
      <point x="618" y="-290"/>
      <point x="602" y="-279" type="curve"/>
      <point x="588" y="-275"/>
      <point x="581" y="-278"/>
      <point x="568" y="-278" type="curve" smooth="yes"/>
      <point x="567" y="-278"/>
      <point x="563" y="-276"/>
      <point x="562" y="-276" type="curve"/>
      <point x="555" y="-270"/>
      <point x="538" y="-257"/>
      <point x="528" y="-257" type="curve" smooth="yes"/>
      <point x="518" y="-257"/>
      <point x="508" y="-262"/>
      <point x="498" y="-262" type="curve" smooth="yes"/>
      <point x="495" y="-262"/>
      <point x="491" y="-261"/>
      <point x="488" y="-259" type="curve"/>
      <point x="479" y="-248"/>
      <point x="463" y="-246"/>
      <point x="450" y="-246" type="curve" smooth="yes"/>
      <point x="444" y="-246"/>
      <point x="440" y="-249"/>
      <point x="434" y="-251" type="curve"/>
      <point x="431" y="-250"/>
      <point x="429" y="-247"/>
      <point x="427" y="-245" type="curve" smooth="yes"/>
      <point x="412" y="-229"/>
      <point x="380" y="-242"/>
      <point x="363" y="-231" type="curve" smooth="yes"/>
      <point x="319" y="-202"/>
      <point x="322" y="-213"/>
      <point x="273" y="-213" type="curve" smooth="yes"/>
      <point x="265" y="-213"/>
      <point x="219" y="-206"/>
      <point x="222" y="-193" type="curve" smooth="yes"/>
      <point x="224" y="-185" type="line"/>
      <point x="238" y="-175"/>
      <point x="289" y="-177"/>
      <point x="307" y="-172" type="curve" smooth="yes"/>
      <point x="317" y="-169"/>
      <point x="326" y="-164"/>
      <point x="334" y="-157" type="curve" smooth="yes"/>
      <point x="353" y="-140"/>
      <point x="375" y="-138"/>
      <point x="397" y="-129" type="curve" smooth="yes"/>
      <point x="401" y="-127"/>
      <point x="411" y="-123"/>
      <point x="415" y="-123" type="curve"/>
      <point x="420" y="-126"/>
      <point x="432" y="-133"/>
      <point x="438" y="-133" type="curve" smooth="yes"/>
      <point x="442" y="-133"/>
      <point x="446" y="-131"/>
      <point x="449" y="-128" type="curve" smooth="yes"/>
      <point x="460" y="-119"/>
      <point x="468" y="-124"/>
      <point x="479" y="-119" type="curve"/>
      <point x="501" y="-119"/>
      <point x="535" y="-109"/>
      <point x="535" y="-82" type="curve" smooth="yes"/>
      <point x="535" y="-67"/>
      <point x="476" y="-50"/>
      <point x="462" y="-50" type="curve" smooth="yes"/>
      <point x="454" y="-50"/>
      <point x="446" y="-53"/>
      <point x="439" y="-53" type="curve" smooth="yes"/>
      <point x="423" y="-53"/>
      <point x="408" y="-45"/>
      <point x="391" y="-45" type="curve" smooth="yes"/>
      <point x="374" y="-45"/>
      <point x="357" y="-40"/>
      <point x="340" y="-40" type="curve" smooth="yes"/>
      <point x="325" y="-40"/>
      <point x="240" y="-1"/>
      <point x="240" y="15" type="curve" smooth="yes"/>
      <point x="240" y="36"/>
      <point x="294" y="79"/>
      <point x="315" y="79" type="curve" smooth="yes"/>
      <point x="325" y="79"/>
      <point x="333" y="84"/>
      <point x="340" y="91" type="curve" smooth="yes"/>
      <point x="343" y="94"/>
      <point x="350" y="103"/>
      <point x="355" y="104" type="curve" smooth="yes"/>
      <point x="413" y="116"/>
      <point x="470" y="123"/>
      <point x="528" y="131" type="curve" smooth="yes"/>
      <point x="556" y="135"/>
      <point x="602" y="153"/>
      <point x="620" y="153" type="curve" smooth="yes"/>
      <point x="628" y="153"/>
      <point x="636" y="150"/>
      <point x="644" y="150" type="curve" smooth="yes"/>
      <point x="668" y="150"/>
      <point x="695" y="172"/>
      <point x="720" y="172" type="curve" smooth="yes"/>
      <point x="730" y="172"/>
      <point x="731" y="180"/>
      <point x="739" y="184" type="curve"/>
      <point x="749" y="181"/>
      <point x="759" y="173"/>
      <point x="770" y="173" type="curve" smooth="yes"/>
      <point x="786" y="173"/>
      <point x="857" y="183"/>
      <point x="868" y="190" type="curve" smooth="yes"/>
      <point x="872" y="192"/>
      <point x="876" y="193"/>
      <point x="880" y="193" type="curve" smooth="yes"/>
      <point x="890" y="193"/>
      <point x="899" y="191"/>
      <point x="909" y="190" type="curve"/>
      <point x="912" y="191"/>
      <point x="916" y="192"/>
      <point x="919" y="192" type="curve" smooth="yes"/>
      <point x="925" y="192"/>
      <point x="932" y="189"/>
      <point x="938" y="189" type="curve" smooth="yes"/>
      <point x="966" y="189"/>
      <point x="1016" y="206"/>
      <point x="1046" y="211" type="curve" smooth="yes"/>
      <point x="1066" y="214"/>
      <point x="1084" y="217"/>
      <point x="1104" y="217" type="curve" smooth="yes"/>
      <point x="1123" y="217"/>
      <point x="1141" y="226"/>
      <point x="1164" y="226" type="curve" smooth="yes"/>
      <point x="1189" y="226"/>
      <point x="1200" y="231"/>
      <point x="1200" y="257" type="curve" smooth="yes"/>
      <point x="1200" y="295"/>
      <point x="1128" y="282"/>
    </contour>
  </outline>
</glyph>
<glyph name="uniE0CA" format="2">
  <advance width="1200"/>
  <unicode hex="E0CA"/>
  <note>
uniE0CA
</note>
  <outline>
    <contour>
      <point x="1196" y="-606" type="curve"/>
      <point x="1196" y="-606" type="line"/>
      <point x="1199" y="-601" type="line"/>
      <point x="1200" y="1698" type="line"/>
      <point x="1197" y="1703" type="line"/>
      <point x="1194" y="1704"/>
      <point x="1190" y="1704"/>
      <point x="1187" y="1704" type="curve" smooth="yes"/>
      <point x="1173" y="1704"/>
      <point x="1162" y="1696"/>
      <point x="1148" y="1696" type="curve" smooth="yes"/>
      <point x="1134" y="1696"/>
      <point x="1120" y="1698"/>
      <point x="1106" y="1698" type="curve" smooth="yes"/>
      <point x="1075" y="1698"/>
      <point x="1041" y="1680"/>
      <point x="1017" y="1661" type="curve" smooth="yes"/>
      <point x="1008" y="1654"/>
      <point x="938" y="1639"/>
      <point x="921" y="1634" type="curve"/>
      <point x="917" y="1636"/>
      <point x="911" y="1640"/>
      <point x="906" y="1640" type="curve" smooth="yes"/>
      <point x="897" y="1640"/>
      <point x="825" y="1603"/>
      <point x="821" y="1599" type="curve"/>
      <point x="807" y="1599"/>
      <point x="786" y="1598"/>
      <point x="786" y="1579" type="curve" smooth="yes"/>
      <point x="786" y="1557"/>
      <point x="811" y="1558"/>
      <point x="827" y="1558" type="curve"/>
      <point x="835" y="1545"/>
      <point x="842" y="1538"/>
      <point x="859" y="1538" type="curve" smooth="yes"/>
      <point x="866" y="1538"/>
      <point x="873" y="1542"/>
      <point x="880" y="1542" type="curve" smooth="yes"/>
      <point x="894" y="1542"/>
      <point x="924" y="1533"/>
      <point x="936" y="1526" type="curve" smooth="yes"/>
      <point x="955" y="1514"/>
      <point x="1023" y="1517"/>
      <point x="1049" y="1517" type="curve" smooth="yes"/>
      <point x="1058" y="1517"/>
      <point x="1066" y="1516"/>
      <point x="1073" y="1510" type="curve"/>
      <point x="1066" y="1498"/>
      <point x="950" y="1460"/>
      <point x="930" y="1460" type="curve" smooth="yes"/>
      <point x="920" y="1460"/>
      <point x="907" y="1469"/>
      <point x="894" y="1469" type="curve" smooth="yes"/>
      <point x="870" y="1469"/>
      <point x="828" y="1460"/>
      <point x="812" y="1442" type="curve" smooth="yes"/>
      <point x="810" y="1440"/>
      <point x="807" y="1438"/>
      <point x="804" y="1437" type="curve"/>
      <point x="781" y="1444"/>
      <point x="765" y="1454"/>
      <point x="739" y="1454" type="curve" smooth="yes"/>
      <point x="726" y="1454"/>
      <point x="721" y="1436"/>
      <point x="710" y="1429" type="curve"/>
      <point x="700" y="1433"/>
      <point x="691" y="1436"/>
      <point x="680" y="1436" type="curve" smooth="yes"/>
      <point x="656" y="1436"/>
      <point x="654" y="1422"/>
      <point x="640" y="1418" type="curve" smooth="yes"/>
      <point x="587" y="1403"/>
      <point x="582" y="1423"/>
      <point x="523" y="1390" type="curve" smooth="yes"/>
      <point x="516" y="1386"/>
      <point x="509" y="1384"/>
      <point x="501" y="1385" type="curve" smooth="yes"/>
      <point x="499" y="1385"/>
      <point x="496" y="1386"/>
      <point x="494" y="1387" type="curve"/>
      <point x="459" y="1380"/>
      <point x="452" y="1391"/>
      <point x="419" y="1370" type="curve" smooth="yes"/>
      <point x="414" y="1367"/>
      <point x="406" y="1362"/>
      <point x="400" y="1362" type="curve" smooth="yes"/>
      <point x="394" y="1362"/>
      <point x="389" y="1366"/>
      <point x="384" y="1366" type="curve" smooth="yes"/>
      <point x="374" y="1366"/>
      <point x="370" y="1347"/>
      <point x="370" y="1339" type="curve" smooth="yes"/>
      <point x="370" y="1299"/>
      <point x="426" y="1303"/>
      <point x="454" y="1303" type="curve" smooth="yes"/>
      <point x="478" y="1303"/>
      <point x="503" y="1285"/>
      <point x="546" y="1285" type="curve" smooth="yes"/>
      <point x="559" y="1285"/>
      <point x="578" y="1285"/>
      <point x="590" y="1289" type="curve"/>
      <point x="601" y="1286"/>
      <point x="608" y="1276"/>
      <point x="619" y="1274" type="curve" smooth="yes"/>
      <point x="634" y="1271"/>
      <point x="664" y="1266"/>
      <point x="676" y="1257" type="curve" smooth="yes"/>
      <point x="679" y="1255"/>
      <point x="683" y="1252"/>
      <point x="687" y="1252" type="curve" smooth="yes"/>
      <point x="691" y="1252"/>
      <point x="702" y="1261"/>
      <point x="707" y="1263" type="curve"/>
      <point x="718" y="1253"/>
      <point x="718" y="1251"/>
      <point x="735" y="1251" type="curve" smooth="yes"/>
      <point x="750" y="1251"/>
      <point x="765" y="1254"/>
      <point x="776" y="1264" type="curve"/>
      <point x="778" y="1265"/>
      <point x="782" y="1266"/>
      <point x="784" y="1266" type="curve" smooth="yes"/>
      <point x="803" y="1266"/>
      <point x="819" y="1247"/>
      <point x="837" y="1243" type="curve" smooth="yes"/>
      <point x="853" y="1239"/>
      <point x="907" y="1237"/>
      <point x="918" y="1231" type="curve" smooth="yes"/>
      <point x="941" y="1218"/>
      <point x="1025" y="1229"/>
      <point x="1025" y="1183" type="curve" smooth="yes"/>
      <point x="1025" y="1169"/>
      <point x="1006" y="1161"/>
      <point x="994" y="1161" type="curve" smooth="yes"/>
      <point x="955" y="1161"/>
      <point x="896" y="1128"/>
      <point x="861" y="1128" type="curve"/>
      <point x="860" y="1129"/>
      <point x="858" y="1129"/>
      <point x="857" y="1129" type="curve" smooth="yes"/>
      <point x="827" y="1129"/>
      <point x="796" y="1088"/>
      <point x="796" y="1088" type="curve"/>
      <point x="790" y="1090"/>
      <point x="786" y="1095"/>
      <point x="779" y="1095" type="curve" smooth="yes"/>
      <point x="778" y="1095"/>
      <point x="732" y="1080"/>
      <point x="724" y="1078" type="curve" smooth="yes"/>
      <point x="714" y="1076"/>
      <point x="715" y="1071"/>
      <point x="708" y="1066" type="curve"/>
      <point x="702" y="1068"/>
      <point x="695" y="1069"/>
      <point x="689" y="1069" type="curve" smooth="yes"/>
      <point x="644" y="1069"/>
      <point x="621" y="1044"/>
      <point x="604" y="1044" type="curve" smooth="yes"/>
      <point x="596" y="1044"/>
      <point x="589" y="1045"/>
      <point x="581" y="1045" type="curve" smooth="yes"/>
      <point x="558" y="1045"/>
      <point x="537" y="1037"/>
      <point x="537" y="1010" type="curve" smooth="yes"/>
      <point x="537" y="983"/>
      <point x="635" y="979"/>
      <point x="659" y="967" type="curve"/>
      <point x="678" y="966"/>
      <point x="704" y="941"/>
      <point x="725" y="941" type="curve" smooth="yes"/>
      <point x="741" y="941"/>
      <point x="741" y="952"/>
      <point x="756" y="952" type="curve" smooth="yes"/>
      <point x="772" y="952"/>
      <point x="775" y="935"/>
      <point x="790" y="935" type="curve" smooth="yes"/>
      <point x="797" y="935"/>
      <point x="805" y="938"/>
      <point x="812" y="939" type="curve"/>
      <point x="873" y="927"/>
      <point x="985" y="897"/>
      <point x="985" y="817" type="curve" smooth="yes"/>
      <point x="985" y="810"/>
      <point x="969" y="779"/>
      <point x="965" y="770" type="curve" smooth="yes"/>
      <point x="940" y="707"/>
      <point x="950" y="702"/>
      <point x="877" y="702" type="curve" smooth="yes"/>
      <point x="860" y="702"/>
      <point x="846" y="693"/>
      <point x="828" y="693" type="curve" smooth="yes"/>
      <point x="812" y="693"/>
      <point x="753" y="683"/>
      <point x="753" y="661" type="curve" smooth="yes"/>
      <point x="753" y="643"/>
      <point x="824" y="634"/>
      <point x="840" y="625" type="curve" smooth="yes"/>
      <point x="860" y="613"/>
      <point x="909" y="631"/>
      <point x="932" y="612" type="curve"/>
      <point x="930" y="610"/>
      <point x="928" y="608"/>
      <point x="926" y="606" type="curve"/>
      <point x="908" y="603"/>
      <point x="892" y="603"/>
      <point x="874" y="603" type="curve" smooth="yes"/>
      <point x="864" y="603"/>
      <point x="833" y="588"/>
      <point x="824" y="584" type="curve" smooth="yes"/>
      <point x="797" y="572"/>
      <point x="762" y="576"/>
      <point x="734" y="576" type="curve" smooth="yes"/>
      <point x="715" y="576"/>
      <point x="696" y="561"/>
      <point x="675" y="559" type="curve" smooth="yes"/>
      <point x="654" y="557"/>
      <point x="632" y="554"/>
      <point x="632" y="527" type="curve" smooth="yes"/>
      <point x="632" y="508"/>
      <point x="661" y="513"/>
      <point x="672" y="511" type="curve" smooth="yes"/>
      <point x="697" y="507"/>
      <point x="686" y="501"/>
      <point x="723" y="501" type="curve" smooth="yes"/>
      <point x="741" y="501"/>
      <point x="753" y="487"/>
      <point x="767" y="479" type="curve" smooth="yes"/>
      <point x="800" y="460"/>
      <point x="881" y="437"/>
      <point x="919" y="430" type="curve" smooth="yes"/>
      <point x="924" y="429"/>
      <point x="940" y="426"/>
      <point x="943" y="421" type="curve"/>
      <point x="933" y="401"/>
      <point x="928" y="410"/>
      <point x="909" y="410" type="curve" smooth="yes"/>
      <point x="889" y="410"/>
      <point x="811" y="398"/>
      <point x="801" y="406" type="curve"/>
      <point x="795" y="405"/>
      <point x="787" y="401"/>
      <point x="781" y="401" type="curve" smooth="yes"/>
      <point x="773" y="401"/>
      <point x="765" y="406"/>
      <point x="757" y="406" type="curve" smooth="yes"/>
      <point x="747" y="406"/>
      <point x="745" y="397"/>
      <point x="738" y="394" type="curve" smooth="yes"/>
      <point x="717" y="386"/>
      <point x="693" y="391"/>
      <point x="673" y="380" type="curve" smooth="yes"/>
      <point x="669" y="378"/>
      <point x="664" y="377"/>
      <point x="660" y="377" type="curve" smooth="yes"/>
      <point x="649" y="377"/>
      <point x="638" y="379"/>
      <point x="627" y="379" type="curve" smooth="yes"/>
      <point x="599" y="379"/>
      <point x="603" y="366"/>
      <point x="588" y="366" type="curve" smooth="yes"/>
      <point x="577" y="366"/>
      <point x="567" y="371"/>
      <point x="556" y="371" type="curve" smooth="yes"/>
      <point x="535" y="371"/>
      <point x="515" y="360"/>
      <point x="492" y="360" type="curve" smooth="yes"/>
      <point x="457" y="360"/>
      <point x="460" y="342"/>
      <point x="427" y="342" type="curve" smooth="yes"/>
      <point x="388" y="342"/>
      <point x="366" y="311"/>
      <point x="356" y="311" type="curve" smooth="yes"/>
      <point x="347" y="311"/>
      <point x="338" y="317"/>
      <point x="329" y="317" type="curve" smooth="yes"/>
      <point x="314" y="318"/>
      <point x="298" y="319"/>
      <point x="283" y="319" type="curve" smooth="yes"/>
      <point x="262" y="319"/>
      <point x="245" y="309"/>
      <point x="226" y="305" type="curve"/>
      <point x="211" y="308"/>
      <point x="195" y="315"/>
      <point x="180" y="315" type="curve" smooth="yes"/>
      <point x="161" y="315"/>
      <point x="141" y="306"/>
      <point x="123" y="302" type="curve" smooth="yes"/>
      <point x="100" y="297"/>
      <point x="0" y="317"/>
      <point x="0" y="277" type="curve" smooth="yes"/>
      <point x="0" y="241"/>
      <point x="31" y="249"/>
      <point x="57" y="249" type="curve" smooth="yes"/>
      <point x="70" y="249"/>
      <point x="83" y="240"/>
      <point x="96" y="240" type="curve" smooth="yes"/>
      <point x="146" y="240"/>
      <point x="197" y="226"/>
      <point x="246" y="216" type="curve" smooth="yes"/>
      <point x="251" y="215"/>
      <point x="257" y="214"/>
      <point x="262" y="214" type="curve" smooth="yes"/>
      <point x="272" y="214"/>
      <point x="281" y="215"/>
      <point x="291" y="215" type="curve" smooth="yes"/>
      <point x="301" y="215"/>
      <point x="310" y="218"/>
      <point x="320" y="218" type="curve" smooth="yes"/>
      <point x="324" y="218"/>
      <point x="328" y="217"/>
      <point x="332" y="215" type="curve" smooth="yes"/>
      <point x="343" y="208"/>
      <point x="414" y="199"/>
      <point x="430" y="199" type="curve" smooth="yes"/>
      <point x="441" y="199"/>
      <point x="451" y="206"/>
      <point x="461" y="209" type="curve"/>
      <point x="468" y="205"/>
      <point x="471" y="198"/>
      <point x="480" y="198" type="curve" smooth="yes"/>
      <point x="506" y="198"/>
      <point x="531" y="177"/>
      <point x="556" y="177" type="curve" smooth="yes"/>
      <point x="565" y="177"/>
      <point x="575" y="180"/>
      <point x="585" y="180" type="curve" smooth="yes"/>
      <point x="595" y="180"/>
      <point x="621" y="171"/>
      <point x="630" y="168" type="curve" smooth="yes"/>
      <point x="652" y="160"/>
      <point x="801" y="143"/>
      <point x="846" y="135" type="curve"/>
      <point x="851" y="131"/>
      <point x="856" y="127"/>
      <point x="860" y="123" type="curve" smooth="yes"/>
      <point x="867" y="116"/>
      <point x="876" y="111"/>
      <point x="886" y="111" type="curve" smooth="yes"/>
      <point x="906" y="111"/>
      <point x="960" y="72"/>
      <point x="960" y="52" type="curve" smooth="yes"/>
      <point x="960" y="38"/>
      <point x="874" y="0"/>
      <point x="860" y="0" type="curve" smooth="yes"/>
      <point x="840" y="0"/>
      <point x="820" y="-3"/>
      <point x="800" y="-3" type="curve" smooth="yes"/>
      <point x="786" y="-3"/>
      <point x="774" y="-11"/>
      <point x="760" y="-11" type="curve" smooth="yes"/>
      <point x="753" y="-11"/>
      <point x="746" y="-8"/>
      <point x="738" y="-8" type="curve" smooth="yes"/>
      <point x="724" y="-8"/>
      <point x="665" y="-23"/>
      <point x="665" y="-38" type="curve" smooth="yes"/>
      <point x="665" y="-67"/>
      <point x="700" y="-70"/>
      <point x="721" y="-73" type="curve" smooth="yes"/>
      <point x="734" y="-75"/>
      <point x="751" y="-85"/>
      <point x="762" y="-85" type="curve" smooth="yes"/>
      <point x="769" y="-85"/>
      <point x="779" y="-80"/>
      <point x="786" y="-77" type="curve"/>
      <point x="786" y="-76" type="line"/>
      <point x="806" y="-81"/>
      <point x="851" y="-95"/>
      <point x="866" y="-109" type="curve" smooth="yes"/>
      <point x="874" y="-116"/>
      <point x="883" y="-120"/>
      <point x="893" y="-122" type="curve" smooth="yes"/>
      <point x="920" y="-127"/>
      <point x="948" y="-126"/>
      <point x="975" y="-133" type="curve"/>
      <point x="977" y="-136"/>
      <point x="977" y="-141"/>
      <point x="979" y="-144" type="curve"/>
      <point x="979" y="-147"/>
      <point x="960" y="-154"/>
      <point x="957" y="-156" type="curve" smooth="yes"/>
      <point x="946" y="-163"/>
      <point x="899" y="-159"/>
      <point x="884" y="-159" type="curve" smooth="yes"/>
      <point x="865" y="-159"/>
      <point x="854" y="-171"/>
      <point x="837" y="-177" type="curve" smooth="yes"/>
      <point x="820" y="-183"/>
      <point x="786" y="-176"/>
      <point x="773" y="-190" type="curve" smooth="yes"/>
      <point x="771" y="-192"/>
      <point x="769" y="-195"/>
      <point x="766" y="-196" type="curve"/>
      <point x="761" y="-193"/>
      <point x="756" y="-191"/>
      <point x="750" y="-191" type="curve" smooth="yes"/>
      <point x="720" y="-191"/>
      <point x="713" y="-206"/>
      <point x="702" y="-206" type="curve" smooth="yes"/>
      <point x="692" y="-206"/>
      <point x="682" y="-201"/>
      <point x="673" y="-201" type="curve" smooth="yes"/>
      <point x="658" y="-201"/>
      <point x="646" y="-217"/>
      <point x="632" y="-221" type="curve"/>
      <point x="631" y="-221"/>
      <point x="620" y="-219"/>
      <point x="617" y="-219" type="curve" smooth="yes"/>
      <point x="596" y="-219"/>
      <point x="561" y="-226"/>
      <point x="561" y="-251" type="curve" smooth="yes"/>
      <point x="561" y="-261"/>
      <point x="567" y="-268"/>
      <point x="577" y="-270" type="curve" smooth="yes"/>
      <point x="612" y="-277"/>
      <point x="651" y="-282"/>
      <point x="686" y="-282" type="curve" smooth="yes"/>
      <point x="701" y="-282"/>
      <point x="830" y="-293"/>
      <point x="837" y="-302" type="curve"/>
      <point x="837" y="-313"/>
      <point x="829" y="-322"/>
      <point x="829" y="-335" type="curve" smooth="yes"/>
      <point x="829" y="-346"/>
      <point x="847" y="-348"/>
      <point x="854" y="-348" type="curve" smooth="yes"/>
      <point x="861" y="-348"/>
      <point x="869" y="-347"/>
      <point x="876" y="-345" type="curve"/>
      <point x="885" y="-348"/>
      <point x="891" y="-355"/>
      <point x="899" y="-360" type="curve" smooth="yes"/>
      <point x="914" y="-368"/>
      <point x="937" y="-370"/>
      <point x="953" y="-373" type="curve" smooth="yes"/>
      <point x="970" y="-377"/>
      <point x="975" y="-388"/>
      <point x="996" y="-388" type="curve" smooth="yes"/>
      <point x="1008" y="-388"/>
      <point x="1056" y="-396"/>
      <point x="1056" y="-411" type="curve" smooth="yes"/>
      <point x="1056" y="-423"/>
      <point x="1034" y="-425"/>
      <point x="1025" y="-425" type="curve" smooth="yes"/>
      <point x="1003" y="-425"/>
      <point x="1009" y="-436"/>
      <point x="993" y="-440" type="curve" smooth="yes"/>
      <point x="961" y="-449"/>
      <point x="936" y="-461"/>
      <point x="912" y="-485" type="curve"/>
      <point x="892" y="-492"/>
      <point x="850" y="-474"/>
      <point x="850" y="-507" type="curve" smooth="yes"/>
      <point x="850" y="-515"/>
      <point x="853" y="-526"/>
      <point x="863" y="-527" type="curve" smooth="yes"/>
      <point x="894" y="-531"/>
      <point x="924" y="-539"/>
      <point x="954" y="-539" type="curve" smooth="yes"/>
      <point x="972" y="-539"/>
      <point x="987" y="-554"/>
      <point x="1002" y="-563" type="curve" smooth="yes"/>
      <point x="1024" y="-576"/>
      <point x="1047" y="-567"/>
      <point x="1070" y="-574" type="curve" smooth="yes"/>
      <point x="1080" y="-577"/>
      <point x="1089" y="-583"/>
      <point x="1098" y="-587" type="curve" smooth="yes"/>
      <point x="1137" y="-607"/>
      <point x="1151" y="-606"/>
    </contour>
  </outline>
</glyph>
<glyph name="uniE0CC" format="2">
  <advance width="1200"/>
  <unicode hex="E0CC"/>
  <note>
uniE0CC
</note>
  <outline>
    <contour>
      <point x="0" y="1778" type="line"/>
      <point x="0" y="1778" type="line"/>
      <point x="0" y="781" type="line"/>
      <point x="331" y="781" type="line"/>
      <point x="496" y="1280" type="line"/>
      <point x="331" y="1778" type="line"/>
    </contour>
    <contour>
      <point x="539" y="531" type="line"/>
      <point x="539" y="531" type="line"/>
      <point x="704" y="33" type="line"/>
      <point x="1035" y="33" type="line"/>
      <point x="1200" y="531" type="line"/>
      <point x="1035" y="1030" type="line"/>
      <point x="704" y="1030" type="line"/>
    </contour>
    <contour>
      <point x="0" y="317" type="line"/>
      <point x="0" y="317" type="line"/>
      <point x="0" y="-680" type="line"/>
      <point x="331" y="-680" type="line"/>
      <point x="496" y="-182" type="line"/>
      <point x="331" y="317" type="line"/>
    </contour>
  </outline>
</glyph>
<glyph name="uniE0CD" format="2">
  <advance width="1200"/>
  <unicode hex="E0CD"/>
  <note>
uniE0CD
</note>
  <outline>
    <contour>
      <point x="0" y="1778" type="line"/>
      <point x="0" y="1778" type="line"/>
      <point x="0" y="752" type="line"/>
      <point x="345" y="752" type="line"/>
      <point x="514" y="1265" type="line"/>
      <point x="345" y="1778" type="line"/>
    </contour>
    <contour>
      <point x="328" y="801" type="line"/>
      <point x="328" y="801" type="line"/>
      <point x="28" y="801" type="line"/>
      <point x="28" y="1728" type="line"/>
      <point x="328" y="1728" type="line"/>
      <point x="481" y="1265" type="line"/>
    </contour>
    <contour>
      <point x="523" y="532" type="line"/>
      <point x="523" y="532" type="line"/>
      <point x="692" y="19" type="line"/>
      <point x="1031" y="19" type="line"/>
      <point x="1200" y="532" type="line"/>
      <point x="1031" y="1045" type="line"/>
      <point x="692" y="1045" type="line"/>
    </contour>
    <contour>
      <point x="1014" y="68" type="line"/>
      <point x="1014" y="68" type="line"/>
      <point x="708" y="68" type="line"/>
      <point x="555" y="532" type="line"/>
      <point x="708" y="995" type="line"/>
      <point x="1014" y="995" type="line"/>
      <point x="1167" y="532" type="line"/>
    </contour>
    <contour>
      <point x="0" y="346" type="line"/>
      <point x="0" y="346" type="line"/>
      <point x="0" y="-680" type="line"/>
      <point x="345" y="-680" type="line"/>
      <point x="514" y="-167" type="line"/>
      <point x="345" y="346" type="line"/>
    </contour>
    <contour>
      <point x="328" y="-630" type="line"/>
      <point x="328" y="-630" type="line"/>
      <point x="28" y="-630" type="line"/>
      <point x="28" y="297" type="line"/>
      <point x="328" y="297" type="line"/>
      <point x="481" y="-167" type="line"/>
    </contour>
  </outline>
</glyph>
<glyph name="uniE0CE" format="2">
  <advance width="1200"/>
  <unicode hex="E0CE"/>
  <note>
uniE0CE
</note>
  <outline>
    <contour>
      <point x="295" y="1778" type="line"/>
      <point x="295" y="1778" type="line"/>
      <point x="4" y="659" type="line"/>
      <point x="469" y="659" type="line"/>
      <point x="775" y="1771" type="line"/>
    </contour>
    <contour>
      <point x="558" y="540" type="line"/>
      <point x="558" y="540" type="line"/>
      <point x="878" y="-654" type="line"/>
      <point x="950" y="-379" type="line"/>
      <point x="891" y="-376" type="line"/>
      <point x="856" y="-313"/>
      <point x="836" y="-179"/>
      <point x="836" y="-46" type="curve" smooth="yes"/>
      <point x="836" y="77"/>
      <point x="855" y="211"/>
      <point x="892" y="287" type="curve"/>
      <point x="971" y="282" type="line"/>
      <point x="936" y="201"/>
      <point x="919" y="67"/>
      <point x="919" y="-54" type="curve" smooth="yes"/>
      <point x="919" y="-192"/>
      <point x="939" y="-329"/>
      <point x="971" y="-379" type="curve"/>
      <point x="971" y="-379" type="line"/>
      <point x="976" y="-385"/>
      <point x="981" y="-388"/>
      <point x="986" y="-388" type="curve"/>
      <point x="987" y="-387" type="line"/>
      <point x="1011" y="-386"/>
      <point x="1034" y="-322"/>
      <point x="1046" y="-219" type="curve" smooth="yes"/>
      <point x="1052" y="-168"/>
      <point x="1055" y="-112"/>
      <point x="1055" y="-51" type="curve" smooth="yes"/>
      <point x="1055" y="-31"/>
      <point x="1054" y="-9"/>
      <point x="1053" y="16" type="curve"/>
      <point x="1108" y="224" type="line"/>
      <point x="1036" y="228" type="line"/>
      <point x="1002" y="291"/>
      <point x="981" y="425"/>
      <point x="981" y="558" type="curve" smooth="yes"/>
      <point x="981" y="681"/>
      <point x="1000" y="815"/>
      <point x="1037" y="891" type="curve"/>
      <point x="1106" y="886" type="line"/>
      <point x="1052" y="1086" type="line"/>
      <point x="1053" y="1108"/>
      <point x="1053" y="1126"/>
      <point x="1053" y="1141" type="curve" smooth="yes"/>
      <point x="1053" y="1232"/>
      <point x="1046" y="1319"/>
      <point x="1033" y="1379" type="curve" smooth="yes"/>
      <point x="1020" y="1439"/>
      <point x="1003" y="1477"/>
      <point x="985" y="1477" type="curve" smooth="yes"/>
      <point x="976" y="1477"/>
      <point x="967" y="1469"/>
      <point x="958" y="1452" type="curve"/>
      <point x="929" y="1370"/>
      <point x="916" y="1247"/>
      <point x="916" y="1134" type="curve" smooth="yes"/>
      <point x="916" y="1120"/>
      <point x="916" y="1106"/>
      <point x="916" y="1092" type="curve" smooth="yes"/>
      <point x="920" y="969"/>
      <point x="940" y="854"/>
      <point x="969" y="813" type="curve"/>
      <point x="888" y="817" type="line"/>
      <point x="866" y="857"/>
      <point x="849" y="926"/>
      <point x="840" y="1005" type="curve" smooth="yes"/>
      <point x="836" y="1049"/>
      <point x="833" y="1097"/>
      <point x="833" y="1147" type="curve" smooth="yes"/>
      <point x="833" y="1230"/>
      <point x="840" y="1308"/>
      <point x="856" y="1381" type="curve" smooth="yes"/>
      <point x="865" y="1420"/>
      <point x="876" y="1453"/>
      <point x="888" y="1480" type="curve"/>
      <point x="946" y="1476" type="line"/>
      <point x="876" y="1734" type="line"/>
    </contour>
    <contour>
      <point x="1131" y="213" type="curve"/>
      <point x="1131" y="213" type="line"/>
      <point x="1132" y="214" type="line"/>
      <point x="1157" y="215"/>
      <point x="1179" y="279"/>
      <point x="1191" y="382" type="curve" smooth="yes"/>
      <point x="1197" y="433"/>
      <point x="1200" y="489"/>
      <point x="1200" y="550" type="curve" smooth="yes"/>
      <point x="1200" y="671"/>
      <point x="1187" y="781"/>
      <point x="1166" y="841" type="curve" smooth="yes"/>
      <point x="1155" y="871"/>
      <point x="1144" y="886"/>
      <point x="1131" y="886" type="curve" smooth="yes"/>
      <point x="1124" y="886"/>
      <point x="1117" y="881"/>
      <point x="1110" y="871" type="curve"/>
      <point x="1080" y="790"/>
      <point x="1064" y="663"/>
      <point x="1064" y="547" type="curve" smooth="yes"/>
      <point x="1064" y="534"/>
      <point x="1064" y="521"/>
      <point x="1065" y="509" type="curve" smooth="yes"/>
      <point x="1068" y="384"/>
      <point x="1089" y="267"/>
      <point x="1117" y="223" type="curve"/>
      <point x="1114" y="223" type="line"/>
      <point x="1120" y="216"/>
      <point x="1125" y="213"/>
    </contour>
    <contour>
      <point x="811" y="209" type="curve"/>
      <point x="811" y="209" type="line"/>
      <point x="730" y="213" type="line"/>
      <point x="695" y="276"/>
      <point x="675" y="413"/>
      <point x="675" y="546" type="curve" smooth="yes"/>
      <point x="675" y="668"/>
      <point x="694" y="799"/>
      <point x="731" y="876" type="curve"/>
      <point x="810" y="871" type="line"/>
      <point x="775" y="790"/>
      <point x="758" y="655"/>
      <point x="758" y="534" type="curve" smooth="yes"/>
      <point x="758" y="524"/>
      <point x="758" y="513"/>
      <point x="758" y="504" type="curve" smooth="yes"/>
      <point x="762" y="375"/>
      <point x="782" y="253"/>
    </contour>
    <contour>
      <point x="0" y="439" type="line"/>
      <point x="0" y="439" type="line"/>
      <point x="291" y="-680" type="line"/>
      <point x="786" y="-680" type="line"/>
      <point x="465" y="439" type="line"/>
    </contour>
  </outline>
</glyph>
<glyph name="uniE0CF" format="2">
  <advance width="1200"/>
  <unicode hex="E0CF"/>
  <note>
uniE0CF
</note>
  <outline>
    <contour>
      <point x="601" y="1500" type="curve"/>
      <point x="601" y="1500" type="line"/>
      <point x="607" y="1500"/>
      <point x="614" y="1500"/>
      <point x="620" y="1501" type="curve" smooth="yes"/>
      <point x="681" y="1509"/>
      <point x="738" y="1549"/>
      <point x="759" y="1608" type="curve"/>
      <point x="759" y="1602" type="line"/>
      <point x="763" y="1613"/>
      <point x="764" y="1625"/>
      <point x="764" y="1637" type="curve" smooth="yes"/>
      <point x="764" y="1638" type="line" smooth="yes"/>
      <point x="763" y="1715"/>
      <point x="690" y="1778"/>
      <point x="599" y="1778" type="curve" smooth="yes"/>
      <point x="509" y="1778"/>
      <point x="435" y="1714"/>
      <point x="435" y="1637" type="curve" smooth="yes"/>
      <point x="435" y="1622"/>
      <point x="438" y="1608"/>
      <point x="443" y="1595" type="curve"/>
      <point x="443" y="1594" type="line"/>
      <point x="482" y="1532"/>
      <point x="544" y="1500"/>
    </contour>
    <contour>
      <point x="21" y="1114" type="line"/>
      <point x="21" y="1114" type="line"/>
      <point x="605" y="462" type="line"/>
      <point x="1188" y="1118" type="line"/>
      <point x="1053" y="1265" type="line"/>
      <point x="1052" y="1144" type="line"/>
      <point x="1021" y="1074"/>
      <point x="955" y="1032"/>
      <point x="890" y="1032" type="curve" smooth="yes"/>
      <point x="830" y="1032"/>
      <point x="766" y="1072"/>
      <point x="728" y="1147" type="curve"/>
      <point x="731" y="1308" type="line"/>
      <point x="770" y="1237"/>
      <point x="836" y="1202"/>
      <point x="895" y="1202" type="curve" smooth="yes"/>
      <point x="962" y="1202"/>
      <point x="1029" y="1243"/>
      <point x="1053" y="1309" type="curve" smooth="yes"/>
      <point x="1056" y="1319"/>
      <point x="1058" y="1329"/>
      <point x="1058" y="1339" type="curve"/>
      <point x="1057" y="1341" type="line"/>
      <point x="1057" y="1418"/>
      <point x="984" y="1480"/>
      <point x="893" y="1480" type="curve" smooth="yes"/>
      <point x="883" y="1480"/>
      <point x="873" y="1479"/>
      <point x="860" y="1477" type="curve"/>
      <point x="759" y="1589" type="line"/>
      <point x="757" y="1442" type="line"/>
      <point x="726" y="1372"/>
      <point x="660" y="1330"/>
      <point x="595" y="1330" type="curve" smooth="yes"/>
      <point x="535" y="1330"/>
      <point x="471" y="1369"/>
      <point x="433" y="1444" type="curve"/>
      <point x="435" y="1586" type="line"/>
      <point x="338" y="1475" type="line"/>
      <point x="327" y="1476"/>
      <point x="318" y="1477"/>
      <point x="311" y="1477" type="curve" smooth="yes"/>
      <point x="220" y="1477"/>
      <point x="147" y="1415"/>
      <point x="147" y="1336" type="curve" smooth="yes"/>
      <point x="147" y="1318"/>
      <point x="151" y="1301"/>
      <point x="159" y="1284" type="curve"/>
      <point x="199" y="1225"/>
      <point x="259" y="1195"/>
      <point x="314" y="1195" type="curve" smooth="yes"/>
      <point x="322" y="1195"/>
      <point x="328" y="1196"/>
      <point x="335" y="1197" type="curve" smooth="yes"/>
      <point x="395" y="1205"/>
      <point x="451" y="1245"/>
      <point x="471" y="1304" type="curve"/>
      <point x="469" y="1138" type="line"/>
      <point x="439" y="1068"/>
      <point x="373" y="1025"/>
      <point x="308" y="1025" type="curve" smooth="yes"/>
      <point x="248" y="1025"/>
      <point x="183" y="1065"/>
      <point x="146" y="1140" type="curve"/>
      <point x="147" y="1257" type="line"/>
    </contour>
    <contour>
      <point x="603" y="703" type="curve"/>
      <point x="603" y="703" type="line"/>
      <point x="543" y="703"/>
      <point x="478" y="742"/>
      <point x="441" y="817" type="curve"/>
      <point x="443" y="979" type="line"/>
      <point x="483" y="907"/>
      <point x="549" y="872"/>
      <point x="609" y="872" type="curve" smooth="yes"/>
      <point x="613" y="872"/>
      <point x="618" y="873"/>
      <point x="622" y="873" type="curve" smooth="yes"/>
      <point x="686" y="880"/>
      <point x="745" y="921"/>
      <point x="766" y="981" type="curve"/>
      <point x="764" y="815" type="line"/>
      <point x="734" y="745"/>
      <point x="667" y="703"/>
    </contour>
    <contour>
      <point x="654" y="272" type="line"/>
      <point x="654" y="272" type="line"/>
      <point x="654" y="-680" type="line"/>
      <point x="1200" y="-84" type="line"/>
      <point x="1200" y="930" type="line"/>
    </contour>
    <contour>
      <point x="0" y="-76" type="line"/>
      <point x="0" y="-76" type="line"/>
      <point x="546" y="-671" type="line"/>
      <point x="546" y="281" type="line"/>
      <point x="3" y="908" type="line"/>
    </contour>
  </outline>
</glyph>
<glyph name="uniE0D0" format="2">
  <advance width="1200"/>
  <unicode hex="E0D0"/>
  <note>
uniE0D0
</note>
  <outline>
    <contour>
      <point x="472" y="1304" type="curve"/>
      <point x="472" y="1304" type="line"/>
      <point x="423" y="1374" type="line" smooth="yes"/>
      <point x="377" y="1440"/>
      <point x="315" y="1479"/>
      <point x="248" y="1479" type="curve" smooth="yes"/>
      <point x="158" y="1479"/>
      <point x="77" y="1410"/>
      <point x="33" y="1301" type="curve" smooth="yes"/>
      <point x="11" y="1246"/>
      <point x="0" y="1186"/>
      <point x="0" y="1121" type="curve" smooth="yes"/>
      <point x="0" y="1025"/>
      <point x="25" y="934"/>
      <point x="72" y="868" type="curve" smooth="yes"/>
      <point x="122" y="798" type="line" smooth="yes"/>
      <point x="169" y="732"/>
      <point x="230" y="693"/>
      <point x="297" y="693" type="curve" smooth="yes"/>
      <point x="386" y="693"/>
      <point x="467" y="762"/>
      <point x="511" y="871" type="curve" smooth="yes"/>
      <point x="533" y="926"/>
      <point x="545" y="986"/>
      <point x="545" y="1051" type="curve" smooth="yes"/>
      <point x="545" y="1147"/>
      <point x="518" y="1238"/>
    </contour>
    <contour>
      <point x="727" y="868" type="curve"/>
      <point x="727" y="868" type="line"/>
      <point x="777" y="798" type="line" smooth="yes"/>
      <point x="824" y="732"/>
      <point x="885" y="693"/>
      <point x="952" y="693" type="curve" smooth="yes"/>
      <point x="1041" y="693"/>
      <point x="1122" y="762"/>
      <point x="1166" y="871" type="curve" smooth="yes"/>
      <point x="1188" y="926"/>
      <point x="1200" y="986"/>
      <point x="1200" y="1051" type="curve" smooth="yes"/>
      <point x="1200" y="1147"/>
      <point x="1173" y="1238"/>
      <point x="1127" y="1304" type="curve" smooth="yes"/>
      <point x="1078" y="1374" type="line" smooth="yes"/>
      <point x="1032" y="1440"/>
      <point x="970" y="1479"/>
      <point x="903" y="1479" type="curve" smooth="yes"/>
      <point x="813" y="1479"/>
      <point x="732" y="1410"/>
      <point x="688" y="1301" type="curve" smooth="yes"/>
      <point x="666" y="1246"/>
      <point x="655" y="1186"/>
      <point x="655" y="1121" type="curve" smooth="yes"/>
      <point x="655" y="1057"/>
      <point x="668" y="993"/>
      <point x="689" y="941" type="curve" smooth="yes"/>
      <point x="700" y="914"/>
      <point x="712" y="890"/>
    </contour>
    <contour>
      <point x="113" y="890" type="curve"/>
      <point x="113" y="890" type="line"/>
      <point x="68" y="955"/>
      <point x="45" y="1032"/>
      <point x="45" y="1121" type="curve" smooth="yes"/>
      <point x="45" y="1213"/>
      <point x="74" y="1300"/>
      <point x="114" y="1355" type="curve" smooth="yes"/>
      <point x="154" y="1410"/>
      <point x="204" y="1444"/>
      <point x="248" y="1444" type="curve" smooth="yes"/>
      <point x="292" y="1444"/>
      <point x="343" y="1410"/>
      <point x="383" y="1353" type="curve" smooth="yes"/>
      <point x="428" y="1288"/>
      <point x="450" y="1210"/>
      <point x="450" y="1121" type="curve" smooth="yes"/>
      <point x="450" y="1030"/>
      <point x="422" y="943"/>
      <point x="382" y="888" type="curve" smooth="yes"/>
      <point x="342" y="833"/>
      <point x="291" y="798"/>
      <point x="248" y="798" type="curve" smooth="yes"/>
      <point x="203" y="798"/>
      <point x="152" y="833"/>
    </contour>
    <contour>
      <point x="769" y="1355" type="curve"/>
      <point x="769" y="1355" type="line"/>
      <point x="809" y="1410"/>
      <point x="859" y="1444"/>
      <point x="903" y="1444" type="curve" smooth="yes"/>
      <point x="947" y="1444"/>
      <point x="998" y="1410"/>
      <point x="1038" y="1353" type="curve" smooth="yes"/>
      <point x="1083" y="1288"/>
      <point x="1106" y="1210"/>
      <point x="1106" y="1121" type="curve" smooth="yes"/>
      <point x="1106" y="1030"/>
      <point x="1077" y="943"/>
      <point x="1037" y="888" type="curve" smooth="yes"/>
      <point x="997" y="833"/>
      <point x="946" y="798"/>
      <point x="903" y="798" type="curve" smooth="yes"/>
      <point x="858" y="798"/>
      <point x="807" y="833"/>
      <point x="768" y="890" type="curve" smooth="yes"/>
      <point x="723" y="955"/>
      <point x="700" y="1032"/>
      <point x="700" y="1121" type="curve" smooth="yes"/>
      <point x="700" y="1213"/>
      <point x="729" y="1300"/>
    </contour>
    <contour>
      <point x="392" y="1367" type="line"/>
      <point x="392" y="1367" type="line"/>
      <point x="392" y="1368" type="line"/>
      <point x="397" y="1361" type="line" smooth="yes"/>
      <point x="398" y="1360"/>
      <point x="396" y="1362"/>
      <point x="396" y="1362" type="curve"/>
    </contour>
    <contour>
      <point x="1052" y="1361" type="curve"/>
      <point x="1052" y="1361" type="line"/>
      <point x="1053" y="1360"/>
      <point x="1052" y="1362"/>
      <point x="1051" y="1362" type="curve"/>
      <point x="1047" y="1367" type="line"/>
      <point x="1049" y="1366"/>
      <point x="1049" y="1364"/>
    </contour>
    <contour>
      <point x="102" y="1367" type="curve"/>
      <point x="102" y="1367" type="line"/>
      <point x="54" y="1298"/>
      <point x="31" y="1216"/>
      <point x="31" y="1121" type="curve" smooth="yes"/>
      <point x="31" y="1115" type="line"/>
      <point x="24" y="1125" type="line"/>
      <point x="25" y="1221"/>
      <point x="54" y="1307"/>
    </contour>
    <contour>
      <point x="757" y="1367" type="curve"/>
      <point x="757" y="1367" type="line"/>
      <point x="709" y="1298"/>
      <point x="686" y="1216"/>
      <point x="686" y="1121" type="curve" smooth="yes"/>
      <point x="686" y="1115" type="line"/>
      <point x="679" y="1125" type="line"/>
      <point x="680" y="1221"/>
      <point x="709" y="1307"/>
    </contour>
    <contour>
      <point x="530" y="1076" type="curve"/>
      <point x="530" y="1076" type="line"/>
      <point x="495" y="1125" type="line"/>
      <point x="495" y="1178"/>
      <point x="487" y="1228"/>
      <point x="471" y="1275" type="curve"/>
      <point x="507" y="1218"/>
      <point x="526" y="1152"/>
    </contour>
    <contour>
      <point x="1185" y="1076" type="curve"/>
      <point x="1185" y="1076" type="line"/>
      <point x="1151" y="1126" type="line"/>
      <point x="1150" y="1178"/>
      <point x="1142" y="1228"/>
      <point x="1126" y="1275" type="curve"/>
      <point x="1162" y="1218"/>
      <point x="1181" y="1152"/>
    </contour>
    <contour>
      <point x="455" y="1244" type="curve"/>
      <point x="455" y="1244" type="line"/>
      <point x="466" y="1205"/>
      <point x="471" y="1164"/>
      <point x="471" y="1121" type="curve" smooth="yes"/>
      <point x="471" y="1116" type="line"/>
      <point x="464" y="1125" type="line"/>
      <point x="464" y="1175"/>
      <point x="456" y="1222"/>
      <point x="441" y="1267" type="curve"/>
      <point x="446" y="1260"/>
      <point x="450" y="1252"/>
    </contour>
    <contour>
      <point x="1110" y="1244" type="curve"/>
      <point x="1110" y="1244" type="line"/>
      <point x="1121" y="1205"/>
      <point x="1126" y="1164"/>
      <point x="1126" y="1121" type="curve" smooth="yes"/>
      <point x="1126" y="1116" type="line"/>
      <point x="1119" y="1126" type="line"/>
      <point x="1119" y="1175"/>
      <point x="1111" y="1222"/>
      <point x="1097" y="1267" type="curve"/>
      <point x="1101" y="1260"/>
      <point x="1106" y="1252"/>
    </contour>
    <contour>
      <point x="462" y="812" type="curve"/>
      <point x="462" y="812" type="line"/>
      <point x="421" y="752"/>
      <point x="361" y="713"/>
      <point x="300" y="713" type="curve"/>
      <point x="264" y="764" type="line"/>
      <point x="388" y="776"/>
      <point x="487" y="919"/>
      <point x="495" y="1098" type="curve"/>
      <point x="531" y="1047" type="line"/>
      <point x="530" y="956"/>
      <point x="503" y="871"/>
    </contour>
    <contour>
      <point x="464" y="1098" type="curve"/>
      <point x="464" y="1098" type="line"/>
      <point x="470" y="1089" type="line"/>
      <point x="464" y="1003"/>
      <point x="439" y="932"/>
      <point x="393" y="876" type="curve"/>
      <point x="437" y="939"/>
      <point x="460" y="1013"/>
    </contour>
    <contour>
      <point x="1070" y="759" type="curve"/>
      <point x="1070" y="759" type="line"/>
      <point x="1035" y="730"/>
      <point x="996" y="714"/>
      <point x="955" y="713" type="curve"/>
      <point x="919" y="764" type="line"/>
      <point x="1043" y="776"/>
      <point x="1142" y="919"/>
      <point x="1150" y="1098" type="curve"/>
      <point x="1186" y="1047" type="line"/>
      <point x="1185" y="926"/>
      <point x="1141" y="818"/>
    </contour>
    <contour>
      <point x="1048" y="876" type="curve"/>
      <point x="1048" y="876" type="line"/>
      <point x="1092" y="939"/>
      <point x="1115" y="1013"/>
      <point x="1119" y="1098" type="curve"/>
      <point x="1125" y="1089" type="line"/>
      <point x="1119" y="1003"/>
      <point x="1094" y="932"/>
    </contour>
    <contour>
      <point x="25" y="1096" type="curve"/>
      <point x="25" y="1096" type="line"/>
      <point x="32" y="1085" type="line"/>
      <point x="37" y="1024"/>
      <point x="52" y="969"/>
      <point x="77" y="918" type="curve"/>
      <point x="81" y="905" type="line"/>
      <point x="47" y="960"/>
      <point x="28" y="1023"/>
    </contour>
    <contour>
      <point x="680" y="1096" type="curve"/>
      <point x="680" y="1096" type="line"/>
      <point x="687" y="1085" type="line"/>
      <point x="692" y="1024"/>
      <point x="707" y="969"/>
      <point x="732" y="918" type="curve"/>
      <point x="736" y="905" type="line"/>
      <point x="703" y="960"/>
      <point x="683" y="1023"/>
    </contour>
    <contour>
      <point x="141" y="798" type="curve"/>
      <point x="141" y="798" type="line"/>
      <point x="173" y="775"/>
      <point x="208" y="764"/>
      <point x="245" y="763" type="curve"/>
      <point x="279" y="714" type="line"/>
      <point x="227" y="719"/>
      <point x="180" y="747"/>
    </contour>
    <contour>
      <point x="796" y="798" type="curve"/>
      <point x="796" y="798" type="line"/>
      <point x="829" y="775"/>
      <point x="863" y="764"/>
      <point x="900" y="763" type="curve"/>
      <point x="934" y="714" type="line"/>
      <point x="882" y="719"/>
      <point x="835" y="747"/>
    </contour>
    <contour>
      <point x="472" y="230" type="curve"/>
      <point x="472" y="230" type="line"/>
      <point x="423" y="300" type="line" smooth="yes"/>
      <point x="377" y="366"/>
      <point x="315" y="405"/>
      <point x="248" y="405" type="curve" smooth="yes"/>
      <point x="158" y="405"/>
      <point x="77" y="336"/>
      <point x="33" y="227" type="curve" smooth="yes"/>
      <point x="11" y="172"/>
      <point x="0" y="112"/>
      <point x="0" y="47" type="curve" smooth="yes"/>
      <point x="0" y="-49"/>
      <point x="25" y="-140"/>
      <point x="72" y="-206" type="curve" smooth="yes"/>
      <point x="122" y="-276" type="line" smooth="yes"/>
      <point x="169" y="-342"/>
      <point x="230" y="-381"/>
      <point x="297" y="-381" type="curve" smooth="yes"/>
      <point x="386" y="-381"/>
      <point x="468" y="-314"/>
      <point x="511" y="-204" type="curve" smooth="yes"/>
      <point x="533" y="-148"/>
      <point x="545" y="-88"/>
      <point x="545" y="-23" type="curve" smooth="yes"/>
      <point x="545" y="73"/>
      <point x="518" y="164"/>
    </contour>
    <contour>
      <point x="1127" y="230" type="curve"/>
      <point x="1127" y="230" type="line"/>
      <point x="1078" y="300" type="line" smooth="yes"/>
      <point x="1032" y="366"/>
      <point x="970" y="405"/>
      <point x="903" y="405" type="curve" smooth="yes"/>
      <point x="813" y="405"/>
      <point x="732" y="336"/>
      <point x="688" y="227" type="curve" smooth="yes"/>
      <point x="666" y="172"/>
      <point x="655" y="112"/>
      <point x="655" y="47" type="curve" smooth="yes"/>
      <point x="655" y="-49"/>
      <point x="680" y="-140"/>
      <point x="727" y="-206" type="curve" smooth="yes"/>
      <point x="777" y="-276" type="line" smooth="yes"/>
      <point x="824" y="-342"/>
      <point x="885" y="-381"/>
      <point x="952" y="-381" type="curve" smooth="yes"/>
      <point x="1041" y="-381"/>
      <point x="1123" y="-314"/>
      <point x="1166" y="-204" type="curve" smooth="yes"/>
      <point x="1188" y="-148"/>
      <point x="1200" y="-88"/>
      <point x="1200" y="-23" type="curve" smooth="yes"/>
      <point x="1200" y="41"/>
      <point x="1186" y="105"/>
      <point x="1166" y="158" type="curve" smooth="yes"/>
      <point x="1156" y="184"/>
      <point x="1142" y="208"/>
    </contour>
    <contour>
      <point x="113" y="-184" type="curve"/>
      <point x="113" y="-184" type="line"/>
      <point x="68" y="-119"/>
      <point x="45" y="-42"/>
      <point x="45" y="47" type="curve" smooth="yes"/>
      <point x="45" y="139"/>
      <point x="74" y="226"/>
      <point x="114" y="281" type="curve" smooth="yes"/>
      <point x="154" y="336"/>
      <point x="204" y="370"/>
      <point x="248" y="370" type="curve" smooth="yes"/>
      <point x="292" y="370"/>
      <point x="343" y="336"/>
      <point x="383" y="279" type="curve" smooth="yes"/>
      <point x="428" y="214"/>
      <point x="450" y="136"/>
      <point x="450" y="47" type="curve" smooth="yes"/>
      <point x="450" y="-44"/>
      <point x="422" y="-131"/>
      <point x="382" y="-186" type="curve" smooth="yes"/>
      <point x="342" y="-241"/>
      <point x="291" y="-276"/>
      <point x="248" y="-276" type="curve" smooth="yes"/>
      <point x="203" y="-276"/>
      <point x="152" y="-241"/>
    </contour>
    <contour>
      <point x="768" y="-184" type="curve"/>
      <point x="768" y="-184" type="line"/>
      <point x="723" y="-119"/>
      <point x="700" y="-42"/>
      <point x="700" y="47" type="curve" smooth="yes"/>
      <point x="700" y="122"/>
      <point x="718" y="192"/>
      <point x="747" y="244" type="curve" smooth="yes"/>
      <point x="761" y="269"/>
      <point x="777" y="292"/>
      <point x="794" y="311" type="curve" smooth="yes"/>
      <point x="829" y="350"/>
      <point x="867" y="370"/>
      <point x="903" y="370" type="curve" smooth="yes"/>
      <point x="947" y="370"/>
      <point x="998" y="336"/>
      <point x="1038" y="279" type="curve" smooth="yes"/>
      <point x="1083" y="214"/>
      <point x="1106" y="136"/>
      <point x="1106" y="47" type="curve" smooth="yes"/>
      <point x="1106" y="-44"/>
      <point x="1077" y="-131"/>
      <point x="1037" y="-186" type="curve" smooth="yes"/>
      <point x="997" y="-241"/>
      <point x="946" y="-276"/>
      <point x="903" y="-276" type="curve" smooth="yes"/>
      <point x="874" y="-276"/>
      <point x="842" y="-261"/>
      <point x="811" y="-234" type="curve" smooth="yes"/>
      <point x="795" y="-220"/>
      <point x="781" y="-203"/>
    </contour>
    <contour>
      <point x="392" y="294" type="line"/>
      <point x="392" y="294" type="line"/>
      <point x="397" y="287" type="line" smooth="yes"/>
      <point x="398" y="286"/>
      <point x="396" y="288"/>
      <point x="396" y="288" type="curve"/>
    </contour>
    <contour>
      <point x="34" y="144" type="curve"/>
      <point x="34" y="144" type="line"/>
      <point x="46" y="203"/>
      <point x="71" y="253"/>
      <point x="102" y="293" type="curve"/>
      <point x="54" y="224"/>
      <point x="31" y="142"/>
      <point x="31" y="47" type="curve" smooth="yes"/>
      <point x="31" y="41" type="line"/>
      <point x="24" y="51" type="line"/>
      <point x="25" y="83"/>
      <point x="28" y="114"/>
    </contour>
    <contour>
      <point x="757" y="293" type="curve"/>
      <point x="757" y="293" type="line"/>
      <point x="709" y="224"/>
      <point x="686" y="142"/>
      <point x="686" y="47" type="curve" smooth="yes"/>
      <point x="686" y="41" type="line"/>
      <point x="679" y="51" type="line"/>
      <point x="680" y="147"/>
      <point x="709" y="233"/>
    </contour>
    <contour>
      <point x="1049" y="292" type="line"/>
      <point x="1049" y="292" type="line"/>
      <point x="1052" y="287" type="line" smooth="yes"/>
      <point x="1053" y="286"/>
      <point x="1052" y="288"/>
      <point x="1051" y="288" type="curve"/>
    </contour>
    <contour>
      <point x="530" y="2" type="curve"/>
      <point x="530" y="2" type="line"/>
      <point x="495" y="52" type="line"/>
      <point x="495" y="104"/>
      <point x="487" y="154"/>
      <point x="471" y="201" type="curve"/>
      <point x="507" y="144"/>
      <point x="526" y="78"/>
    </contour>
    <contour>
      <point x="1185" y="2" type="curve"/>
      <point x="1185" y="2" type="line"/>
      <point x="1151" y="52" type="line"/>
      <point x="1150" y="104"/>
      <point x="1142" y="154"/>
      <point x="1126" y="201" type="curve"/>
      <point x="1162" y="144"/>
      <point x="1181" y="78"/>
    </contour>
    <contour>
      <point x="455" y="170" type="curve"/>
      <point x="455" y="170" type="line"/>
      <point x="466" y="131"/>
      <point x="471" y="90"/>
      <point x="471" y="47" type="curve" smooth="yes"/>
      <point x="471" y="42" type="line"/>
      <point x="464" y="51" type="line"/>
      <point x="464" y="101"/>
      <point x="456" y="148"/>
      <point x="441" y="193" type="curve"/>
      <point x="446" y="186"/>
      <point x="450" y="178"/>
    </contour>
    <contour>
      <point x="1110" y="170" type="curve"/>
      <point x="1110" y="170" type="line"/>
      <point x="1121" y="131"/>
      <point x="1126" y="90"/>
      <point x="1126" y="47" type="curve" smooth="yes"/>
      <point x="1126" y="42" type="line"/>
      <point x="1119" y="52" type="line"/>
      <point x="1119" y="101"/>
      <point x="1111" y="148"/>
      <point x="1097" y="193" type="curve"/>
      <point x="1101" y="186"/>
      <point x="1106" y="178"/>
    </contour>
    <contour>
      <point x="415" y="-316" type="curve"/>
      <point x="415" y="-316" type="line"/>
      <point x="380" y="-345"/>
      <point x="341" y="-360"/>
      <point x="300" y="-361" type="curve"/>
      <point x="264" y="-310" type="line"/>
      <point x="388" y="-298"/>
      <point x="487" y="-155"/>
      <point x="495" y="24" type="curve"/>
      <point x="531" y="-28" type="line"/>
      <point x="530" y="-148"/>
      <point x="487" y="-257"/>
    </contour>
    <contour>
      <point x="464" y="24" type="curve"/>
      <point x="464" y="24" type="line"/>
      <point x="470" y="15" type="line"/>
      <point x="464" y="-71"/>
      <point x="438" y="-142"/>
      <point x="393" y="-198" type="curve"/>
      <point x="437" y="-135"/>
      <point x="460" y="-61"/>
    </contour>
    <contour>
      <point x="1070" y="-316" type="curve"/>
      <point x="1070" y="-316" type="line"/>
      <point x="1035" y="-345"/>
      <point x="996" y="-360"/>
      <point x="955" y="-361" type="curve"/>
      <point x="919" y="-310" type="line"/>
      <point x="1043" y="-298"/>
      <point x="1142" y="-155"/>
      <point x="1150" y="24" type="curve"/>
      <point x="1186" y="-27" type="line"/>
      <point x="1185" y="-148"/>
      <point x="1142" y="-257"/>
    </contour>
    <contour>
      <point x="1119" y="24" type="curve"/>
      <point x="1119" y="24" type="line"/>
      <point x="1125" y="15" type="line"/>
      <point x="1119" y="-71"/>
      <point x="1094" y="-142"/>
      <point x="1048" y="-198" type="curve"/>
      <point x="1092" y="-135"/>
      <point x="1115" y="-61"/>
    </contour>
    <contour>
      <point x="25" y="22" type="curve"/>
      <point x="25" y="22" type="line"/>
      <point x="32" y="11" type="line"/>
      <point x="37" y="-50"/>
      <point x="52" y="-105"/>
      <point x="77" y="-156" type="curve"/>
      <point x="81" y="-169" type="line"/>
      <point x="47" y="-114"/>
      <point x="28" y="-51"/>
    </contour>
    <contour>
      <point x="680" y="22" type="curve"/>
      <point x="680" y="22" type="line"/>
      <point x="687" y="11" type="line"/>
      <point x="692" y="-50"/>
      <point x="707" y="-105"/>
      <point x="732" y="-156" type="curve"/>
      <point x="736" y="-169" type="line"/>
      <point x="703" y="-114"/>
      <point x="683" y="-51"/>
    </contour>
    <contour>
      <point x="141" y="-276" type="curve"/>
      <point x="141" y="-276" type="line"/>
      <point x="173" y="-299"/>
      <point x="208" y="-310"/>
      <point x="245" y="-311" type="curve"/>
      <point x="279" y="-360" type="line"/>
      <point x="227" y="-355"/>
      <point x="180" y="-327"/>
    </contour>
    <contour>
      <point x="796" y="-276" type="curve"/>
      <point x="796" y="-276" type="line"/>
      <point x="829" y="-299"/>
      <point x="863" y="-310"/>
      <point x="900" y="-311" type="curve"/>
      <point x="934" y="-360" type="line"/>
      <point x="882" y="-355"/>
      <point x="835" y="-327"/>
    </contour>
  </outline>
</glyph>
